<svg width="190" height="38" viewBox="0 0 190 38" fill="none" xmlns="http://www.w3.org/2000/svg">
<g clip-path="url(#clip0)">
<path d="M61.7454 30.7619C60.2175 30.7619 58.7795 30.4904 57.611 30.038C56.3528 29.5857 55.3641 28.8619 54.4654 27.9571C53.6565 27.0523 52.9374 25.8761 52.4881 24.6095C52.0387 23.2523 51.769 21.7142 51.769 19.9952C51.769 18.2761 52.0387 16.738 52.5779 15.3809C53.1172 14.0238 53.8362 12.938 54.735 12.0333C55.6338 11.1285 56.7123 10.4047 57.9706 9.95233C59.2288 9.49994 60.4871 9.22852 61.9251 9.22852C62.734 9.22852 63.5429 9.31899 64.262 9.40947C64.981 9.49994 65.5202 9.6809 66.0595 9.86185C66.5988 10.0428 66.9583 10.2238 67.3178 10.4047C67.6773 10.5857 67.857 10.6761 68.0368 10.7666L66.9583 13.8428C66.5089 13.5714 65.7899 13.2999 64.8911 13.0285C63.9923 12.7571 63.0935 12.6666 62.015 12.6666C61.1163 12.6666 60.3074 12.8476 59.4985 13.119C58.6896 13.3904 58.0604 13.9333 57.5212 14.4761C56.9819 15.1095 56.5325 15.8333 56.173 16.8285C55.8135 17.7333 55.7236 18.819 55.7236 20.0857C55.7236 21.1714 55.8135 22.1666 56.0831 23.0714C56.3528 23.9761 56.7123 24.7904 57.2515 25.4238C57.7908 26.0571 58.4199 26.5999 59.2288 26.9619C60.0377 27.3238 60.9365 27.5047 62.1049 27.5047C63.4531 27.5047 64.5316 27.4142 65.3405 27.1428C66.1494 26.8714 66.7785 26.5999 67.2279 26.419L68.2165 29.4952C67.9469 29.6761 67.6773 29.8571 67.2279 29.9476C66.7785 30.1285 66.3291 30.219 65.7899 30.3999C65.2506 30.5809 64.6215 30.6714 63.9024 30.7619C63.2733 30.7619 62.4644 30.7619 61.7454 30.7619Z" fill="white"/>
<path d="M84.9338 22.5286C84.9338 23.7953 84.754 24.881 84.3945 25.8762C84.035 26.8715 83.4957 27.7762 82.8666 28.5C82.2374 29.2238 81.4285 29.7667 80.5298 30.1286C79.631 30.4905 78.6424 30.7619 77.474 30.7619C76.3954 30.7619 75.4068 30.581 74.4181 30.1286C73.5194 29.7667 72.7105 29.1334 72.0813 28.5C71.4522 27.7762 70.9129 26.9619 70.5534 25.8762C70.1939 24.881 70.0142 23.7048 70.0142 22.5286C70.0142 21.2619 70.1939 20.1762 70.5534 19.181C70.9129 18.1857 71.4522 17.281 72.0813 16.5572C72.7105 15.8334 73.5194 15.2905 74.4181 14.9286C75.3169 14.5667 76.3056 14.3857 77.3841 14.3857C78.4626 14.3857 79.4513 14.5667 80.35 14.9286C81.2488 15.2905 82.0577 15.8334 82.6868 16.5572C83.316 17.281 83.8552 18.0953 84.2147 19.181C84.754 20.1762 84.9338 21.2619 84.9338 22.5286ZM81.2488 22.5286C81.2488 20.9905 80.8893 19.7238 80.2601 18.8191C79.631 17.9143 78.6424 17.4619 77.474 17.4619C76.3056 17.4619 75.4068 17.9143 74.6878 18.8191C74.0586 19.7238 73.6991 20.9905 73.6991 22.5286C73.6991 24.0667 74.0586 25.3334 74.6878 26.2381C75.3169 27.1429 76.3056 27.5953 77.474 27.5953C78.6424 27.5953 79.5411 27.1429 80.2601 26.2381C80.9792 25.3334 81.2488 24.0667 81.2488 22.5286Z" fill="white"/>
<path d="M88.6187 15.2C89.3377 15.0191 90.2364 14.8381 91.315 14.6572C92.3935 14.4762 93.6518 14.3857 94.9999 14.3857C96.2582 14.3857 97.3367 14.5667 98.1456 14.9286C98.9545 15.2905 99.6735 15.7429 100.213 16.3762C100.752 17.0096 101.112 17.7334 101.291 18.6381C101.471 19.5429 101.561 20.4476 101.561 21.5334V30.3096H97.9658V22.0762C97.9658 21.2619 97.876 20.5381 97.7861 19.9048C97.6962 19.3619 97.5165 18.8191 97.2468 18.4572C96.9772 18.0953 96.6177 17.8238 96.2582 17.6429C95.8088 17.4619 95.3594 17.3715 94.7303 17.3715C94.2809 17.3715 93.8315 17.3715 93.2923 17.4619C92.8429 17.5524 92.3935 17.5524 92.2137 17.6429V30.2191H88.6187V15.2Z" fill="white"/>
<path d="M105.785 10.5855L109.38 9.95215V14.6569H114.863V17.6426H109.38V23.976C109.38 25.2426 109.56 26.1474 110.009 26.6902C110.369 27.2331 111.088 27.5045 111.987 27.5045C112.616 27.5045 113.245 27.4141 113.694 27.3236C114.234 27.1426 114.593 27.0522 114.863 26.9617L115.492 29.8569C115.042 30.0379 114.503 30.2188 113.874 30.3998C113.245 30.5807 112.436 30.6712 111.537 30.6712C110.459 30.6712 109.47 30.4902 108.751 30.2188C108.032 29.9474 107.403 29.495 106.954 28.9522C106.504 28.4093 106.235 27.6855 106.055 26.8712C105.875 26.0569 105.785 25.1522 105.785 24.1569V10.5855V10.5855Z" fill="white"/>
<path d="M123.491 14.3857C124.659 14.3857 125.648 14.5667 126.457 14.8381C127.266 15.1096 127.895 15.5619 128.434 16.1048C128.883 16.6476 129.243 17.281 129.513 18.0953C129.692 18.8191 129.782 19.7238 129.782 20.6286V30.0381C129.243 30.1286 128.434 30.3095 127.266 30.4905C126.187 30.6715 124.929 30.7619 123.491 30.7619C122.592 30.7619 121.693 30.6715 120.974 30.4905C120.165 30.3095 119.536 30.0381 118.997 29.5857C118.458 29.2238 118.008 28.681 117.739 28.0476C117.469 27.4143 117.289 26.6 117.289 25.6953C117.289 24.7905 117.469 24.0667 117.829 23.4334C118.188 22.8 118.637 22.3476 119.267 21.8953C119.896 21.5334 120.525 21.2619 121.334 21.081C122.143 20.9 122.952 20.8096 123.76 20.8096C124.12 20.8096 124.569 20.8096 125.019 20.9C125.468 20.9905 125.918 20.9905 126.367 21.1715V20.5381C126.367 20.0857 126.277 19.7238 126.187 19.3619C126.097 19 125.918 18.6381 125.648 18.3667C125.378 18.0953 125.109 17.8238 124.659 17.7334C124.21 17.5524 123.76 17.4619 123.131 17.4619C122.322 17.4619 121.514 17.5524 120.884 17.6429C120.165 17.7334 119.626 17.9143 119.177 18.0953L118.727 15.2C119.177 15.0191 119.806 14.8381 120.705 14.7476C121.603 14.3857 122.502 14.3857 123.491 14.3857ZM123.76 27.7762C124.839 27.7762 125.738 27.6857 126.277 27.5953V23.6143C126.097 23.5238 125.828 23.5238 125.378 23.4334C124.929 23.3429 124.569 23.3429 124.12 23.3429C123.76 23.3429 123.311 23.3429 122.952 23.4334C122.502 23.5238 122.143 23.6143 121.873 23.7953C121.514 23.9762 121.244 24.1572 121.064 24.4286C120.884 24.7 120.795 25.0619 120.795 25.5143C120.795 26.3286 121.064 26.9619 121.603 27.3238C122.143 27.5953 122.862 27.7762 123.76 27.7762Z" fill="white"/>
<path d="M148.117 22.5284C148.117 23.7951 147.938 24.8808 147.578 25.876C147.218 26.8713 146.679 27.776 146.05 28.4094C145.331 29.1332 144.522 29.676 143.534 30.0379C142.545 30.3998 141.466 30.5808 140.208 30.5808C139.04 30.5808 137.871 30.4903 136.793 30.3094C135.714 30.1284 134.815 29.9475 134.096 29.676V7.78079L137.692 7.14746V15.1998C138.141 15.0189 138.59 14.7475 139.219 14.5665C139.849 14.3856 140.478 14.2951 141.197 14.2951C142.275 14.2951 143.264 14.476 144.073 14.8379C144.972 15.1998 145.691 15.7427 146.23 16.4665C146.769 17.1903 147.218 18.0046 147.578 19.0903C147.938 20.2665 148.117 21.3522 148.117 22.5284ZM144.432 22.5284C144.432 20.9903 144.163 19.8141 143.534 18.9094C142.904 18.0046 142.006 17.5522 140.657 17.5522C140.028 17.5522 139.489 17.6427 138.95 17.8237C138.411 18.0046 137.961 18.1856 137.692 18.457V27.4141C137.961 27.5046 138.321 27.5046 138.68 27.5951C139.04 27.6856 139.579 27.6856 140.118 27.6856C141.466 27.6856 142.455 27.2332 143.264 26.3284C144.073 25.3332 144.432 24.0665 144.432 22.5284Z" fill="white"/>
<path d="M155.847 10.133C155.847 10.7663 155.667 11.3092 155.217 11.7616C154.768 12.1235 154.229 12.3949 153.69 12.3949C153.06 12.3949 152.521 12.214 152.162 11.7616C151.712 11.3997 151.532 10.8568 151.532 10.133C151.532 9.40919 151.712 8.86633 152.162 8.50443C152.611 8.14252 153.15 7.87109 153.69 7.87109C154.319 7.87109 154.768 8.05205 155.217 8.50443C155.577 8.95681 155.847 9.49966 155.847 10.133ZM155.397 30.3092H151.802V14.7473H155.397V30.3092Z" fill="white"/>
<path d="M165.374 30.6713C164.295 30.6713 163.396 30.4903 162.677 30.3094C161.958 30.1284 161.419 29.7665 160.97 29.4046C160.52 28.9522 160.251 28.4998 160.071 27.8665C159.891 27.2332 159.801 26.5998 159.801 25.7856V7.78079L163.396 7.14746V24.9713C163.396 25.4237 163.396 25.7856 163.486 26.057C163.576 26.3284 163.666 26.5998 163.846 26.7808C164.025 26.9617 164.295 27.1427 164.565 27.2332C164.834 27.3237 165.284 27.4141 165.733 27.5046L165.374 30.6713Z" fill="white"/>
<path d="M172.744 10.133C172.744 10.7663 172.564 11.3092 172.114 11.7616C171.665 12.1235 171.126 12.3949 170.587 12.3949C169.957 12.3949 169.418 12.214 169.059 11.7616C168.609 11.3997 168.429 10.8568 168.429 10.133C168.429 9.40919 168.609 8.86633 169.059 8.50443C169.508 8.14252 170.047 7.87109 170.587 7.87109C171.216 7.87109 171.665 8.05205 172.114 8.50443C172.564 8.95681 172.744 9.49966 172.744 10.133ZM172.384 30.3092H168.789V14.7473H172.384V30.3092Z" fill="white"/>
<path d="M182.54 19.5428L185.866 14.7476H189.64L184.428 22.2571C185.506 23.6142 186.585 25.0618 187.573 26.419C188.562 27.8666 189.371 29.1333 190 30.3999H186.045C185.866 30.038 185.596 29.6761 185.326 29.2237C185.057 28.7714 184.697 28.319 184.428 27.8666C184.068 27.4142 183.798 26.9618 183.439 26.419C183.079 25.9666 182.72 25.5142 182.45 25.0618C181.731 25.8761 181.102 26.7809 180.383 27.7761C179.754 28.7714 179.125 29.5857 178.765 30.3999H175.08C175.35 29.7666 175.709 29.1333 176.159 28.4999C176.608 27.8666 177.058 27.1428 177.507 26.5095C177.956 25.7857 178.496 25.1523 179.035 24.4285C179.574 23.7047 180.024 23.0714 180.563 22.438L175.35 14.838H179.305L182.54 19.5428Z" fill="white"/>
<path d="M28.2214 18.0952C28.0417 17.7333 27.772 17.3714 27.5024 17.0095C27.3227 16.8286 14.65 1.35714 14.5601 1.17619C13.7512 0.271429 13.1221 0 11.7739 0H2.06721C1.07856 0 0.359546 0.361905 0.0899154 0.904762C-0.0898386 1.35714 -0.179716 2.08095 0.629177 3.07619C1.07856 3.70952 5.48254 8.95714 8.98774 13.2095C11.1448 15.8333 13.0322 18.0952 13.3018 18.4571C13.3018 18.4571 13.4816 18.819 13.4816 19C13.4816 19.2714 13.3018 19.5429 13.3018 19.5429C13.0322 19.9048 11.1448 22.1667 8.98774 24.7905C5.48254 28.9524 1.07856 34.2 0.719054 34.8333C-0.0898386 35.919 -0.0898386 36.6429 0.0899154 37.0952C0.359546 37.6381 1.07856 38 2.06721 38H11.7739C13.1221 38 13.8411 37.7286 14.5601 36.8238C14.65 36.6429 27.3227 21.1714 27.5024 20.9905C27.772 20.6286 28.0417 20.3571 28.2214 19.9048C28.3113 19.6333 28.4012 19.2714 28.4012 19C28.4012 18.6381 28.3113 18.3667 28.2214 18.0952Z" fill="white"/>
<path d="M13.5712 34.8333C13.2117 34.2905 10.1559 30.581 7.10009 26.9619C4.04427 30.581 0.988451 34.2905 0.628943 34.8333C-0.17995 35.9191 -0.17995 36.6429 -0.00019586 37.0953C0.0896812 37.1857 0.0896812 37.2762 0.179558 37.3667C0.898574 37.8191 1.52771 38 2.51636 38H7.10009H11.6838C12.6725 38 13.3016 37.8191 13.9307 37.3667C14.0206 37.2762 14.1105 37.1857 14.1105 37.0953C14.3801 36.6429 14.3801 35.9191 13.5712 34.8333Z" fill="white"/>
<path d="M0.719031 3.07619C1.07854 3.61905 4.13436 7.32857 7.1003 10.9476C10.1561 7.32857 13.2119 3.61905 13.5714 3.07619C14.3803 1.99048 14.3803 1.26667 14.2006 0.904762C14.1107 0.814286 14.1107 0.723809 14.0208 0.633333C13.3917 0.180952 12.7626 0 11.7739 0H7.1003H2.51657C1.52792 0 0.898785 0.180952 0.359523 0.633333C0.269646 0.723809 0.179769 0.814286 0.089892 0.904762C-0.089862 1.26667 -0.089862 1.99048 0.719031 3.07619Z" fill="white"/>
<path d="M31.0975 16.5569C34.4229 12.576 41.5232 4.0712 42.0624 3.25691C43.4106 1.53786 42.6017 0.452148 40.894 0.452148H31.1873C29.8392 0.452148 29.21 0.723577 28.5809 1.53786C28.5809 1.53786 26.334 4.25215 23.7275 7.41881C26.5137 10.8569 29.7493 14.8379 31.0975 16.5569Z" fill="white"/>
<path d="M31.0975 21.895C29.7493 23.6141 26.5138 27.5045 23.6377 30.9426C26.2441 34.1093 28.4911 36.9141 28.4911 36.9141C29.2101 37.7284 29.8392 37.9998 31.0975 37.9998H40.8042C42.5119 37.9998 43.3208 36.9141 41.9726 35.195C41.5232 34.3807 34.4229 25.876 31.0975 21.895Z" fill="white"/>
</g>
<defs>
<clipPath id="clip0">
<rect width="190" height="38" fill="white"/>
</clipPath>
</defs>
</svg>
