<svg width="335" height="652" viewBox="0 0 335 652" fill="none" xmlns="http://www.w3.org/2000/svg">
<path d="M130.81 279.591C189.118 210.481 313.612 62.838 323.067 48.7019C346.705 18.8591 332.522 0.0109863 302.581 0.0109863H132.386C108.748 0.0109863 97.7168 4.72301 86.6857 18.8591C86.6857 18.8591 47.2888 65.9794 1.58838 120.953C50.4405 180.639 107.172 249.748 130.81 279.591Z" fill="white" fill-opacity="0.1"/>
<path d="M130.81 372.261C107.172 402.104 50.4407 469.643 0.0126953 529.328C45.7131 584.302 85.1101 632.993 85.1101 632.993C97.7171 647.129 108.748 651.841 130.81 651.841H301.005C330.947 651.841 345.13 632.993 321.492 603.15C313.612 589.014 189.118 441.37 130.81 372.261Z" fill="white" fill-opacity="0.1"/>
</svg>
