<svg width="499" height="645" viewBox="0 0 499 645" fill="none" xmlns="http://www.w3.org/2000/svg">
<path d="M495.382 299.135C492.231 292.852 487.503 286.57 482.775 280.287C479.624 277.146 257.425 8.56013 255.849 5.41878C241.666 -10.288 230.635 -15 206.997 -15H36.8023C19.4677 -15 6.86067 -8.7173 2.13304 0.706754C-1.01871 8.56013 -2.59459 21.1255 11.5883 38.403C19.4677 49.3977 96.6856 140.497 158.145 214.319C195.966 259.868 229.059 299.135 233.787 305.418C233.787 305.418 236.939 311.7 236.939 314.842C236.939 319.554 233.787 324.266 233.787 324.266C229.059 330.549 195.966 369.815 158.145 415.365C96.6856 487.616 19.4677 578.715 13.1642 589.71C-1.01871 608.558 -1.01871 621.124 2.13304 628.977C6.86067 638.401 19.4677 644.684 36.8023 644.684H206.997C230.635 644.684 243.242 639.972 255.849 624.265C257.425 621.124 479.624 352.538 482.775 349.397C487.503 343.114 492.231 338.402 495.382 330.549C496.958 325.837 498.534 319.554 498.534 314.842C498.534 308.559 496.958 303.847 495.382 299.135Z" fill="white" fill-opacity="0.1"/>
</svg>
