<svg width="40" height="47" viewBox="0 0 40 47" fill="none" xmlns="http://www.w3.org/2000/svg">
<g clip-path="url(#clip0)">
<path d="M38.4 19.3151C38.4 21.2466 36.48 22.8562 36 24.4658C35.36 26.2364 36 28.6507 34.88 30.0994C33.76 31.548 31.36 31.8699 29.92 32.8357C28.48 33.9624 27.52 36.2158 25.76 36.6987C24 37.1816 21.92 36.0548 20 36.0548C18.08 36.0548 16 37.3425 14.24 36.6987C12.48 36.0548 11.52 33.8014 10.08 32.8357C8.63998 31.709 6.07998 31.548 5.11998 30.0994C3.99998 28.6507 4.63998 26.2364 3.99998 24.4658C3.51998 22.8562 1.59998 21.2466 1.59998 19.3151C1.59998 17.3836 3.51998 15.774 3.99998 14.1644C4.63998 12.3939 3.99998 9.9795 5.11998 8.53087C6.23998 7.08224 8.63998 6.76032 10.08 5.79457C11.52 4.66786 12.48 2.41443 14.24 1.93156C16 1.44868 18.08 2.57539 20 2.57539C21.92 2.57539 24 1.28772 25.76 1.93156C27.52 2.57539 28.48 4.82882 29.92 5.79457C31.36 6.92128 33.92 7.08224 34.88 8.53087C36 9.9795 35.36 12.3939 36 14.1644C36.48 15.935 38.4 17.3836 38.4 19.3151Z" fill="#00ADEE"/>
<path d="M19.9999 31.0651C26.4506 31.0651 31.6799 25.8045 31.6799 19.3151C31.6799 12.8258 26.4506 7.56512 19.9999 7.56512C13.5493 7.56512 8.31995 12.8258 8.31995 19.3151C8.31995 25.8045 13.5493 31.0651 19.9999 31.0651Z" fill="white"/>
<path d="M20 32.6747C12.64 32.6747 6.71997 26.7193 6.71997 19.3152C6.71997 11.911 12.64 5.95557 20 5.95557C27.36 5.95557 33.28 11.911 33.28 19.3152C33.28 26.7193 27.36 32.6747 20 32.6747ZM20 9.3357C14.4 9.3357 9.91997 13.8426 9.91997 19.3152C9.91997 24.7878 14.4 29.4556 20 29.4556C25.6 29.4556 30.08 24.9487 30.08 19.3152C30.08 13.6816 25.6 9.3357 20 9.3357Z" fill="#F4CD3F"/>
<path d="M29.2799 47.0001C28.9599 47.0001 28.6399 47.0001 28.3199 46.8391L20.6399 43.6199C20.3199 43.459 19.8399 43.459 19.5199 43.6199L11.8399 46.8391C11.0399 47.161 10.0799 47.161 9.43995 46.6782C8.79995 46.1953 8.31995 45.3905 8.31995 44.5857V32.8357H11.5199V43.459L18.2399 40.5617C19.3599 40.0788 20.7999 40.0788 21.9199 40.5617L28.6399 43.459V33.6405H31.8399V44.4247C31.8399 45.2295 31.3599 46.0343 30.7199 46.5172C30.2399 46.8391 29.7599 47.0001 29.2799 47.0001Z" fill="#F4CD3F"/>
<path d="M15.2 38.7912C14.72 38.7912 14.24 38.7912 13.76 38.6302C12.32 38.1473 11.36 37.0206 10.4 35.8939C9.92 35.2501 9.44 34.7672 9.12 34.4453C8.64 34.1234 8 33.8015 7.36 33.6405C6.08 33.1576 4.64 32.6747 3.84 31.3871C2.88 30.0994 2.88 28.6508 2.72 27.2021C2.72 26.3973 2.56 25.7535 2.4 25.2706C2.24 24.7878 1.92 24.1439 1.44 23.661C0.8 22.2124 0 20.9247 0 19.3152C0 17.7056 0.8 16.4179 1.6 15.2912C1.92 14.6473 2.4 14.1645 2.56 13.6816C2.72 13.1987 2.72 12.3939 2.88 11.7501C2.88 10.4624 3.04 8.85283 4 7.56516C4.8 6.27748 6.08 5.63365 7.36 5.15077C8 4.82885 8.64 4.6679 9.12 4.34598C9.6 4.02406 10.08 3.54118 10.56 2.89735C11.36 1.77064 12.32 0.643923 13.92 0.161047C15.36 -0.32183 16.8 8.76635e-05 18.08 0.482964C18.88 0.643923 19.52 0.804882 20 0.804882C20.48 0.804882 21.28 0.643923 22.08 0.482964C23.36 0.161047 24.8 -0.32183 26.24 0.161047C27.68 0.643923 28.64 1.77064 29.6 2.89735C30.08 3.54118 30.56 4.02406 30.88 4.34598C31.36 4.6679 32 4.98981 32.64 5.15077C33.92 5.63365 35.36 6.11653 36.16 7.4042C37.12 8.69187 37.12 10.1405 37.28 11.5891C37.28 12.3939 37.44 13.0378 37.6 13.5206C37.76 14.0035 38.08 14.6473 38.56 15.1302C39.36 16.2569 40.16 17.5446 40.16 19.1542C40.16 20.7638 39.36 22.0515 38.56 23.1782C38.24 23.822 37.76 24.3049 37.6 24.7878C37.44 25.2706 37.44 26.0754 37.28 26.7193C37.28 28.0069 37.12 29.6165 36.16 30.9042C35.2 32.1919 33.76 32.6747 32.64 33.1576C32 33.4795 31.36 33.6405 30.88 33.9624C30.4 34.2843 30.08 34.7672 29.6 35.411C28.8 36.5378 27.84 37.6645 26.24 38.1474C24.8 38.6302 23.36 38.3083 22.08 37.8254C21.28 37.6645 20.64 37.5035 20.16 37.5035C19.68 37.5035 18.88 37.6645 18.08 37.8254C17.12 38.4693 16.16 38.7912 15.2 38.7912ZM15.2 3.21927C15.04 3.21927 14.88 3.21927 14.88 3.21927C14.24 3.54118 13.6 4.18502 12.96 4.98981C12.48 5.63365 11.84 6.43844 11.04 6.92132C10.24 7.56516 9.44 7.88707 8.48 8.20899C7.68 8.53091 6.72 8.85283 6.4 9.49666C6.08 9.97954 5.92 10.7843 5.92 11.911C5.92 12.8768 5.76 13.8426 5.44 14.6473C5.12 15.6131 4.64 16.2569 4.16 17.0617C3.68 17.8665 3.2 18.6713 3.2 19.3152C3.2 19.959 3.68 20.7638 4.32 21.5686C4.8 22.3734 5.28 23.1782 5.6 24.1439C5.92 25.1097 5.92 26.0754 6.08 26.8802C6.08 27.846 6.24 28.8117 6.56 29.2946C6.88 29.7775 7.84 30.0994 8.64 30.4213C9.44 30.7432 10.4 31.0652 11.2 31.709C12 32.3528 12.48 32.9967 13.12 33.6405C13.76 34.4453 14.4 35.0891 14.88 35.411C15.52 35.572 16.32 35.411 17.28 35.0891C18.08 34.9282 19.04 34.6063 20.16 34.6063C21.28 34.6063 22.08 34.9282 23.04 35.0891C24 35.411 24.8 35.572 25.44 35.411C26.08 35.2501 26.56 34.4453 27.2 33.6405C27.84 32.9967 28.32 32.1919 29.12 31.709C29.92 31.0652 30.72 30.7432 31.68 30.4213C32.64 30.0994 33.44 29.7775 33.76 29.2946C34.08 28.8117 34.24 27.846 34.24 26.8802C34.24 25.9145 34.4 24.9487 34.72 24.1439C35.04 23.1782 35.52 22.5343 36 21.7295C36.48 20.9247 37.12 20.1199 37.12 19.4761C37.12 18.8323 36.64 18.0275 36 17.2227C35.52 16.4179 35.04 15.6131 34.72 14.8083C34.4 13.8426 34.4 12.8768 34.24 12.072C34.24 11.1063 34.08 10.1405 33.76 9.65762C33.44 9.17475 32.48 8.85283 31.68 8.53091C30.88 8.20899 29.92 7.88707 29.12 7.24324C28.32 6.5994 27.84 5.95557 27.2 5.31173C26.56 4.50694 25.92 3.8631 25.44 3.54118C24.8 3.38022 24 3.54118 23.04 3.8631C22.24 4.02406 21.28 4.34598 20.16 4.34598C19.04 4.34598 18.24 4.02406 17.28 3.8631C16.48 3.38022 15.84 3.21927 15.2 3.21927Z" fill="#F4CD3F"/>
<path d="M19.68 27.0412C18.24 27.0412 16.8 26.3973 16 25.2706C15.52 24.6268 15.52 23.5001 16.16 23.0172C16.8 22.3734 17.92 22.5343 18.4 23.1782C18.72 23.5001 19.2 23.822 19.68 23.822C20.64 23.822 21.28 23.1782 21.28 22.2124C21.28 21.2467 20.64 20.6028 19.68 20.6028H17.28C16.32 20.6028 15.68 19.959 15.68 18.9932V14.1645C15.68 13.1987 16.32 12.5549 17.28 12.5549H22.08C23.04 12.5549 23.68 13.1987 23.68 14.1645C23.68 15.1302 23.04 15.774 22.08 15.774H18.88V17.3836H19.68C22.4 17.3836 24.48 19.4761 24.48 22.2124C24.48 24.9487 22.24 27.0412 19.68 27.0412Z" fill="#0076C0"/>
</g>
<defs>
<clipPath id="clip0">
<rect width="40" height="47" fill="white"/>
</clipPath>
</defs>
</svg>
