<svg width="46" height="46" viewBox="0 0 46 46" fill="none" xmlns="http://www.w3.org/2000/svg">
<path d="M41.0716 8.21423H4.92871V34.4999H41.0716V8.21423Z" fill="white"/>
<path d="M44.3569 3.28568V6.57139C44.3569 7.39282 43.5354 8.21425 42.714 8.21425H3.28544C2.46401 8.21425 1.64258 7.39282 1.64258 6.57139V3.28568C1.64258 2.46425 2.46401 1.64282 3.28544 1.64282H42.714C43.5354 1.64282 44.3569 2.46425 44.3569 3.28568Z" fill="#00ADEE"/>
<path d="M42.7143 0H3.28571C1.47857 0 0 1.47857 0 3.28571V6.57143C0 8.37857 1.47857 9.85714 3.28571 9.85714V34.5C3.28571 35.4857 3.94286 36.1429 4.92857 36.1429H13.3071L8.37857 43.3714C7.88571 44.1929 8.05 45.1786 8.87143 45.6714C9.69286 46.1643 10.6786 46 11.1714 45.1786L17.25 35.9786H21.3571V44.1929C21.3571 45.1786 22.0143 45.8357 23 45.8357C23.9857 45.8357 24.6429 45.1786 24.6429 44.1929V35.9786H28.75L34.8286 45.1786C35.3214 46 36.3071 46.1643 37.1286 45.6714C37.95 45.1786 38.1143 44.1929 37.6214 43.3714L32.6929 36.1429H41.0714C42.0571 36.1429 42.7143 35.4857 42.7143 34.5V9.85714C44.5214 9.85714 46 8.37857 46 6.57143V3.28571C46 1.47857 44.5214 0 42.7143 0ZM39.4286 32.8571H6.57143V9.85714H39.4286V32.8571ZM3.28571 6.57143V3.28571H42.7143V6.57143C23.4929 6.57143 56.6786 6.57143 3.28571 6.57143Z" fill="#0077BF"/>
<path d="M23.0003 29.5714C23.986 29.5714 24.6431 28.9143 24.6431 27.9286V19.7143C24.6431 18.7286 23.986 18.0714 23.0003 18.0714C22.0146 18.0714 21.3574 18.7286 21.3574 19.7143V27.9286C21.3574 28.9143 22.0146 29.5714 23.0003 29.5714Z" fill="#0077BF"/>
<path d="M14.7854 29.5715C15.7711 29.5715 16.4283 28.9143 16.4283 27.9286V23C16.4283 22.0143 15.7711 21.3572 14.7854 21.3572C13.7997 21.3572 13.1426 22.0143 13.1426 23V27.9286C13.1426 28.9143 13.7997 29.5715 14.7854 29.5715Z" fill="#0077BF"/>
<path d="M31.2141 29.5714C32.1999 29.5714 32.857 28.9142 32.857 27.9285V14.7857C32.857 13.8 32.1999 13.1428 31.2141 13.1428C30.2284 13.1428 29.5713 13.8 29.5713 14.7857V27.9285C29.5713 28.9142 30.2284 29.5714 31.2141 29.5714Z" fill="#0077BF"/>
</svg>
