<svg width="47" height="47" viewBox="0 0 47 47" fill="none" xmlns="http://www.w3.org/2000/svg">
<path d="M35.25 23.5C35.25 28.2 32.5643 32.0607 28.7036 34.075C27.1929 34.9143 25.3464 35.25 23.5 35.25C16.9536 35.25 11.75 30.0464 11.75 23.5C11.75 21.4857 12.2536 19.4714 13.2607 17.7929C15.275 14.2679 19.1357 11.75 23.5 11.75C30.0464 11.75 35.25 16.9536 35.25 23.5Z" fill="white"/>
<path d="M5.03585 8.39287C6.88995 8.39287 8.393 6.88983 8.393 5.03573C8.393 3.18163 6.88995 1.67859 5.03585 1.67859C3.18175 1.67859 1.67871 3.18163 1.67871 5.03573C1.67871 6.88983 3.18175 8.39287 5.03585 8.39287Z" fill="#00ADEE"/>
<path d="M5.03585 45.3215C6.88995 45.3215 8.393 43.8184 8.393 41.9643C8.393 40.1102 6.88995 38.6072 5.03585 38.6072C3.18175 38.6072 1.67871 40.1102 1.67871 41.9643C1.67871 43.8184 3.18175 45.3215 5.03585 45.3215Z" fill="#00ADEE"/>
<path d="M41.9646 8.39287C43.8187 8.39287 45.3217 6.88983 45.3217 5.03573C45.3217 3.18163 43.8187 1.67859 41.9646 1.67859C40.1105 1.67859 38.6074 3.18163 38.6074 5.03573C38.6074 6.88983 40.1105 8.39287 41.9646 8.39287Z" fill="#00ADEE"/>
<path d="M41.9646 45.3215C43.8187 45.3215 45.3217 43.8184 45.3217 41.9643C45.3217 40.1102 43.8187 38.6072 41.9646 38.6072C40.1105 38.6072 38.6074 40.1102 38.6074 41.9643C38.6074 43.8184 40.1105 45.3215 41.9646 45.3215Z" fill="#00ADEE"/>
<path d="M31.7244 31.8928C30.8851 32.7321 29.7101 33.5714 28.703 34.0749C27.1923 34.9142 25.3458 35.2499 23.4994 35.2499C20.478 35.2499 17.4566 34.0749 15.2744 31.8928C15.778 29.8785 16.953 28.0321 18.6316 26.8571C18.9673 26.5214 19.4708 26.3535 19.9744 26.0178L21.653 25.1785L20.6458 23.4999C20.3101 22.9964 20.1423 22.4928 20.1423 21.8214C20.1423 19.9749 21.653 18.4642 23.4994 18.4642C25.3458 18.4642 26.8566 19.9749 26.8566 21.8214C26.8566 22.4928 26.6887 22.9964 26.353 23.6678L25.3458 25.3464L27.0244 26.1857C29.5423 27.1928 31.2208 29.3749 31.7244 31.8928Z" fill="#00ADEE"/>
<path d="M41.9643 36.9286C41.125 36.9286 40.4536 37.0964 39.7821 37.4321L34.075 31.725C35.7536 29.375 36.9286 26.5214 36.9286 23.5C36.9286 20.4786 35.9214 17.625 34.075 15.275L39.7821 9.56786C40.4536 9.90357 41.125 10.0714 41.9643 10.0714C44.8179 10.0714 47 7.72143 47 5.03571C47 2.18214 44.8179 0 41.9643 0C39.1107 0 36.9286 2.18214 36.9286 5.03571C36.9286 5.875 37.0964 6.54643 37.4321 7.21786L31.725 12.925C29.375 11.0786 26.5214 10.0714 23.5 10.0714C20.4786 10.0714 17.625 11.0786 15.275 12.925L9.56786 7.21786C9.90357 6.54643 10.0714 5.875 10.0714 5.03571C10.0714 2.18214 7.88929 0 5.03571 0C2.18214 0 0 2.18214 0 5.03571C0 7.72143 2.18214 10.0714 5.03571 10.0714C5.875 10.0714 6.54643 9.90357 7.21786 9.56786L12.925 15.275C11.0786 17.625 10.0714 20.4786 10.0714 23.5C10.0714 26.5214 11.0786 29.375 12.925 31.725L7.21786 37.4321C6.54643 37.0964 5.875 36.9286 5.03571 36.9286C2.18214 36.9286 0 39.1107 0 41.9643C0 44.65 2.18214 47 5.03571 47C7.88929 47 10.0714 44.65 10.0714 41.9643C10.0714 41.125 9.90357 40.4536 9.56786 39.7821C17.9607 31.3893 12.0857 37.2643 15.275 34.075C17.625 35.9214 20.4786 36.9286 23.5 36.9286C26.5214 36.9286 29.375 35.9214 31.725 34.075C34.9143 37.2643 29.0393 31.3893 37.4321 39.7821C37.0964 40.4536 36.9286 41.125 36.9286 41.9643C36.9286 44.65 39.1107 47 41.9643 47C44.8179 47 47 44.65 47 41.9643C47 39.1107 44.8179 36.9286 41.9643 36.9286ZM5.03571 43.6429C4.19643 43.6429 3.35714 42.8036 3.35714 41.9643C3.35714 41.125 4.19643 40.2857 5.03571 40.2857C6.04286 40.2857 6.71429 40.9571 6.71429 41.9643C6.71429 42.8036 5.875 43.6429 5.03571 43.6429ZM41.9643 3.35714C42.8036 3.35714 43.6429 4.19643 43.6429 5.03571C43.6429 5.875 42.8036 6.71429 41.9643 6.71429C41.125 6.71429 40.2857 6.04286 40.2857 5.03571C40.2857 4.19643 41.125 3.35714 41.9643 3.35714ZM33.5714 23.5C33.5714 25.3464 33.0679 27.025 32.2286 28.5357C31.2214 26.6893 29.7107 25.3464 27.8643 24.5071C28.3679 23.6679 28.7036 22.8286 28.7036 21.8214C28.7036 18.9679 26.5214 16.7857 23.6679 16.7857C20.8143 16.7857 18.6321 18.9679 18.6321 21.8214C18.6321 22.8286 18.9679 23.6679 19.4714 24.5071C17.625 25.3464 16.1143 26.8571 15.1071 28.5357C13.9321 27.025 13.4286 25.3464 13.4286 23.5C13.4286 17.9607 17.9607 13.4286 23.5 13.4286C29.0393 13.4286 33.5714 17.9607 33.5714 23.5ZM21.8214 21.8214C21.8214 20.9821 22.6607 20.1429 23.5 20.1429C24.3393 20.1429 25.1786 20.9821 25.1786 21.8214C25.1786 22.6607 24.3393 23.5 23.5 23.5C22.6607 23.5 21.8214 22.6607 21.8214 21.8214ZM3.35714 5.03571C3.35714 4.19643 4.19643 3.35714 5.03571 3.35714C5.875 3.35714 6.71429 4.19643 6.71429 5.03571C6.71429 5.875 6.04286 6.71429 5.03571 6.71429C4.19643 6.71429 3.35714 5.875 3.35714 5.03571ZM23.5 33.5714C21.15 33.5714 18.9679 32.7321 17.1214 31.3893C18.1286 28.7036 20.4786 26.8571 23.5 26.8571C26.5214 26.8571 28.8714 28.7036 29.8786 31.3893C28.0321 32.7321 25.85 33.5714 23.5 33.5714ZM41.9643 43.6429C41.125 43.6429 40.2857 42.8036 40.2857 41.9643C40.2857 41.125 40.9571 40.2857 41.9643 40.2857C42.8036 40.2857 43.6429 41.125 43.6429 41.9643C43.6429 42.8036 42.8036 43.6429 41.9643 43.6429Z" fill="#0077BF"/>
</svg>
