<svg width="49" height="30" viewBox="0 0 49 30" fill="none" xmlns="http://www.w3.org/2000/svg">
<g clip-path="url(#clip0)">
<path d="M30.154 9.375H15.0771L12.0617 13.6875L1.88477 28.125V1.875H24.5002L30.154 9.375Z" fill="#00ADEE"/>
<path d="M47.1155 9.375L37.6925 22.875L33.9232 28.125H1.88477L12.0617 13.6875L15.0771 9.375H47.1155Z" fill="white"/>
<path d="M48.8115 8.4375C48.4346 7.875 47.8692 7.5 47.1154 7.5H31.0962L26.0077 0.75C25.6308 0.1875 25.0654 0 24.5 0H1.88462C0.753846 0 0 0.75 0 1.875V28.125C0 29.0625 0.942308 30 1.88462 30H33.9231C34.4885 30 35.0538 29.625 35.4308 29.25L48.6231 10.5C49 9.9375 49.1885 9.1875 48.8115 8.4375ZM23.5577 3.75L26.3846 7.5H15.0769C14.5115 7.5 13.9462 7.875 13.5692 8.25L3.76923 22.125V3.75H23.5577ZM32.9808 26.25H5.46538L16.0192 11.25C25.8192 11.25 33.3577 11.25 43.5346 11.25L32.9808 26.25Z" fill="#0077BF"/>
</g>
<defs>
<clipPath id="clip0">
<rect width="49" height="30" fill="white"/>
</clipPath>
</defs>
</svg>
