<svg width="46" height="46" viewBox="0 0 46 46" fill="none" xmlns="http://www.w3.org/2000/svg">
<path d="M37.7854 1.64282H1.64258V44.3571H37.7854V1.64282Z" fill="white"/>
<path d="M43.3717 12.4857C43.3717 12.4857 42.8789 12.9786 41.0717 14.7857C39.1003 16.7571 35.1574 20.7 27.9289 27.9286C27.6003 28.2571 27.1074 28.75 26.7788 29.0786L26.286 29.5714H21.3574V24.6428L21.8503 24.15C22.1789 23.8214 22.6717 23.3286 23.0003 23L36.1431 9.85713C38.4431 7.55713 38.4431 7.55713 38.4431 7.55713C39.1003 6.89998 39.9217 6.57141 40.9074 6.57141C41.8931 6.57141 42.7146 6.89998 43.3717 7.55713C44.686 8.87141 44.686 11.1714 43.3717 12.4857Z" fill="#00ADEE"/>
<path d="M27.9289 27.9286C27.6003 28.2571 27.1074 28.75 26.7789 29.0786L26.286 29.5714H21.3574V24.6429L21.8503 24.15C22.1789 23.8214 22.6717 23.3286 23.0003 23L27.9289 27.9286Z" fill="white"/>
<path d="M43.3712 12.4857C43.3712 12.4857 42.8783 12.9786 41.0712 14.7857L36.1426 9.85713C38.4426 7.55713 38.4426 7.55713 38.4426 7.55713C39.0997 6.89998 39.9211 6.57141 40.9069 6.57141C41.8926 6.57141 42.714 6.89998 43.3712 7.55713C44.6854 8.87141 44.6854 11.1714 43.3712 12.4857Z" fill="white"/>
<path d="M8.21415 31.2143H16.4284C17.4141 31.2143 18.0713 30.5572 18.0713 29.5714C18.0713 28.5857 17.4141 27.9286 16.4284 27.9286H8.21415C7.22843 27.9286 6.57129 28.5857 6.57129 29.5714C6.57129 30.5572 7.22843 31.2143 8.21415 31.2143Z" fill="#0077BF"/>
<path d="M8.21415 24.6429H16.4284C17.4141 24.6429 18.0713 23.9857 18.0713 23C18.0713 22.0143 17.4141 21.3572 16.4284 21.3572H8.21415C7.22843 21.3572 6.57129 22.0143 6.57129 23C6.57129 23.9857 7.22843 24.6429 8.21415 24.6429Z" fill="#0077BF"/>
<path d="M8.21415 18.0715H21.357C22.3427 18.0715 22.9999 17.4143 22.9999 16.4286C22.9999 15.4429 22.3427 14.7858 21.357 14.7858H8.21415C7.22843 14.7858 6.57129 15.4429 6.57129 16.4286C6.57129 17.4143 7.22843 18.0715 8.21415 18.0715Z" fill="#0077BF"/>
<path d="M8.21415 11.4999H27.9284C28.9141 11.4999 29.5713 10.8428 29.5713 9.85709C29.5713 8.87138 28.9141 8.21423 27.9284 8.21423H8.21415C7.22843 8.21423 6.57129 8.87138 6.57129 9.85709C6.57129 10.8428 7.22843 11.4999 8.21415 11.4999Z" fill="#0077BF"/>
<path d="M6.57129 36.1429C6.57129 37.1286 7.22843 37.7857 8.21415 37.7857H29.5713C30.557 37.7857 31.2141 37.1286 31.2141 36.1429C31.2141 35.1571 30.557 34.5 29.5713 34.5H8.21415C7.22843 34.5 6.57129 35.1571 6.57129 36.1429Z" fill="#0077BF"/>
<path d="M44.5214 6.40714C43.2071 5.09286 41.2357 4.6 39.4286 5.09286V1.64286C39.4286 0.657143 38.7714 0 37.7857 0H1.64286C0.657143 0 0 0.657143 0 1.64286V44.3571C0 45.3429 0.657143 46 1.64286 46H37.7857C38.7714 46 39.4286 45.3429 39.4286 44.3571V18.7286L44.5214 13.6357C46.4929 11.6643 46.4929 8.37857 44.5214 6.40714ZM42.2214 8.70714C42.8786 9.36429 42.8786 10.5143 42.2214 11.3357L41.0714 12.4857L38.4429 9.85714C38.7714 9.52857 38.6071 9.69286 39.5929 8.70714C40.25 8.05 41.4 8.05 42.2214 8.70714ZM36.6357 16.9214L27.9286 25.6286L25.3 23L36.1429 12.1571L38.7714 14.7857L36.6357 16.9214ZM23 25.3L25.6286 27.9286H23V25.3ZM36.1429 42.7143H3.28571V3.28571H36.1429V7.55714L20.2071 23.4929C19.8786 23.8214 19.7143 24.15 19.7143 24.6429V29.5714C19.7143 30.5571 20.3714 31.2143 21.3571 31.2143H26.2857C26.7786 31.2143 27.1071 31.05 27.4357 30.7214L36.1429 22.0143V42.7143Z" fill="#0077BF"/>
</svg>
