<svg width="45" height="45" viewBox="0 0 45 45" fill="none" xmlns="http://www.w3.org/2000/svg">
<path d="M43.3931 17.8393V40.1786C43.3931 41.9465 41.9467 43.3929 40.1788 43.3929H4.82171C3.05385 43.3929 1.60742 41.9465 1.60742 40.1786V17.8393C1.60742 17.1965 1.76814 16.5536 2.25028 15.9108C2.41099 15.5893 2.73242 15.4286 3.21456 15.1072L8.03599 12.5358V22.8215L22.5003 30.6965L26.5181 28.4465L36.9646 22.8215V12.5358L41.786 15.1072C42.7503 15.7501 43.3931 16.7143 43.3931 17.8393Z" fill="white"/>
<path d="M3.21456 15.1072L8.03599 12.5358V22.8215L3.21456 20.2501L1.60742 19.2858V17.8393C1.60742 17.1965 1.76814 16.5536 2.25028 15.9108C2.41099 15.7501 2.73242 15.4286 3.21456 15.1072Z" fill="#00ADEE"/>
<path d="M43.3924 17.8393V19.2858L36.9639 22.6608V12.5358L41.7853 15.1072C42.7496 15.7501 43.3924 16.7143 43.3924 17.8393Z" fill="#00ADEE"/>
<path d="M36.9647 1.60718V22.6607L26.679 28.2857L22.5004 30.5357L8.03613 22.6607V1.60718H36.9647Z" fill="white"/>
<path d="M43.3931 40.1785C43.3931 41.9464 41.9467 43.3928 40.1788 43.3928H4.82171C3.05385 43.3928 1.60742 41.9464 1.60742 40.1785L11.0896 33.5892L18.4824 28.4464L22.5003 30.5356L26.5181 28.2856L43.3931 40.1785Z" fill="#00ADEE"/>
<path d="M3.21456 20.0893L1.60742 19.2858V17.8393C1.60742 17.1965 1.76814 16.5536 2.25028 15.9108C2.41099 17.3572 2.73242 18.6429 3.21456 20.0893Z" fill="#0077BF"/>
<path d="M42.5893 13.6607L38.5714 11.5714V1.60714C38.5714 0.642857 37.9286 0 36.9643 0H8.03571C7.07143 0 6.42857 0.642857 6.42857 1.60714V11.5714L2.25 13.8214C0.803571 14.625 0 16.2321 0 17.8393V40.1786C0 42.9107 2.08929 45 4.82143 45H40.1786C42.9107 45 45 42.9107 45 40.1786V17.8393C45 16.2321 44.1964 14.625 42.5893 13.6607ZM29.5714 28.6071L41.7857 22.0179V37.125L29.5714 28.6071ZM40.9821 16.5536C41.4643 16.875 41.7857 17.3571 41.7857 18V18.4821L38.5714 20.25V15.4286L40.9821 16.5536ZM9.64286 3.21429H35.3571C35.3571 9.96428 35.3571 15.1071 35.3571 21.8571L22.5 28.7679L9.64286 21.8571C9.64286 15.1071 9.64286 9.96428 9.64286 3.21429ZM3.21429 22.0179L15.4286 28.6071L3.21429 37.125V22.0179ZM3.85714 16.5536L6.42857 15.2679V20.0893L3.21429 18.3214V17.8393C3.21429 17.3571 3.53571 16.7143 3.85714 16.5536ZM40.1786 41.7857H4.82143C4.17857 41.7857 3.69643 41.4643 3.375 40.8214L18.6429 30.2143L21.8571 31.9821C22.3393 32.3036 22.9821 32.3036 23.3036 31.9821L26.5179 30.2143L41.7857 40.8214C41.3036 41.4643 40.8214 41.7857 40.1786 41.7857Z" fill="#0077BF"/>
<path d="M16.071 9.64287H28.9282C29.8924 9.64287 30.5353 9.00002 30.5353 8.03573C30.5353 7.07145 29.8924 6.42859 28.9282 6.42859H16.071C15.1067 6.42859 14.4639 7.07145 14.4639 8.03573C14.4639 9.00002 15.1067 9.64287 16.071 9.64287Z" fill="#0077BF"/>
<path d="M16.071 16.0715H28.9282C29.8924 16.0715 30.5353 15.4286 30.5353 14.4643C30.5353 13.5 29.8924 12.8572 28.9282 12.8572H16.071C15.1067 12.8572 14.4639 13.5 14.4639 14.4643C14.4639 15.4286 15.1067 16.0715 16.071 16.0715Z" fill="#0077BF"/>
<path d="M16.071 22.5001H28.9282C29.8924 22.5001 30.5353 21.8572 30.5353 20.8929C30.5353 19.9286 29.8924 19.2858 28.9282 19.2858H16.071C15.1067 19.2858 14.4639 19.9286 14.4639 20.8929C14.4639 21.8572 15.1067 22.5001 16.071 22.5001Z" fill="#0077BF"/>
</svg>
