<svg width="46" height="50" viewBox="0 0 46 50" fill="none" xmlns="http://www.w3.org/2000/svg">
<path d="M8.84645 41.0714H1.76953V48.2143H8.84645V41.0714Z" fill="#00ADEE"/>
<path d="M26.5388 41.0714H19.4619V48.2143H26.5388V41.0714Z" fill="#00ADEE"/>
<path d="M44.2312 41.0714H37.1543V48.2143H44.2312V41.0714Z" fill="#00ADEE"/>
<path d="M14.1543 19.6429L14.3312 19.2858C14.862 16.7858 16.6312 14.8215 18.7543 13.5715L20.7005 12.5001L19.1081 10.7143C18.2235 9.82148 17.6928 8.39291 17.6928 7.14291C17.6928 4.10719 19.9928 1.78577 23.0005 1.78577C26.0081 1.78577 28.3081 4.10719 28.3081 7.14291C28.3081 8.39291 27.7774 9.82148 26.8928 10.7143L25.3005 12.5001L27.2466 13.5715C29.3697 14.8215 31.1389 16.7858 31.6697 19.2858L31.8466 19.6429H14.1543Z" fill="white"/>
<path d="M8.84615 39.2858H1.76923C0.707692 39.2858 0 40.0001 0 41.0715V48.2143C0 49.2858 0.707692 50.0001 1.76923 50.0001H8.84615C9.90769 50.0001 10.6154 49.2858 10.6154 48.2143V41.0715C10.6154 40.0001 9.90769 39.2858 8.84615 39.2858ZM7.07692 46.4286H3.53846V42.8572H7.07692V46.4286Z" fill="#0077BF"/>
<path d="M26.5385 39.2858H19.4616C18.4001 39.2858 17.6924 40.0001 17.6924 41.0715V48.2143C17.6924 49.2858 18.4001 50.0001 19.4616 50.0001H26.5385C27.6001 50.0001 28.3078 49.2858 28.3078 48.2143V41.0715C28.3078 40.0001 27.6001 39.2858 26.5385 39.2858ZM24.7693 46.4286H21.2308V42.8572H24.7693V46.4286Z" fill="#0077BF"/>
<path d="M44.2309 39.2858H37.154C36.0925 39.2858 35.3848 40.0001 35.3848 41.0715V48.2143C35.3848 49.2858 36.0925 50.0001 37.154 50.0001H44.2309C45.2925 50.0001 46.0001 49.2858 46.0001 48.2143V41.0715C46.0001 40.0001 45.2925 39.2858 44.2309 39.2858ZM42.4617 46.4286H38.9232V42.8572H42.4617V46.4286Z" fill="#0077BF"/>
<path d="M14.1541 21.4286H31.8464C32.3771 21.4286 32.9079 21.25 33.2618 20.7143C33.6156 20.1786 33.7925 19.6429 33.6156 19.1071L33.4387 18.75C32.731 15.7143 30.7848 13.2143 28.131 11.9643C29.3695 10.7143 30.0771 8.92857 30.0771 7.14286C30.0771 3.21429 26.8925 0 23.0002 0C19.1079 0 15.9233 3.21429 15.9233 7.14286C15.9233 8.92857 16.631 10.7143 17.8695 11.9643C15.2156 13.3929 13.2695 15.7143 12.5618 18.75L12.3848 19.2857C12.2079 19.8214 12.3848 20.3571 12.7387 20.8929C13.0925 21.4286 13.6233 21.4286 14.1541 21.4286ZM23.0002 3.57143C24.9464 3.57143 26.5387 5.17857 26.5387 7.14286C26.5387 9.10714 24.9464 10.7143 23.0002 10.7143C21.0541 10.7143 19.4618 9.10714 19.4618 7.14286C19.4618 5.17857 21.0541 3.57143 23.0002 3.57143ZM22.8233 14.2857H23.1771C25.831 14.2857 28.131 15.7143 29.3695 17.8571H16.631C17.8695 15.7143 20.1695 14.2857 22.8233 14.2857Z" fill="#0077BF"/>
<path d="M5.30732 37.4999C6.36886 37.4999 7.07655 36.7857 7.07655 35.7142V32.1428H21.2304V35.7142C21.2304 36.7857 21.9381 37.4999 22.9996 37.4999C24.0612 37.4999 24.7689 36.7857 24.7689 35.7142V32.1428H38.9227V35.7142C38.9227 36.7857 39.6304 37.4999 40.6919 37.4999C41.7535 37.4999 42.4612 36.7857 42.4612 35.7142V30.3571C42.4612 29.2857 41.7535 28.5714 40.6919 28.5714H24.7689V24.9999C24.7689 23.9285 24.0612 23.2142 22.9996 23.2142C21.9381 23.2142 21.2304 23.9285 21.2304 24.9999V28.5714H5.30732C4.24578 28.5714 3.53809 29.2857 3.53809 30.3571V35.7142C3.53809 36.7857 4.24578 37.4999 5.30732 37.4999Z" fill="#0077BF"/>
</svg>
