<svg width="50" height="50" viewBox="0 0 50 50" fill="none" xmlns="http://www.w3.org/2000/svg">
<path d="M48.2147 23.3929V26.6072C48.2147 27.6786 47.3218 28.7501 46.2504 28.9286L41.6076 29.6429C40.8933 29.8215 40.179 30.1786 39.8218 31.0715C39.6433 31.4286 39.6433 31.6072 39.6433 31.9643C39.6433 32.5001 39.6433 33.0358 40.0004 33.3929L42.679 37.3215C43.3933 38.2143 43.2147 39.4643 42.5004 40.1786L40.179 42.5001C39.8218 43.0358 39.1076 43.2143 38.5718 43.2143C38.0361 43.2143 37.679 43.0358 37.3218 42.8572L33.3933 40.1786C33.0361 39.8215 32.5004 39.8215 32.1433 39.8215C31.7861 39.8215 31.429 40.0001 31.0718 40.0001C30.3576 40.3572 29.6433 40.8929 29.6433 41.7858L28.929 46.4286C28.7504 47.5001 27.8576 48.3929 26.6076 48.3929H23.3933C22.3218 48.3929 21.2504 47.5001 21.0718 46.4286L20.3576 41.7858C20.179 41.0715 19.6433 40.3572 18.929 40.0001C18.5718 39.8215 18.2147 39.8215 17.8576 39.8215C17.3218 39.8215 16.9647 40.0001 16.6076 40.1786L12.679 42.8572C12.3218 43.2143 11.7861 43.2143 11.429 43.2143C10.8933 43.2143 10.179 43.0358 9.82185 42.5001L7.50042 40.1786C6.78613 39.4643 6.60756 38.2143 7.32185 37.3215L10.0004 33.3929C10.5361 32.6786 10.5361 31.9643 10.179 31.0715C9.82185 30.1786 9.10756 29.6429 8.39328 29.6429L3.75042 28.9286C2.67899 28.7501 1.78613 27.6786 1.78613 26.6072V23.3929C1.78613 22.3215 2.67899 21.4286 3.75042 21.0715L8.39328 20.3572C9.10756 20.1786 9.82185 19.6429 10.179 18.9286C10.5361 18.2143 10.5361 17.3215 10.0004 16.6072L7.14328 12.6786C6.60756 11.7858 6.60756 10.5358 7.50042 9.82148L9.82185 7.50005L10.0004 7.32148C10.3576 6.96434 10.8933 6.78577 11.429 6.78577C11.9647 6.78577 12.3218 6.96434 12.679 7.14291L16.6076 10.0001C16.9647 10.1786 17.3218 10.3572 17.8576 10.3572C18.2147 10.3572 18.5718 10.1786 18.929 10.1786C19.8218 9.82148 20.3576 9.28577 20.3576 8.39291L21.0718 3.75005C21.2504 2.67862 22.3218 1.78577 23.3933 1.78577H26.6076C27.679 1.78577 28.7504 2.67862 28.929 3.75005L29.6433 8.39291C29.8218 9.1072 30.3576 9.82148 31.0718 10.1786C31.2504 10.3572 31.6076 10.3572 32.1433 10.3572C32.679 10.3572 33.0361 10.1786 33.3933 10.0001L37.3218 7.14291C37.679 6.78577 38.2147 6.78577 38.5718 6.78577C39.1076 6.78577 39.8218 6.96434 40.179 7.50005L42.5004 9.82148C43.2147 10.5358 43.3933 11.7858 42.679 12.6786L40.0004 16.6072C39.4647 17.3215 39.4647 18.2143 39.8218 18.9286C40.179 19.6429 40.7147 20.1786 41.6076 20.3572L46.2504 21.0715C47.3218 21.2501 48.2147 22.3215 48.2147 23.3929Z" fill="white"/>
<path d="M32.1431 25C32.1431 26.4286 31.6074 27.8572 30.8931 28.9286C29.6431 30.8929 27.5003 32.1429 25.0003 32.1429C21.0717 32.1429 17.8574 28.9286 17.8574 25C17.8574 23.3929 18.3931 21.9643 19.286 20.7143C20.536 18.9286 22.6789 17.8572 25.0003 17.8572C28.9288 17.8572 32.1431 21.0715 32.1431 25Z" fill="#00ADEE"/>
<path d="M24.9999 16.0714C19.9999 16.0714 16.0713 20 16.0713 25C16.0713 30 19.9999 33.9286 24.9999 33.9286C29.9999 33.9286 33.9284 30 33.9284 25C33.9284 20 29.9999 16.0714 24.9999 16.0714ZM24.9999 30.3571C21.9641 30.3571 19.6427 28.0357 19.6427 25C19.6427 21.9643 21.9641 19.6428 24.9999 19.6428C28.0356 19.6428 30.357 21.9643 30.357 25C30.357 28.0357 28.0356 30.3571 24.9999 30.3571Z" fill="#0077BF"/>
<path d="M46.6071 19.2857L41.9643 18.5714C41.7857 18.5714 41.6071 18.2143 41.6071 18.2143C41.6071 18.2143 41.4286 17.8571 41.6071 17.6786L44.4643 13.75C45.5357 12.1429 45.3571 10 44.1071 8.57143L41.7857 6.25C40.3571 4.82143 38.2143 4.64286 36.6071 5.89286L32.6786 8.75C32.5 8.92857 32.1429 8.75 32.1429 8.75C32.1429 8.75 31.7857 8.57143 31.7857 8.39286L31.0714 3.75C30.3571 1.42857 28.5714 0 26.6071 0H23.3929C21.4286 0 19.6429 1.42857 19.2857 3.39286L18.5714 8.03571C18.5714 8.21429 18.2143 8.39286 18.2143 8.39286C18.2143 8.39286 17.8571 8.57143 17.6786 8.39286L13.75 5.71429C12.1429 4.64286 9.82143 4.82143 8.57143 6.25L6.25 8.57143C4.82143 10 4.64286 12.1429 5.89286 13.75L8.57143 17.6786C8.75 17.8571 8.57143 18.2143 8.57143 18.2143C8.57143 18.2143 8.39286 18.5714 8.21429 18.5714L3.57143 19.2857C1.42857 19.6429 0 21.4286 0 23.3929V26.6071C0 28.5714 1.42857 30.3571 3.39286 30.7143L8.03571 31.4286C8.21429 31.4286 8.39286 31.6071 8.39286 31.7857C8.39286 31.7857 8.57143 32.1429 8.39286 32.3214L5.53571 36.25C4.46429 37.8571 4.64286 40 5.89286 41.4286L8.21429 43.75C9.64286 45.1786 11.7857 45.3571 13.3929 44.1071L17.3214 41.25C17.5 41.0714 17.8571 41.25 17.8571 41.25C17.8571 41.25 18.2143 41.4286 18.2143 41.6071L18.9286 46.25C19.6429 48.5714 21.4286 50 23.3929 50H26.6071C28.5714 50 30.3571 48.5714 30.5357 46.6071L31.25 41.9643C31.25 41.7857 31.6071 41.6071 31.6071 41.6071C31.6071 41.6071 31.9643 41.4286 32.1429 41.6071L36.0714 44.2857C37.6786 45.3571 39.8214 45.1786 41.25 43.9286L43.5714 41.6071C45 40.1786 45.1786 38.0357 43.9286 36.4286L41.25 32.5C41.0714 32.3214 41.25 31.9643 41.25 31.9643C41.25 31.7857 41.4286 31.6071 41.6071 31.6071L46.25 30.8929C48.5714 30.3571 50 28.5714 50 26.6071V23.3929C50 21.4286 48.5714 19.6429 46.6071 19.2857ZM46.4286 26.6071C46.4286 26.7857 46.25 26.9643 46.0714 27.1429L41.4286 27.8571C40 28.0357 38.9286 29.1071 38.3929 30.3571C38.3929 30.3571 38.3929 30.3571 38.3929 30.5357C37.8571 31.9643 38.0357 33.3929 38.75 34.4643L41.6071 38.3929C41.7857 38.5714 41.7857 38.9286 41.6071 39.1071L39.2857 41.4286C39.1071 41.6071 38.9286 41.6071 38.5714 41.4286L34.6429 38.5714C33.5714 37.6786 31.9643 37.6786 30.5357 38.2143C29.1071 38.75 28.2143 40 28.0357 41.25L27.3214 45.8929C27.3214 46.0714 27.1429 46.25 26.7857 46.25H23.5714C23.3929 46.25 23.2143 46.0714 23.0357 45.8929L22.3214 41.25C22.1429 39.8214 21.0714 38.75 19.8214 38.0357C19.2857 37.8571 18.75 37.6786 18.2143 37.6786C17.3214 37.6786 16.6071 37.8571 15.8929 38.3929L11.9643 41.25C11.7857 41.4286 11.4286 41.4286 11.25 41.25L8.92857 38.9286C8.75 38.75 8.75 38.5714 8.92857 38.2143L11.7857 34.2857C12.6786 33.2143 12.6786 31.6071 12.1429 30.3571C11.6071 28.9286 10.3571 28.0357 9.10714 27.8571L4.46429 27.1429C4.28571 27.1429 4.10714 26.9643 4.10714 26.6071V23.3929C4.10714 23.2143 4.28571 23.0357 4.46429 22.8571L9.10714 22.1429C10.5357 21.9643 11.6071 20.8929 12.3214 19.6429C12.8571 18.2143 12.6786 16.7857 11.9643 15.7143L8.57143 11.6071C8.39286 11.4286 8.39286 11.0714 8.57143 10.8929L10.8929 8.57143C11.0714 8.39286 11.25 8.39286 11.6071 8.57143L15.5357 11.4286C16.6071 12.3214 18.2143 12.3214 19.6429 11.7857C21.0714 11.25 21.9643 10 22.1429 8.75L22.8571 4.10714C22.8571 3.92857 23.0357 3.75 23.3929 3.75H26.6071C26.7857 3.75 26.9643 3.92857 27.1429 4.10714L27.8571 8.75C28.0357 10.1786 29.1071 11.25 30.3571 11.9643C31.7857 12.5 33.2143 12.3214 34.4643 11.6071L38.3929 8.75C38.5714 8.57143 38.9286 8.57143 39.1071 8.75L41.4286 11.0714C41.6071 11.25 41.6071 11.4286 41.4286 11.7857L38.5714 15.7143C37.6786 16.7857 37.6786 18.3929 38.2143 19.8214C38.75 21.25 40 22.1429 41.25 22.3214L45.8929 23.0357C46.0714 23.0357 46.25 23.2143 46.25 23.5714V26.6071H46.4286Z" fill="#0077BF"/>
</svg>
