<svg width="49" height="45" viewBox="0 0 49 45" fill="none" xmlns="http://www.w3.org/2000/svg">
<path d="M46.9792 15.5771C46.9792 16.6156 46.6317 17.654 46.1105 18.3463C45.9367 18.6925 45.763 18.8656 45.4155 19.0386C44.5468 19.904 43.3305 20.4233 41.9406 20.4233H41.5931L15.7051 19.0386V12.1156L41.7668 10.731H42.1143C43.3305 10.731 44.5468 11.2502 45.5892 12.1156C46.4579 12.981 46.9792 14.1925 46.9792 15.5771Z" fill="#24B6F9"/>
<path d="M15.705 6.9231H5.28027V24.2308H15.705V6.9231Z" fill="white"/>
<path d="M1.80566 43.2693L3.19562 37.7308C3.36937 37.0385 4.06435 36.3462 4.93307 36.3462H16.0528C16.9215 36.3462 17.6165 36.8654 17.7902 37.7308L19.1802 43.2693H1.80566Z" fill="#F4CD3F"/>
<path d="M4.41184 29.4228C3.02188 29.4228 1.80566 28.2112 1.80566 26.8266C1.80566 25.442 3.02188 24.2305 4.41184 24.2305H16.574C17.9639 24.2305 19.1802 25.442 19.1802 26.8266C19.1802 28.2112 17.9639 29.4228 16.574 29.4228H4.41184Z" fill="#24B6F9"/>
<path d="M19.1802 4.32662C19.1802 5.71123 17.9639 6.92277 16.574 6.92277H4.41184C3.02188 6.92277 1.80566 5.71123 1.80566 4.32662C1.80566 2.94201 3.02188 1.73047 4.41184 1.73047H16.574C17.9639 1.73047 19.1802 2.94201 19.1802 4.32662Z" fill="#24B6F9"/>
<path d="M19.5276 37.2114C19.1801 35.6537 17.7902 34.6152 16.2264 34.6152H4.93302C3.36932 34.6152 1.97936 35.6537 1.63187 37.2114L0.068161 42.9229C-0.105584 43.4422 0.068161 43.9614 0.415651 44.4806C0.763141 44.9998 1.28438 44.9998 1.80561 44.9998H19.1801C19.7013 44.9998 20.2226 44.8268 20.5701 44.3075C20.9176 43.7883 21.0913 43.2691 20.9176 42.7498L19.5276 37.2114ZM4.0643 41.5383L4.93302 38.0768H16.0527L16.9214 41.5383H4.0643Z" fill="#0087D4"/>
<path d="M46.631 10.7308C45.2411 9.51922 43.5036 8.82691 41.5924 8.99999L17.4419 10.2115V8.48076C19.3531 8.13461 20.9168 6.40384 20.9168 4.32692C20.9168 1.90384 19.0056 0 16.5732 0H4.41101C1.97858 0 0.0673828 1.90384 0.0673828 4.32692C0.0673828 6.40384 1.63109 8.13461 3.54228 8.48076V22.5C1.63109 22.8461 0.0673828 24.5769 0.0673828 26.6538C0.0673828 29.25 1.97858 31.1538 4.41101 31.1538H16.5732C19.0056 31.1538 20.9168 29.25 20.9168 26.8269C20.9168 24.75 19.3531 23.0192 17.4419 22.6731V20.9423L41.5924 22.3269C41.7662 22.3269 41.7662 22.3269 41.9399 22.3269C43.6774 22.3269 45.2411 21.6346 46.4573 20.5961C48.021 19.2115 48.716 17.4808 48.716 15.5769C48.716 13.6731 48.021 11.9423 46.631 10.7308ZM7.01718 8.65384H13.967C13.967 15.2308 13.967 15.9231 13.967 22.5H7.01718V8.65384ZM4.41101 3.46154H16.5732C17.0944 3.46154 17.4419 3.80769 17.4419 4.32692C17.4419 4.84615 17.0944 5.1923 16.5732 5.1923C14.1407 5.1923 7.36467 5.1923 4.41101 5.1923C3.88977 5.1923 3.54228 4.84615 3.54228 4.32692C3.54228 3.80769 3.88977 3.46154 4.41101 3.46154ZM16.5732 27.6923H4.41101C3.88977 27.6923 3.54228 27.3461 3.54228 26.8269C3.54228 26.3077 3.88977 25.9615 4.41101 25.9615C7.36467 25.9615 14.1407 25.9615 16.5732 25.9615C17.0944 25.9615 17.4419 26.3077 17.4419 26.8269C17.4419 27.3461 17.0944 27.6923 16.5732 27.6923ZM44.1986 17.8269C43.5036 18.5192 42.6349 18.6923 41.7662 18.6923L17.4419 17.4808V13.6731L41.9399 12.2885C42.8087 12.2885 43.6774 12.4615 44.3724 13.1538C44.8936 13.8461 45.2411 14.7115 45.2411 15.5769C45.2411 16.4423 44.8936 17.3077 44.1986 17.8269Z" fill="#0087D4"/>
</svg>
