<svg width="50" height="50" viewBox="0 0 50 50" fill="none" xmlns="http://www.w3.org/2000/svg">
<g clip-path="url(#clip0)">
<path d="M41.0718 28.5716C41.0718 39.4644 32.3218 48.2144 21.429 48.2144C13.3933 48.2144 6.60756 43.393 3.39328 36.6073C2.32185 34.1073 1.78613 31.4287 1.78613 28.5716C1.78613 17.6787 10.5361 8.92871 21.429 8.92871C25.8933 8.92871 30.3576 10.5359 33.929 13.393V16.0716H36.6076C37.8576 17.5001 38.929 19.2859 39.6433 21.0716C40.5361 23.393 41.0718 26.0716 41.0718 28.5716Z" fill="#24B6F9"/>
<path d="M33.9287 28.5715C33.9287 35.5358 28.393 41.0715 21.4287 41.0715C17.3216 41.0715 13.7501 39.1073 11.6073 36.2501C9.82157 34.1073 8.92871 31.4287 8.92871 28.5715C8.92871 21.6072 14.4644 16.0715 21.4287 16.0715C27.6787 16.0715 33.0359 20.7144 33.7501 26.7858C33.9287 27.3215 33.9287 28.0358 33.9287 28.5715Z" fill="white"/>
<path d="M21.4284 33.9286C24.3871 33.9286 26.7856 31.5302 26.7856 28.5715C26.7856 25.6128 24.3871 23.2144 21.4284 23.2144C18.4698 23.2144 16.0713 25.6128 16.0713 28.5715C16.0713 31.5302 18.4698 33.9286 21.4284 33.9286Z" fill="#F4CD3F"/>
<path d="M33.9287 16.0714V8.9285L41.0716 1.78564V8.9285H48.2144L41.0716 16.0714H34.643H33.9287Z" fill="#0087D4"/>
<path d="M42.3214 17.323L49.4643 10.1802C50 9.64448 50.1786 8.93019 49.8214 8.21591C49.6429 7.50162 48.9286 7.14448 48.2143 7.14448H42.8571V1.78733C42.8571 1.07305 42.5 0.358763 41.7857 0.180192C41.0714 -0.176951 40.3571 0.0016202 39.8214 0.537335L32.6786 7.68019C32.3214 8.03734 32.1429 8.39448 32.1429 8.93019V15.3588L20.1786 27.323C19.4643 28.0373 19.4643 29.1088 20.1786 29.823C20.5357 30.1802 21.0714 30.3588 21.4286 30.3588C21.7857 30.3588 22.3214 30.1802 22.6786 29.823L24.8214 27.6802C24.8214 28.0373 25 28.2159 25 28.573C25 30.5373 23.3929 32.1445 21.4286 32.1445C19.4643 32.1445 17.8571 30.5373 17.8571 28.573C17.8571 27.6802 18.2143 26.7873 18.75 26.0731C18.75 26.0731 18.75 26.0731 18.75 25.8945L23.0357 21.6088C22.5 21.4302 21.7857 21.4302 21.25 21.4302C17.3214 21.4302 14.1071 24.6445 14.1071 28.573C14.1071 32.5016 17.3214 35.7159 21.25 35.7159C25.1786 35.7159 28.3929 32.5016 28.3929 28.573C28.3929 27.323 28.0357 26.0731 27.3214 25.0016L29.8214 22.5016C31.0714 24.2873 31.7857 26.4302 31.7857 28.7516C31.7857 34.6445 26.9643 39.4659 21.0714 39.4659C15.1786 39.4659 10.3571 34.6445 10.3571 28.7516C10.3571 22.8588 15.1786 18.0373 21.0714 18.0373C22.6786 18.0373 24.2857 18.3945 25.7143 19.1088L28.3929 16.4302C26.6071 15.0016 24.1071 14.2873 21.4286 14.2873C13.5714 14.2873 7.14286 20.7159 7.14286 28.573C7.14286 36.4302 13.5714 42.8588 21.4286 42.8588C29.2857 42.8588 35.7143 36.4302 35.7143 28.573C35.7143 25.3588 34.6429 22.3231 32.6786 19.8231L34.6429 17.8588H35.7143C38.0357 20.8945 39.2857 24.6445 39.2857 28.573C39.2857 38.3945 31.25 46.4302 21.4286 46.4302C11.6071 46.4302 3.57143 38.3945 3.57143 28.573C3.57143 18.7516 11.6071 10.7159 21.4286 10.7159C24.6429 10.7159 27.6786 11.6088 30.3571 13.0373V9.10876C27.5 7.85876 24.4643 7.14448 21.4286 7.14448C9.64286 7.14448 0 16.7873 0 28.573C0 40.3588 9.64286 50.0016 21.4286 50.0016C33.2143 50.0016 42.8571 40.3588 42.8571 28.573C42.8571 24.823 41.7857 21.073 40 17.8588H41.0714C41.6071 17.8588 41.9643 17.6802 42.3214 17.323ZM35.7143 14.2873V9.64448L39.2857 6.07305V8.93019C39.2857 10.0016 40 10.7159 41.0714 10.7159H43.9286L40.3571 14.2873H35.7143Z" fill="#0087D4"/>
</g>
<defs>
<clipPath id="clip0">
<rect width="50" height="50" fill="white"/>
</clipPath>
</defs>
</svg>
