<svg width="30" height="52" viewBox="0 0 30 52" fill="none" xmlns="http://www.w3.org/2000/svg">
<path d="M24 16.5286C21.5625 14.3 18.375 13 15 13C11.625 13 8.4375 14.3 6.1875 16.5286L9.1875 3.34289C9.1875 2.41432 9.9375 1.85718 10.875 1.85718H19.125C20.0625 1.85718 20.8125 2.41432 21 3.34289L24 16.5286Z" fill="#24B6F9"/>
<path d="M10.875 50.1429C9.9375 50.1429 9.1875 49.5857 9 48.6571L6 35.4714C8.4375 37.7 11.625 39 15 39C18.375 39 21.5625 37.7 24 35.4714L21 48.6571C20.8125 49.5857 20.0625 50.1429 19.125 50.1429H10.875Z" fill="#24B6F9"/>
<path d="M28.125 26C28.125 33.2429 22.3125 39 15 39C11.0625 39 7.5 37.1429 5.0625 34.3571C3 32.1286 1.875 29.1571 1.875 26C1.875 18.7571 7.6875 13 15 13C17.8125 13 20.625 13.9286 22.6875 15.4143C26.0625 17.8286 28.125 21.7286 28.125 26Z" fill="white"/>
<path d="M30 26C30 21.9143 28.3125 18.2 25.6875 15.6L22.875 2.97143C22.5 1.3 21 0 19.125 0H10.875C9.1875 0 7.6875 1.11429 7.125 2.97143L4.3125 15.6C1.6875 18.2 0 21.9143 0 26C0 30.0857 1.6875 33.8 4.3125 36.4L7.125 49.0286C7.5 50.7 9 52 10.875 52H19.125C20.8125 52 22.3125 50.8857 22.875 49.0286L25.6875 36.4C28.3125 33.8 30 30.0857 30 26ZM10.875 3.71429H19.125L21 12.4429C19.3125 11.7 17.0625 11.1429 15 11.1429C12.9375 11.1429 10.875 11.5143 9 12.4429L10.875 3.71429ZM15 14.8571C21.1875 14.8571 26.25 19.8714 26.25 26C26.25 32.1286 21.1875 37.1429 15 37.1429C8.8125 37.1429 3.75 32.1286 3.75 26C3.75 19.8714 8.8125 14.8571 15 14.8571ZM19.125 48.2857H10.875L9 39.5571C10.6875 40.3 12.9375 40.8571 15 40.8571C17.0625 40.8571 19.3125 40.3 21 39.5571L19.125 48.2857Z" fill="#0087D4"/>
<path d="M16.3125 29.9001C17.0625 30.643 18.1875 30.643 18.9375 29.9001C19.6875 29.1573 19.6875 28.043 18.9375 27.3001L16.875 25.2573V22.2859C16.875 21.1716 16.125 20.4287 15 20.4287C13.875 20.4287 13.125 21.1716 13.125 22.2859V26.0001C13.125 26.5573 13.3125 26.9287 13.6875 27.3001L16.3125 29.9001Z" fill="#F4CD3F"/>
</svg>
