<svg width="53" height="61" viewBox="0 0 53 61" fill="none" xmlns="http://www.w3.org/2000/svg">
<g clip-path="url(#clip0)">
<path d="M27.3672 4.1106L46.6939 14.0818C48.4655 14.9958 49.1638 17.1996 48.2457 18.9792L29.8836 54.5697C28.9655 56.3492 26.7648 57.0574 24.9932 56.1433L5.66643 46.1721C4.37799 45.5074 3.74551 44.3617 3.68553 42.8969C3.6914 42.4903 3.86421 41.7601 4.1146 41.2748L22.4767 5.68423C23.3949 3.90471 25.5955 3.19657 27.3672 4.1106Z" fill="#F4CD3F"/>
<path d="M28.6843 25.2736C30.4559 26.1876 31.4046 27.9061 31.7032 29.6989C31.7691 30.757 31.5128 31.649 31.012 32.6197C29.6766 35.2081 26.6589 36.314 23.9985 35.1463C23.8375 35.0632 23.8375 35.0632 23.6764 34.9801C20.9385 33.5675 19.9298 30.3842 21.3487 27.6341C22.7676 24.8839 25.9463 23.861 28.6843 25.2736Z" fill="white"/>
<path d="M6.53507 36.5833C8.13975 37.8208 9.49405 39.5438 10.1982 41.3409C11.0576 43.6278 11.1835 46.1508 10.3371 48.5818L5.66643 46.1721C4.37799 45.5074 3.74551 44.3617 3.68553 42.8969C3.69141 42.4903 3.86421 41.7601 4.1146 41.2748L6.53507 36.5833Z" fill="white"/>
<path d="M32.0381 6.52058C29.3073 10.2326 24.4169 11.8062 20.0566 10.376L22.4771 5.6845C23.3952 3.90498 25.5959 3.19685 27.3675 4.11087L32.0381 6.52058Z" fill="white"/>
<path d="M29.8843 54.5697C28.9662 56.3492 26.7655 57.0574 24.9939 56.1434L20.3232 53.7336C23.0541 50.0216 27.9445 48.448 32.3047 49.8782L29.8843 54.5697Z" fill="white"/>
<path d="M42.0224 11.6726L46.693 14.0823C48.4646 14.9964 49.1629 17.2002 48.2448 18.9797L45.8244 23.6712C44.2197 22.4336 43.0264 20.7938 42.1612 18.9135C41.3018 16.6266 41.176 14.1037 42.0224 11.6726Z" fill="white"/>
<path d="M20.8661 4.85334C14.8567 16.5011 12.0189 22.0015 2.50393 40.4439C1.08504 43.194 2.09373 46.3773 4.83168 47.7899C10.7908 50.8644 14.1729 52.6093 24.1584 57.7611C26.7353 59.0906 30.0751 58.1509 31.494 55.4007C37.5035 43.7529 40.3413 38.2525 49.8562 19.8101C51.2751 17.06 50.1053 13.7936 47.5284 12.4641C45.1126 11.2177 43.502 10.3868 41.2472 9.22345C32.067 4.48713 33.9997 5.48425 28.2017 2.49289C25.4637 1.0803 22.285 2.10316 20.8661 4.85334ZM24.0872 6.5152C24.5045 5.70633 25.7271 5.31292 26.5324 5.72839L29.5925 7.30716C27.7798 9.23964 25.09 10.1051 22.5014 9.58893L24.0872 6.5152ZM6.50097 44.5544C5.69569 44.139 5.30773 42.9146 5.72505 42.1057L7.31087 39.032C9.2318 40.8424 10.0853 43.536 9.56104 46.1332L6.50097 44.5544ZM28.2729 53.7388C27.8556 54.5477 26.633 54.9411 25.8277 54.5256L22.7676 52.9468C24.5804 51.0144 27.2701 50.1489 29.8587 50.6651L28.2729 53.7388ZM31.528 47.4296C27.1678 45.9993 22.2773 47.573 19.5465 51.285L12.7822 47.7951C14.2245 43.4183 12.6727 38.5209 8.98016 35.7965L20.8321 12.8244C25.1924 14.2547 30.0828 12.681 32.8136 8.96903L39.578 12.459C38.1356 16.8357 39.6874 21.7331 43.38 24.4575L31.528 47.4296ZM45.8591 15.6996C46.6644 16.1151 47.0524 17.3394 46.6351 18.1483L45.0492 21.222C43.1283 19.4116 42.2748 16.718 42.7991 14.1208L45.8591 15.6996Z" fill="#0087D4"/>
<path d="M19.738 26.8034C17.9018 30.3625 19.2984 34.7701 22.8417 36.5981C26.3849 38.4262 30.7863 37.0099 32.6225 33.4509C34.4587 29.8918 33.062 25.4842 29.5188 23.6561C25.9756 21.8281 21.5742 23.2444 19.738 26.8034ZM29.4014 31.789C28.4832 33.5685 26.2826 34.2767 24.5109 33.3626C22.7393 32.4486 22.041 30.2448 22.9591 28.4653C23.8772 26.6857 26.0779 25.9776 27.8495 26.8916C29.6211 27.8057 30.3195 30.0095 29.4014 31.789Z" fill="#0087D4"/>
</g>
<defs>
<clipPath id="clip0">
<rect width="50.9704" height="32.621" fill="white" transform="translate(0 45.2971) rotate(-62.7095)"/>
</clipPath>
</defs>
</svg>
