<svg width="43" height="39" viewBox="0 0 43 39" fill="none" xmlns="http://www.w3.org/2000/svg">
<path d="M41.2082 5.31816V26.5909C41.2082 26.7682 41.2082 26.9454 41.2082 27.1227C40.8498 28.8954 39.4165 30.1363 37.6248 30.1363H19.7082L8.95817 37.2272V30.1363H5.37484C3.404 30.1363 1.7915 28.5409 1.7915 26.5909V5.31816C1.7915 4.96361 1.7915 4.60907 1.97067 4.4318C2.329 2.83634 3.76234 1.77271 5.37484 1.77271H37.6248C39.5957 1.77271 41.2082 3.36816 41.2082 5.31816Z" fill="#F4CD3F"/>
<path d="M37.625 0H5.375C2.32917 0 0 2.30455 0 5.31818V26.5909C0 29.6045 2.32917 31.9091 5.375 31.9091H7.16667V37.2273C7.16667 37.9364 7.525 38.4682 8.0625 38.8227C8.42083 39 8.6 39 8.95833 39C9.31667 39 9.675 38.8227 10.0333 38.6455L20.2458 31.9091H37.625C40.6708 31.9091 43 29.6045 43 26.5909V5.31818C43 2.30455 40.6708 0 37.625 0ZM39.4167 26.5909C39.4167 27.6545 38.7 28.3636 37.625 28.3636H19.7083C19.35 28.3636 18.9917 28.5409 18.6333 28.7182L10.75 34.0364V30.1364C10.75 29.0727 10.0333 28.3636 8.95833 28.3636H5.375C4.3 28.3636 3.58333 27.6545 3.58333 26.5909V5.31818C3.58333 4.25455 4.3 3.54545 5.375 3.54545H37.625C38.7 3.54545 39.4167 4.25455 39.4167 5.31818V26.5909Z" fill="#0077BF"/>
<path d="M20.246 14.7137L20.0668 14.891C20.0668 15.0682 19.8877 15.0682 19.8877 15.2455C19.8877 15.4228 19.8877 15.4228 19.7085 15.6001C19.7085 15.7773 19.7085 15.7773 19.7085 15.9546C19.7085 16.4864 19.8877 16.841 20.246 17.1955C20.6043 17.5501 20.9627 17.7273 21.5002 17.7273C22.0377 17.7273 22.396 17.5501 22.7543 17.1955C23.1127 16.841 23.2918 16.4864 23.2918 15.9546C23.2918 15.4228 23.1127 15.0682 22.7543 14.7137C22.0377 14.0046 20.9627 14.0046 20.246 14.7137Z" fill="#0077BF"/>
<path d="M11.825 14.3593C11.6458 14.3593 11.4667 14.5365 11.2875 14.7138C10.9292 15.0684 10.75 15.4229 10.75 15.9547C10.75 16.4865 10.9292 16.8411 11.2875 17.1956C11.4667 17.3729 11.6458 17.5502 11.825 17.5502C12.0042 17.7274 12.3625 17.7274 12.5417 17.7274C13.0792 17.7274 13.4375 17.5502 13.7958 17.1956C14.1542 16.8411 14.3333 16.4865 14.3333 15.9547C14.3333 15.4229 14.1542 15.0684 13.7958 14.7138C13.2583 14.182 12.5417 14.0047 11.825 14.3593Z" fill="#0077BF"/>
<path d="M29.7415 14.3593C29.5623 14.5365 29.3832 14.5365 29.204 14.7138C28.8457 15.0684 28.6665 15.4229 28.6665 15.9547C28.6665 16.132 28.6665 16.132 28.6665 16.3093C28.6665 16.4865 28.6665 16.4865 28.8457 16.6638C28.8457 16.8411 29.0248 16.8411 29.0248 17.0184L29.204 17.1956C29.3832 17.3729 29.5623 17.5502 29.7415 17.5502C29.9207 17.5502 30.279 17.7274 30.4582 17.7274C30.9957 17.7274 31.354 17.5502 31.7123 17.1956C32.0707 16.8411 32.2498 16.4865 32.2498 15.9547C32.2498 15.4229 32.0707 15.0684 31.7123 14.7138C31.1748 14.182 30.4582 14.0047 29.7415 14.3593Z" fill="#0077BF"/>
</svg>
