<svg width="51" height="44" viewBox="0 0 51 44" fill="none" xmlns="http://www.w3.org/2000/svg">
<g clip-path="url(#clip0)">
<path d="M44.8569 12.1919C46.6009 12.4923 47.7806 14.1739 47.4783 15.929L43.6319 38.2663C43.3297 40.0214 41.6555 41.2117 39.9115 40.9114L5.03121 34.9051C3.2872 34.6048 2.10755 32.9231 2.40976 31.168L6.28365 8.67114C6.58587 6.91607 8.23259 5.88536 9.9766 6.18567C22.8189 8.39707 32.4902 10.0624 44.8569 12.1919Z" fill="#00ADEE"/>
<path d="M23.6965 11.8338C22.7452 11.67 22.2209 10.9226 22.3857 9.96528L22.9352 6.77423C23.1001 5.81692 23.8441 5.28792 24.7954 5.45172L31.1373 6.54377C32.0886 6.70758 32.6129 7.45499 32.448 8.41231L31.8985 11.6034C31.7337 12.5607 30.9896 13.0897 30.0383 12.9259L23.6965 11.8338Z" fill="#F4CD3F"/>
<path d="M45.1316 10.5964L34.0334 8.68535C34.3356 6.93027 33.1559 5.24859 31.4119 4.94827L25.07 3.85622C23.326 3.55591 21.6518 4.74617 21.3496 6.50125L10.2513 4.59016C7.55605 4.12604 5.13778 5.84531 4.67071 8.5577L0.824302 30.895C0.357238 33.6074 2.06118 36.0365 4.75647 36.5006L39.6368 42.5069C42.3321 42.971 44.7503 41.2518 45.2174 38.5394L49.0638 16.202C49.5309 13.4896 47.8269 11.0606 45.1316 10.5964ZM24.5206 7.04727L30.8624 8.13932L30.5877 9.73484L30.3129 11.3304L23.9711 10.2383L24.2458 8.6428L24.5206 7.04727ZM42.0465 37.9933C41.8816 38.9507 41.1375 39.4797 40.1863 39.3159L5.30596 33.3096C4.35468 33.1458 3.83039 32.3984 3.99524 31.4411L7.84165 9.10372C8.0065 8.14641 8.75058 7.6174 9.70186 7.78121L20.8001 9.6923C20.4979 11.4474 21.6776 13.1291 23.4216 13.4294L29.7635 14.5214C31.5075 14.8217 33.1817 13.6315 33.4839 11.8764L44.5822 13.7875C45.5334 13.9513 46.0577 14.6987 45.8929 15.656L42.0465 37.9933Z" fill="#0077BF"/>
<path d="M39.8789 21.1917L11.499 16.3048C10.5478 16.1409 9.80368 16.6699 9.63883 17.6273C9.47398 18.5846 9.99827 19.332 10.9496 19.4958L39.3294 24.3827C40.2807 24.5465 41.0248 24.0175 41.1896 23.0602C41.3545 22.1029 40.8302 21.3555 39.8789 21.1917Z" fill="#0077BF"/>
<path d="M35.8838 25.4323L10.6748 21.0914C9.72354 20.9276 8.97946 21.4566 8.81461 22.4139C8.64977 23.3712 9.17406 24.1186 10.1253 24.2824L35.3343 28.6233C36.2856 28.7871 37.0296 28.2581 37.1945 27.3008C37.3593 26.3435 36.835 25.5961 35.8838 25.4323Z" fill="#0077BF"/>
<path d="M31.8886 29.6729L9.8506 25.878C8.89932 25.7142 8.15524 26.2432 7.99039 27.2005C7.82555 28.1578 8.34984 28.9052 9.30112 29.069L31.3391 32.8639C32.2904 33.0277 33.0345 32.4987 33.1993 31.5414C33.3642 30.5841 32.8399 29.8367 31.8886 29.6729Z" fill="#0077BF"/>
</g>
<defs>
<clipPath id="clip0">
<rect width="45.0465" height="35.6181" fill="white" transform="translate(6.04443 0.580078) rotate(9.77032)"/>
</clipPath>
</defs>
</svg>
