<svg width="43" height="38" viewBox="0 0 43 38" fill="none" xmlns="http://www.w3.org/2000/svg">
<g clip-path="url(#clip0)">
<path d="M31.3189 21.9097C29.9646 23.6214 26.7481 27.5583 23.8701 30.9817C26.4095 34.234 28.7796 36.9727 28.7796 36.9727C29.4567 37.8286 30.1339 37.9998 31.4882 37.9998H41.1378C42.8307 37.9998 43.6772 36.9727 42.3229 35.261C41.815 34.4052 34.7048 25.8466 31.3189 21.9097Z" fill="#0077BF"/>
<path d="M28.103 18.1441C27.9337 17.8018 27.7644 17.4595 27.4258 17.1171C27.2565 16.9459 14.5597 1.36937 14.5597 1.1982C13.7132 0.342342 13.0361 0 11.6817 0H2.03213C1.01638 0 0.339219 0.342342 0.000636106 0.855856C0.000636106 1.36937 -0.168655 2.05405 0.677802 3.08108C1.01638 3.76577 5.41796 9.07207 8.97308 13.1802C11.1739 15.7477 13.0361 17.973 13.2054 18.3153C13.2054 18.3153 13.3747 18.6577 13.3747 18.8288C13.3747 19 13.2054 19.3423 13.2054 19.3423C12.8668 19.6847 11.0046 21.9099 8.97308 24.6486C5.41796 29.0991 1.18568 34.2342 0.677802 34.9189C-0.168655 35.9459 0.000636109 36.8018 0.169927 37.1441C0.50851 37.6577 1.18568 38 2.20142 38H11.851C13.2054 38 13.8825 37.6577 14.729 36.8018C14.8983 36.6306 27.4258 21.0541 27.5951 20.8829C27.9337 20.5405 28.103 20.1982 28.2723 19.8559C28.4416 19.5135 28.4416 19.1712 28.4416 19C28.2723 18.6577 28.2723 18.4865 28.103 18.1441Z" fill="#00ADEE"/>
<path d="M31.3189 16.0901C34.5355 12.1532 41.6457 3.59459 42.3229 2.73874C43.6772 1.02703 42.8307 0 41.1378 0H31.4882C30.1339 0 29.626 0.342342 28.7796 1.02703C28.7796 1.02703 26.5788 3.76577 23.8701 7.01802C26.7481 10.4414 29.9646 14.3784 31.3189 16.0901Z" fill="#00ADEE"/>
<path d="M11.6817 3.42342C11.851 3.42342 11.851 3.42342 12.0203 3.42342L12.6975 4.27928C15.2369 7.36036 23.5321 17.4595 24.7172 19C23.3628 20.7117 12.8668 33.5495 12.0203 34.5766H11.851H5.41796C7.11087 32.5225 9.81954 29.2703 11.6817 27.045L11.851 26.8739C14.729 23.4504 15.914 21.9099 16.2526 21.5676C16.4219 21.2252 17.0991 20.1982 17.0991 19C17.0991 17.6306 16.4219 16.6036 16.2526 16.4324C15.7447 16.0901 14.3904 14.5495 11.5124 11.1261C9.65024 8.72973 7.11087 5.64865 5.24867 3.42342H11.6817ZM11.6817 0H2.03213C1.01638 0 0.339219 0.342342 0.000636106 0.855856C0.000636106 1.36937 -0.168655 2.05405 0.677802 3.08108C1.01638 3.76577 5.41796 9.07207 8.97308 13.1802C11.1739 15.7477 13.0361 17.973 13.2054 18.3153C13.2054 18.3153 13.3747 18.6577 13.3747 18.8288C13.3747 19 13.2054 19.3423 13.2054 19.3423C12.8668 19.6847 11.0046 21.9099 8.97308 24.6486C5.41796 29.0991 1.18568 34.2342 0.677802 34.9189C-0.168655 35.9459 0.000636109 36.8018 0.169927 37.1441C0.50851 37.6577 1.18568 38 2.20142 38H11.851C13.2054 38 13.8825 37.6577 14.729 36.8018C14.8983 36.6306 27.4258 21.0541 27.5951 20.8829C27.9337 20.5405 28.103 20.1982 28.2723 19.8559C28.4416 19.5135 28.4416 19.1712 28.4416 19C28.4416 18.6577 28.4416 18.3153 28.2723 18.1441C28.103 17.8018 27.9337 17.4595 27.5951 17.1171C27.4258 16.9459 14.729 1.36937 14.729 1.1982C13.7132 0.342342 13.0361 0 11.6817 0Z" fill="#0077BF"/>
<path d="M37.4134 3.42342C35.7205 5.47748 33.1811 8.55856 31.4882 10.6126C31.4882 10.6126 31.4882 10.7838 31.3189 10.7838L28.2717 7.01802L31.3189 3.42342H31.4882H37.4134ZM41.1378 0H31.4882C30.1339 0 29.626 0.342342 28.7796 1.02703C28.7796 1.02703 26.5788 3.76577 23.8701 7.01802C26.7481 10.4414 29.9646 14.3784 31.3189 16.0901C34.5355 12.1532 41.6457 3.59459 42.3229 2.73874C43.6772 1.02703 42.8307 0 41.1378 0Z" fill="#0077BF"/>
<path d="M31.4882 27.216C33.3504 29.4412 35.8898 32.5223 37.5827 34.5763H31.6575H31.4882L28.6103 30.9817L30.6418 28.5853L31.4882 27.216ZM31.3189 21.9097C29.9646 23.6214 26.7481 27.5583 23.8701 30.9817C26.4095 34.234 28.7796 36.9727 28.7796 36.9727C29.4567 37.8286 30.1339 37.9998 31.4882 37.9998H41.1378C42.8307 37.9998 43.6772 36.9727 42.3229 35.261C41.815 34.4052 34.7048 25.8466 31.3189 21.9097Z" fill="#0077BF"/>
</g>
<defs>
<clipPath id="clip0">
<rect width="43" height="38" fill="white"/>
</clipPath>
</defs>
</svg>
