<svg width="38" height="38" viewBox="0 0 38 38" fill="none" xmlns="http://www.w3.org/2000/svg">
<path d="M36.6429 16.2858V33.9286C36.6429 35.4215 35.4215 36.6429 33.9286 36.6429H4.07146C2.57861 36.6429 1.35718 35.4215 1.35718 33.9286V16.2858C1.35718 15.7429 1.49289 15.0644 1.76432 14.6572C2.30718 13.1644 3.80003 12.2144 5.42861 12.2144H32.5715C34.8786 12.2144 36.6429 13.9786 36.6429 16.2858Z" fill="white"/>
<path d="M13.5715 6.78575V1.35718H24.4287V6.78575H13.5715Z" fill="#00ADEE"/>
<path d="M24.4285 17.6429V1.35718C24.5642 1.35718 24.4285 1.35718 24.4285 1.35718L29.3142 3.80003L29.857 4.07146V17.6429H24.4285Z" fill="white"/>
<path d="M8.14282 17.6429V4.07148L8.68568 3.80005L13.5714 1.35719C13.8428 1.22148 13.4357 1.35719 13.5714 1.35719V17.6429H8.14282Z" fill="white"/>
<path d="M36.6429 17.6428H1.35718V23.0714H36.6429V17.6428Z" fill="#F4CD3F"/>
<path d="M32.5714 10.8571H31.2143V4.07143C31.2143 3.52857 30.9429 3.12143 30.4 2.85L24.9714 0.135714C24.9714 0.135714 24.5643 0 24.4286 0H13.5714C13.4357 0 13.1643 0.135714 13.0286 0.135714L7.6 2.85C7.05714 3.12143 6.78571 3.52857 6.78571 4.07143V10.8571H5.42857C2.44286 10.8571 0 13.3 0 16.2857C0 18.8643 0 18.3214 0 33.9286C0 36.2357 1.76429 38 4.07143 38H33.9286C36.2357 38 38 36.2357 38 33.9286C38 10.9929 38 30.5357 38 16.2857C38 13.3 35.5571 10.8571 32.5714 10.8571ZM32.5714 13.5714C34.0643 13.5714 35.2857 14.7929 35.2857 16.2857H31.2143V13.5714H32.5714ZM2.71429 21.7143V19C30.6714 19 20.9 19 35.2857 19V21.7143H2.71429ZM23.0714 10.8571H14.9286V8.14286H23.0714V10.8571ZM14.9286 13.5714H23.0714V16.2857H14.9286V13.5714ZM28.5 16.2857H25.7857C25.7857 8.27857 25.7857 11.5357 25.7857 3.52857L28.5 4.88571C28.5 9.09286 28.5 11.9429 28.5 16.2857ZM23.0714 5.42857H14.9286V2.71429H23.0714V5.42857ZM9.5 4.88571L12.2143 3.52857C12.2143 11.5357 12.2143 8.27857 12.2143 16.2857H9.5V12.2143V4.88571ZM5.42857 13.5714H6.78571V16.2857H2.71429C2.71429 14.7929 3.93571 13.5714 5.42857 13.5714ZM33.9286 35.2857H4.07143C3.25714 35.2857 2.71429 34.7429 2.71429 33.9286V24.4286H6.78571V25.7857C6.78571 26.6 7.32857 27.1429 8.14286 27.1429C8.95714 27.1429 9.5 26.6 9.5 25.7857V24.4286H35.2857V33.9286C35.2857 34.7429 34.7429 35.2857 33.9286 35.2857Z" fill="#0077BF"/>
</svg>
