<svg width="40" height="39" viewBox="0 0 40 39" fill="none" xmlns="http://www.w3.org/2000/svg">
<g clip-path="url(#clip0)">
<rect x="7" y="17" width="5" height="5" fill="#00ADEE"/>
<path d="M38.1396 3.91577H2.32568V10.0242H38.1396V3.91577Z" fill="#F4CD3F"/>
<path d="M35.969 39H4.03101C1.86047 39 0 37.1204 0 34.9277V6.42165C0 4.22888 1.86047 2.34937 4.03101 2.34937H35.969C38.1395 2.34937 40 4.22888 40 6.42165V34.9277C40 37.1204 38.1395 39 35.969 39ZM4.03101 5.4819C3.56589 5.4819 3.10078 5.79515 3.10078 6.42165V34.9277C3.10078 35.3976 3.56589 35.8674 4.03101 35.8674H35.969C36.4341 35.8674 36.8992 35.3976 36.8992 34.9277V6.42165C36.8992 5.95177 36.4341 5.4819 35.969 5.4819H4.03101Z" fill="#0077BF"/>
<path d="M12.7131 23.8071H6.6666C5.73637 23.8071 5.11621 23.1806 5.11621 22.2408V16.4457C5.11621 15.5059 5.73637 14.8794 6.6666 14.8794H12.7131C13.6433 14.8794 14.2635 15.5059 14.2635 16.4457V22.2408C14.2635 23.024 13.4883 23.8071 12.7131 23.8071ZM8.21699 20.6746H11.1627V18.0119H8.21699V20.6746Z" fill="#0077BF"/>
<path d="M23.1008 23.8071H17.0543C16.1241 23.8071 15.5039 23.1806 15.5039 22.2408V16.4457C15.5039 15.5059 16.1241 14.8794 17.0543 14.8794H23.1008C24.031 14.8794 24.6512 15.5059 24.6512 16.4457V22.2408C24.6512 23.024 23.876 23.8071 23.1008 23.8071ZM18.6047 20.6746H21.5504V18.0119H18.6047V20.6746Z" fill="#0077BF"/>
<path d="M33.4883 23.8071H27.4417C26.5115 23.8071 25.8914 23.1806 25.8914 22.2408V16.4457C25.8914 15.5059 26.5115 14.8794 27.4417 14.8794H33.4883C34.4185 14.8794 35.0386 15.5059 35.0386 16.4457V22.2408C35.0386 23.024 34.2635 23.8071 33.4883 23.8071ZM28.8371 20.6746H31.7828V18.0119H28.8371V20.6746Z" fill="#0077BF"/>
<path d="M12.7131 33.8314H6.6666C5.73637 33.8314 5.11621 33.2049 5.11621 32.2651V26.6266C5.11621 25.6868 5.73637 25.0603 6.6666 25.0603H12.7131C13.6433 25.0603 14.2635 25.6868 14.2635 26.6266V32.4218C14.2635 33.2049 13.4883 33.8314 12.7131 33.8314ZM8.21699 30.6989H11.1627V28.1928H8.21699V30.6989Z" fill="#0077BF"/>
<path d="M23.1008 33.8314H17.0543C16.1241 33.8314 15.5039 33.2049 15.5039 32.2651V26.6266C15.5039 25.6868 16.1241 25.0603 17.0543 25.0603H23.1008C24.031 25.0603 24.6512 25.6868 24.6512 26.6266V32.4218C24.6512 33.2049 23.876 33.8314 23.1008 33.8314ZM18.6047 30.6989H21.5504V28.1928H18.6047V30.6989Z" fill="#0077BF"/>
<path d="M33.4883 33.8314H27.4417C26.5115 33.8314 25.8914 33.2049 25.8914 32.2651V26.6266C25.8914 25.6868 26.5115 25.0603 27.4417 25.0603H33.4883C34.4185 25.0603 35.0386 25.6868 35.0386 26.6266V32.4218C35.0386 33.2049 34.2635 33.8314 33.4883 33.8314ZM28.8371 30.6989H31.7828V28.1928H28.8371V30.6989Z" fill="#0077BF"/>
<path d="M38.4496 11.4338H1.55039C0.620155 11.4338 0 10.8073 0 9.86753C0 8.92778 0.620155 8.30127 1.55039 8.30127H38.4496C39.3798 8.30127 40 8.92778 40 9.86753C40 10.8073 39.3798 11.4338 38.4496 11.4338Z" fill="#0077BF"/>
<path d="M9.6124 7.6747C8.68217 7.6747 8.06201 7.04819 8.06201 6.10843V1.56627C8.06201 0.626506 8.68217 0 9.6124 0C10.5426 0 11.1628 0.626506 11.1628 1.56627V6.10843C11.1628 7.04819 10.5426 7.6747 9.6124 7.6747Z" fill="#0077BF"/>
<path d="M30.3875 7.6747C29.4573 7.6747 28.8372 7.04819 28.8372 6.10843V1.56627C28.8372 0.626506 29.4573 0 30.3875 0C31.3178 0 31.9379 0.626506 31.9379 1.56627V6.10843C31.9379 7.04819 31.3178 7.6747 30.3875 7.6747Z" fill="#0077BF"/>
</g>
<defs>
<clipPath id="clip0">
<rect width="40" height="39" fill="white"/>
</clipPath>
</defs>
</svg>
