<svg width="40" height="40" viewBox="0 0 40 40" fill="none" xmlns="http://www.w3.org/2000/svg">
<path d="M28.5713 1.42847V38.5713H1.42847V8.57132L8.57132 1.42847H28.5713Z" fill="white"/>
<path d="M32.8572 34.2856V4.42847C32.8572 2.9999 33.8572 1.71418 35.1429 1.42847C35.2858 1.42847 35.5715 1.42847 35.7143 1.42847C37.2857 1.42847 38.5715 2.71418 38.5715 4.28561V34.2856L35.7143 38.5713L32.8572 34.2856Z" fill="#F4CD3F"/>
<path d="M22.8572 11.4285H18.5715V15.7142H22.8572V11.4285Z" fill="#00ADEE"/>
<path d="M22.8572 20H18.5715V24.2857H22.8572V20Z" fill="#00ADEE"/>
<path d="M22.8572 28.5715H18.5715V32.8572H22.8572V28.5715Z" fill="#00ADEE"/>
<path d="M8.57132 1.42847V8.57132H1.42847L8.57132 1.42847Z" fill="#00ADEE"/>
<path d="M6.85704 8.57157H1.42847L5.57132 4.42871C5.9999 5.71443 6.42847 7.143 6.85704 8.57157Z" fill="#0077BF"/>
<path d="M35.7143 1.42847C34 1.42847 33 2.85704 32.8572 4.28561V7.14275H38.5715V4.28561C38.5715 2.71418 37.2857 1.42847 35.7143 1.42847Z" fill="white"/>
<path d="M32.8572 32.8572V34.2857L35.7143 38.5715L38.5715 34.2857V32.8572H32.8572Z" fill="white"/>
<path d="M28.5714 0H8.57143C8.28571 0 7.85714 0.142857 7.57143 0.428571L0.428571 7.57143C0.142857 7.85714 0 8.28571 0 8.57143V38.5714C0 39.4286 0.571429 40 1.42857 40H28.5714C29.4286 40 30 39.4286 30 38.5714V1.42857C30 0.571429 29.4286 0 28.5714 0ZM7.14286 4.85714V7.14286H4.85714L7.14286 4.85714ZM27.1429 37.1429H2.85714V10H8.57143C9.42857 10 10 9.42857 10 8.57143V2.85714H27.1429V37.1429Z" fill="#0077BF"/>
<path d="M35.7142 0C33.2856 0 31.4285 1.85714 31.4285 4.28571V34.5714C31.4285 34.8571 31.5713 35.1429 31.7142 35.4286L34.5713 39.4286C34.857 39.8571 35.2856 40 35.7142 40C36.1428 40 36.5713 39.7143 36.857 39.4286L39.7142 35.4286C39.857 35.1429 39.9999 34.8571 39.9999 34.5714V4.28571C39.9999 1.85714 38.1428 0 35.7142 0ZM34.2856 8.57143H37.1428V31.4286H34.2856V8.57143ZM35.7142 2.85714C36.5713 2.85714 37.1428 3.42857 37.1428 4.28571V5.71429H34.2856V4.28571C34.2856 3.42857 34.857 2.85714 35.7142 2.85714ZM35.7142 36.1429L34.4285 34.2857H36.9999L35.7142 36.1429Z" fill="#0077BF"/>
<path d="M18.5714 17.1429H22.8571C23.7143 17.1429 24.2857 16.5714 24.2857 15.7143V11.4286C24.2857 10.5714 23.7143 10 22.8571 10H18.5714C17.7143 10 17.1428 10.5714 17.1428 11.4286V15.7143C17.1428 16.5714 17.7143 17.1429 18.5714 17.1429ZM20 12.8571H21.4285V14.2857H20V12.8571Z" fill="#0077BF"/>
<path d="M7.14293 12.8572C6.28578 12.8572 5.71436 13.4286 5.71436 14.2857C5.71436 15.1429 6.28578 15.7143 7.14293 15.7143H14.2858C15.1429 15.7143 15.7144 15.1429 15.7144 14.2857C15.7144 13.4286 15.1429 12.8572 14.2858 12.8572H7.14293Z" fill="#0077BF"/>
<path d="M18.5714 25.7144H22.8571C23.7143 25.7144 24.2857 25.143 24.2857 24.2858V20.0001C24.2857 19.143 23.7143 18.5715 22.8571 18.5715H18.5714C17.7143 18.5715 17.1428 19.143 17.1428 20.0001V24.2858C17.1428 25.143 17.7143 25.7144 18.5714 25.7144ZM20 21.4287H21.4285V22.8572H20V21.4287Z" fill="#0077BF"/>
<path d="M14.2858 21.4285H7.14293C6.28578 21.4285 5.71436 21.9999 5.71436 22.857C5.71436 23.7142 6.28578 24.2856 7.14293 24.2856H14.2858C15.1429 24.2856 15.7144 23.7142 15.7144 22.857C15.7144 21.9999 15.1429 21.4285 14.2858 21.4285Z" fill="#0077BF"/>
<path d="M18.5714 34.2857H22.8571C23.7143 34.2857 24.2857 33.7143 24.2857 32.8571V28.5714C24.2857 27.7143 23.7143 27.1428 22.8571 27.1428H18.5714C17.7143 27.1428 17.1428 27.7143 17.1428 28.5714V32.8571C17.1428 33.7143 17.7143 34.2857 18.5714 34.2857ZM20 30H21.4285V31.4285H20V30Z" fill="#0077BF"/>
<path d="M14.2858 30H7.14293C6.28578 30 5.71436 30.5714 5.71436 31.4286C5.71436 32.2857 6.28578 32.8571 7.14293 32.8571H14.2858C15.1429 32.8571 15.7144 32.2857 15.7144 31.4286C15.7144 30.5714 15.1429 30 14.2858 30Z" fill="#0077BF"/>
</svg>
