<svg width="32" height="42" viewBox="0 0 32 42" fill="none" xmlns="http://www.w3.org/2000/svg">
<g clip-path="url(#clip0)">
<path d="M30.5455 4.81079V39.9536H1.45459V4.81079H7.27277V7.73936H24.7273V4.81079H30.5455Z" fill="white"/>
<path d="M24.7272 1.88232H7.27271V7.73947H24.7272V1.88232Z" fill="#F4CD3F"/>
<path d="M30.5455 3.34654H26.1818V1.88225C26.1818 1.00368 25.6 0.417969 24.7273 0.417969H7.27273C6.4 0.417969 5.81818 1.00368 5.81818 1.88225V3.34654H1.45455C0.581818 3.34654 0 3.93225 0 4.81083V39.9537C0 40.8323 0.581818 41.418 1.45455 41.418H30.5455C31.4182 41.418 32 40.8323 32 39.9537V4.81083C32 3.93225 31.4182 3.34654 30.5455 3.34654ZM8.72727 3.34654H23.2727C23.2727 4.37154 23.2727 5.25011 23.2727 6.27511H8.72727C8.72727 5.25011 8.72727 4.37154 8.72727 3.34654ZM29.0909 38.4894H2.90909V6.27511H5.81818V7.7394C5.81818 8.61797 6.4 9.20368 7.27273 9.20368H24.7273C25.6 9.20368 26.1818 8.61797 26.1818 7.7394V6.27511H29.0909V38.4894Z" fill="#0077BF"/>
<path d="M23.2727 13.5964H8.72725C7.85452 13.5964 7.27271 14.1821 7.27271 15.0607C7.27271 15.9393 7.85452 16.525 8.72725 16.525H23.2727C24.1454 16.525 24.7272 15.9393 24.7272 15.0607C24.7272 14.1821 24.1454 13.5964 23.2727 13.5964Z" fill="#0077BF"/>
<path d="M23.2727 25.3108H8.72725C7.85452 25.3108 7.27271 25.8965 7.27271 26.7751C7.27271 27.6536 7.85452 28.2394 8.72725 28.2394H23.2727C24.1454 28.2394 24.7272 27.6536 24.7272 26.7751C24.7272 25.8965 24.1454 25.3108 23.2727 25.3108Z" fill="#0077BF"/>
<path d="M23.2727 31.168H8.72725C7.85452 31.168 7.27271 31.7537 7.27271 32.6323C7.27271 33.5108 7.85452 34.0965 8.72725 34.0965H23.2727C24.1454 34.0965 24.7272 33.5108 24.7272 32.6323C24.7272 31.7537 24.1454 31.168 23.2727 31.168Z" fill="#0077BF"/>
<path d="M23.2727 19.4536H8.72725C7.85452 19.4536 7.27271 20.0393 7.27271 20.9179C7.27271 21.7965 7.85452 22.3822 8.72725 22.3822H23.2727C24.1454 22.3822 24.7272 21.7965 24.7272 20.9179C24.7272 20.0393 24.1454 19.4536 23.2727 19.4536Z" fill="#0077BF"/>
</g>
<defs>
<clipPath id="clip0">
<rect width="32" height="41" fill="white" transform="translate(0 0.417969)"/>
</clipPath>
</defs>
</svg>
