<svg width="39" height="39" viewBox="0 0 39 39" fill="none" xmlns="http://www.w3.org/2000/svg">
<path d="M37.375 19.5C37.375 29.4125 29.4125 37.375 19.5 37.375C12.675 37.375 6.825 33.6375 3.7375 27.95C2.4375 25.5125 1.625 22.5875 1.625 19.5C1.625 9.5875 9.5875 1.625 19.5 1.625C25.675 1.625 31.2 4.875 34.45 9.75C36.2375 12.5125 37.375 15.925 37.375 19.5Z" fill="#FFDD63"/>
<path d="M19.5 0C8.775 0 0 8.775 0 19.5C0 30.225 8.775 39 19.5 39C30.225 39 39 30.225 39 19.5C39 8.775 30.225 0 19.5 0ZM19.5 35.75C10.5625 35.75 3.25 28.4375 3.25 19.5C3.25 10.5625 10.5625 3.25 19.5 3.25C28.4375 3.25 35.75 10.5625 35.75 19.5C35.75 28.4375 28.4375 35.75 19.5 35.75Z" fill="#0077BF"/>
<path d="M21.125 9.75V8.125C21.125 7.15 20.475 6.5 19.5 6.5C18.525 6.5 17.875 7.15 17.875 8.125V9.75C15.1125 10.075 13 12.35 13 15.1125C13 17.3875 14.4625 19.5 16.7375 20.3125L21.2875 21.775C22.1 22.1 22.75 22.9125 22.75 23.8875C22.75 25.025 21.775 26 20.6375 26H18.3625C17.225 26 16.25 25.025 16.25 23.8875V22.75C16.25 21.775 15.6 21.125 14.625 21.125C13.65 21.125 13 21.775 13 22.75V23.8875C13 26.65 15.1125 28.925 17.875 29.25V30.875C17.875 31.85 18.525 32.5 19.5 32.5C20.475 32.5 21.125 31.85 21.125 30.875V29.25C23.8875 28.925 26 26.65 26 23.8875C26 21.6125 24.5375 19.5 22.2625 18.6875L17.7125 17.225C16.9 16.9 16.25 16.0875 16.25 15.1125C16.25 13.975 17.225 13 18.3625 13H20.6375C21.775 13 22.75 13.975 22.75 15.1125V16.25C22.75 17.225 23.4 17.875 24.375 17.875C25.35 17.875 26 17.225 26 16.25V15.1125C26 12.35 23.8875 10.075 21.125 9.75Z" fill="#0077BF"/>
</svg>
