<svg width="52" height="53" viewBox="0 0 52 53" fill="none" xmlns="http://www.w3.org/2000/svg">
<path d="M19.8241 22.2704L14.096 30.4673L6.92373 25.4552L7.6602 24.4013C9.21498 22.1764 11.921 21.1046 14.6896 21.4709L19.8241 22.2704Z" fill="#00ADEE"/>
<path d="M26.0497 38.8209L31.7778 30.624L34.2937 35.1707C35.5894 37.6447 35.5132 40.5543 33.9584 42.7791L33.222 43.833L26.0497 38.8209Z" fill="#00ADEE"/>
<path d="M36.7694 23.4809L26.0496 38.8207L14.0958 30.4672L24.8156 15.1274C26.3704 12.9025 28.7178 11.5801 31.411 11.5451L36.4388 11.2244L37.9856 16.1395C38.759 18.5971 38.3242 21.256 36.7694 23.4809Z" fill="white"/>
<path d="M28.256 22.9342C29.5763 23.8569 31.3794 23.5564 32.2833 22.263C33.1872 20.9695 32.8496 19.173 31.5292 18.2503C30.2088 17.3276 28.4057 17.6281 27.5018 18.9215C26.5979 20.215 26.9356 22.0115 28.256 22.9342Z" fill="#0077BF"/>
<path d="M13.7535 41.9048C13.9043 42.7073 14.6215 43.2085 15.427 43.0743L21.4681 42.0674C22.2735 41.9332 22.7645 41.2306 22.6137 40.428C22.4629 39.6255 21.7456 39.1243 20.9402 39.2585L16.3087 40.0305L15.4414 35.4159C15.366 35.0147 15.2088 34.7305 14.8502 34.4799C14.4915 34.2293 14.1706 34.1793 13.7679 34.2464C12.9624 34.3807 12.4715 35.0833 12.6223 35.8858L13.7535 41.9048Z" fill="#F4CD3F"/>
<path d="M35.6279 34.5345L33.4641 30.7567L37.9648 24.3164C39.6832 21.8573 40.1245 18.68 39.3575 15.7041L37.9303 10.8724C37.6976 10.187 37.0999 9.76933 36.3763 9.78649L31.2289 10.0237C28.1707 10.3265 25.4206 11.716 23.6203 14.2921L19.1196 20.7325L14.8283 19.9993C11.6193 19.4996 8.34683 20.8727 6.46474 23.566L5.72826 24.6199C5.23728 25.3224 5.38811 26.125 6.10533 26.6262C9.09377 28.7146 29.4152 42.9156 32.4036 45.0039C33.1208 45.5051 33.9263 45.3709 34.4173 44.6683L35.1538 43.6144C37.0359 40.9212 37.2003 37.3762 35.6279 34.5345ZM14.4312 22.8589L17.3194 23.3087L13.7188 28.461L8.93732 25.1196C10.1648 23.3631 12.3044 22.5927 14.4312 22.8589ZM21.0194 23.1058L26.0111 15.9628C27.2385 14.2064 29.3027 13.0346 31.4737 12.9832L35.3751 12.7468L36.4942 16.4917C37.1104 18.6651 36.8015 20.8892 35.5741 22.6457L30.5824 29.7886L25.6726 36.8145L16.1096 30.1317L21.0194 23.1058ZM28.0633 38.4852L31.6639 33.3329L33.0791 35.8904C34.0602 37.7961 34.0723 40.0702 32.8448 41.8266L28.0633 38.4852Z" fill="#0077BF"/>
</svg>
