<svg width="41" height="47" viewBox="0 0 41 47" fill="none" xmlns="http://www.w3.org/2000/svg">
<g clip-path="url(#clip0)">
<path d="M38.2596 11.5283L30.6774 42.0286C30.2982 43.5536 28.7176 44.4855 27.1649 44.0995L4.57959 38.4849C3.02685 38.0989 2.06661 36.5353 2.44573 35.0103L10.028 4.51005C10.0969 4.23278 10.1658 3.9555 10.3759 3.71332C10.934 2.6744 12.27 2.12331 13.5404 2.43913L36.1257 8.05377C37.6785 8.43977 38.6387 10.0033 38.2596 11.5283Z" fill="white"/>
<path d="M15.0179 14.5828C14.171 14.3723 13.7442 13.6774 13.951 12.8455L14.9849 8.68642C15.1917 7.8546 15.8942 7.44041 16.7412 7.65096L30.857 11.1601C31.7039 11.3707 32.1307 12.0656 31.9239 12.8974L30.89 17.0565C30.6832 17.8883 29.9807 18.3025 29.1337 18.092L15.0179 14.5828Z" fill="#F4CD3F"/>
<path d="M36.4704 6.66738L13.8851 1.05274C11.4854 0.456189 9.20235 1.80229 8.61645 4.15912L1.03418 34.6594C0.448283 37.0162 1.8353 39.2747 4.23498 39.8712L26.8203 45.4859C29.22 46.0824 31.5031 44.7363 32.089 42.3795L39.6712 11.8792C40.2571 9.52241 38.8701 7.26393 36.4704 6.66738ZM29.2658 41.6777C29.059 42.5095 28.3565 42.9237 27.5096 42.7131L4.92428 37.0985C4.07733 36.8879 3.65056 36.193 3.85735 35.3612L11.4396 4.86095C11.6464 4.02913 12.3489 3.61494 13.1958 3.82549L35.7811 9.44013C36.6281 9.65067 37.0549 10.3456 36.8481 11.1774L29.2658 41.6777Z" fill="#4DC3FA"/>
<path d="M20.008 24.6557C21.5672 25.0433 23.1398 24.1161 23.5205 22.5847C23.9012 21.0534 22.9458 19.4978 21.3866 19.1102C19.8274 18.7225 18.2549 19.6497 17.8742 21.1811C17.4935 22.7124 18.4489 24.268 20.008 24.6557Z" fill="#4DC3FA"/>
<path d="M18.2849 31.5875C19.8441 31.9751 21.4167 31.048 21.7974 29.5166C22.178 27.9853 21.2227 26.4296 19.6635 26.042C18.1043 25.6544 16.5317 26.5816 16.151 28.113C15.7703 29.6443 16.7257 31.1999 18.2849 31.5875Z" fill="#4DC3FA"/>
<path d="M16.5618 38.5194C18.1209 38.907 19.6935 37.9798 20.0742 36.4485C20.4549 34.9172 19.4995 33.3615 17.9403 32.9739C16.3812 32.5863 14.8086 33.5135 14.4279 35.0448C14.0472 36.5762 15.0026 38.1318 16.5618 38.5194Z" fill="#4DC3FA"/>
<path d="M12.9499 22.9011C14.5091 23.2887 16.0817 22.3616 16.4624 20.8302C16.8431 19.2989 15.8877 17.7432 14.3285 17.3556C12.7693 16.968 11.1968 17.8952 10.8161 19.4266C10.4354 20.9579 11.3908 22.5135 12.9499 22.9011Z" fill="#4DC3FA"/>
<path d="M11.2268 29.833C12.786 30.2206 14.3586 29.2934 14.7393 27.7621C15.1199 26.2308 14.1646 24.6751 12.6054 24.2875C11.0462 23.8999 9.47362 24.8271 9.09293 26.3584C8.71224 27.8898 9.66761 29.4454 11.2268 29.833Z" fill="#4DC3FA"/>
<path d="M9.50365 36.7649C11.0628 37.1525 12.6354 36.2253 13.0161 34.694C13.3968 33.1626 12.4414 31.607 10.8822 31.2194C9.32305 30.8318 7.75047 31.759 7.36979 33.2903C6.9891 34.8217 7.94446 36.3773 9.50365 36.7649Z" fill="#4DC3FA"/>
<path d="M27.0662 26.4103C28.6253 26.7979 30.1979 25.8707 30.5786 24.3394C30.9593 22.808 30.0039 21.2524 28.4447 20.8648C26.8856 20.4772 25.313 21.4044 24.9323 22.9357C24.5516 24.4671 25.507 26.0227 27.0662 26.4103Z" fill="#4DC3FA"/>
<path d="M25.3425 33.3422C26.9017 33.7298 28.4743 32.8026 28.855 31.2713C29.2357 29.7399 28.2803 28.1843 26.7211 27.7967C25.1619 27.4091 23.5893 28.3363 23.2087 29.8676C22.828 31.3989 23.7833 32.9546 25.3425 33.3422Z" fill="#4DC3FA"/>
<path d="M23.6194 40.2739C25.1786 40.6615 26.7511 39.7344 27.1318 38.203C27.5125 36.6717 26.5572 35.1161 24.998 34.7284C23.4388 34.3408 21.8662 35.268 21.4855 36.7994C21.1048 38.3307 22.0602 39.8863 23.6194 40.2739Z" fill="#4DC3FA"/>
<path d="M31.2017 9.77372L17.0859 6.26457C15.5331 5.87857 13.9525 6.81048 13.5734 8.33549L12.5395 12.4946C12.1603 14.0196 13.1206 15.5832 14.6733 15.9692L28.7891 19.4783C30.3419 19.8643 31.9225 18.9324 32.3016 17.4074L33.3355 13.2483C33.7146 11.7233 32.7544 10.1597 31.2017 9.77372ZM15.3626 13.1964L16.3966 9.03732L30.5124 12.5465L29.4784 16.7056L15.3626 13.1964Z" fill="#4DC3FA"/>
</g>
<defs>
<clipPath id="clip0">
<rect width="32" height="40" fill="white" transform="translate(9.65039) rotate(13.9606)"/>
</clipPath>
</defs>
</svg>
