<svg width="41" height="28" viewBox="0 0 41 28" fill="none" xmlns="http://www.w3.org/2000/svg">
<path d="M12.2417 28H3.49763C2.52607 28 1.5545 27.619 0.971564 26.8571C0.194313 26.0952 0 25.3333 0 24.381C0.777251 12.7619 6.0237 3.04762 7.5782 1.14286C8.16114 0.380952 9.1327 0 10.1043 0H17.4882C18.654 0 19.8199 0.571429 20.4028 1.52381C20.9858 2.47619 21.1801 3.80952 20.5972 4.7619C18.0711 9.71429 15.7393 21.7143 15.545 24.7619C15.545 26.4762 13.9905 28 12.2417 28ZM3.88626 24.1905H11.6588C12.0474 20.381 14.1848 9.33333 16.7109 3.80952H10.2986C9.32701 5.33333 4.66351 13.7143 3.88626 24.1905Z" fill="#F4CD3F"/>
<path d="M32.2559 28H23.5118C22.5402 28 21.5687 27.619 20.9857 26.8571C20.4028 26.0952 20.0142 25.3333 20.0142 24.381C20.7914 12.7619 26.0379 3.04762 27.5924 1.33333C28.1753 0.380952 29.1469 0 30.1184 0H37.5023C38.6682 0 39.8341 0.571429 40.417 1.52381C40.9999 2.47619 41.1943 3.80952 40.6113 4.7619C38.0853 9.52381 35.7535 21.5238 35.5592 24.5714C35.5592 26.4762 34.0047 28 32.2559 28ZM23.9004 24.1905H31.6729C32.0616 20.381 34.199 9.33333 36.7251 3.80952H30.3127C29.3412 5.33333 24.6777 13.7143 23.9004 24.1905Z" fill="#F4CD3F"/>
</svg>
