<svg width="230" height="51" viewBox="0 0 230 51" fill="none" xmlns="http://www.w3.org/2000/svg">
<path d="M70 0L74.2321 9.17508L84.2658 10.3647L76.8476 17.2249L78.8168 27.1353L70 22.2L61.1832 27.1353L63.1524 17.2249L55.7342 10.3647L65.7679 9.17508L70 0Z" fill="#F4CD3F"/>
<path d="M100 0L104.232 9.17508L114.266 10.3647L106.848 17.2249L108.817 27.1353L100 22.2L91.1832 27.1353L93.1524 17.2249L85.7342 10.3647L95.7679 9.17508L100 0Z" fill="#F4CD3F"/>
<path d="M130 0L134.232 9.17508L144.266 10.3647L136.848 17.2249L138.817 27.1353L130 22.2L121.183 27.1353L123.152 17.2249L115.734 10.3647L125.768 9.17508L130 0Z" fill="#F4CD3F"/>
<path d="M160 0L164.232 9.17508L174.266 10.3647L166.848 17.2249L168.817 27.1353L160 22.2L151.183 27.1353L153.152 17.2249L145.734 10.3647L155.768 9.17508L160 0Z" fill="#F4CD3F"/>
<path d="M190 0L194.232 9.17508L204.266 10.3647L196.848 17.2249L198.817 27.1353L190 22.2L181.183 27.1353L183.152 17.2249L175.734 10.3647L185.768 9.17508L190 0Z" fill="#F4CD3F"/>
<path d="M67.189 42.569H62.119L61.027 45H60.026L64.186 35.9H65.135L69.295 45H68.281L67.189 42.569ZM66.838 41.789L64.654 36.901L62.47 41.789H66.838ZM76.0086 38.162L72.9666 45H72.0176L68.9886 38.162H69.9506L72.5116 43.986L75.0986 38.162H76.0086ZM79.4974 38.11C80.39 38.11 81.0747 38.3353 81.5514 38.786C82.028 39.228 82.2664 39.8867 82.2664 40.762V45H81.3824V43.934C81.1744 44.2893 80.8667 44.5667 80.4594 44.766C80.0607 44.9653 79.584 45.065 79.0294 45.065C78.2667 45.065 77.66 44.883 77.2094 44.519C76.7587 44.155 76.5334 43.674 76.5334 43.076C76.5334 42.4953 76.7414 42.0273 77.1574 41.672C77.582 41.3167 78.2537 41.139 79.1724 41.139H81.3434V40.723C81.3434 40.1337 81.1787 39.6873 80.8494 39.384C80.52 39.072 80.039 38.916 79.4064 38.916C78.973 38.916 78.557 38.9897 78.1584 39.137C77.7597 39.2757 77.4174 39.4707 77.1314 39.722L76.7154 39.033C77.062 38.7383 77.478 38.513 77.9634 38.357C78.4487 38.1923 78.96 38.11 79.4974 38.11ZM79.1724 44.337C79.6924 44.337 80.1387 44.22 80.5114 43.986C80.884 43.7433 81.1614 43.3967 81.3434 42.946V41.828H79.1984C78.0284 41.828 77.4434 42.2353 77.4434 43.05C77.4434 43.4487 77.595 43.765 77.8984 43.999C78.2017 44.2243 78.6264 44.337 79.1724 44.337ZM84.7733 35.354H85.6963V45H84.7733V35.354ZM88.2645 38.162H89.1875V45H88.2645V38.162ZM88.7325 36.667C88.5419 36.667 88.3815 36.602 88.2515 36.472C88.1215 36.342 88.0565 36.186 88.0565 36.004C88.0565 35.8307 88.1215 35.679 88.2515 35.549C88.3815 35.419 88.5419 35.354 88.7325 35.354C88.9232 35.354 89.0835 35.419 89.2135 35.549C89.3435 35.6703 89.4085 35.8177 89.4085 35.991C89.4085 36.1817 89.3435 36.342 89.2135 36.472C89.0835 36.602 88.9232 36.667 88.7325 36.667ZM94.1478 38.11C95.0404 38.11 95.7251 38.3353 96.2018 38.786C96.6784 39.228 96.9168 39.8867 96.9168 40.762V45H96.0328V43.934C95.8248 44.2893 95.5171 44.5667 95.1098 44.766C94.7111 44.9653 94.2344 45.065 93.6798 45.065C92.9171 45.065 92.3104 44.883 91.8598 44.519C91.4091 44.155 91.1838 43.674 91.1838 43.076C91.1838 42.4953 91.3918 42.0273 91.8078 41.672C92.2324 41.3167 92.9041 41.139 93.8228 41.139H95.9938V40.723C95.9938 40.1337 95.8291 39.6873 95.4998 39.384C95.1704 39.072 94.6894 38.916 94.0568 38.916C93.6234 38.916 93.2074 38.9897 92.8088 39.137C92.4101 39.2757 92.0678 39.4707 91.7818 39.722L91.3658 39.033C91.7124 38.7383 92.1284 38.513 92.6138 38.357C93.0991 38.1923 93.6104 38.11 94.1478 38.11ZM93.8228 44.337C94.3428 44.337 94.7891 44.22 95.1618 43.986C95.5344 43.7433 95.8118 43.3967 95.9938 42.946V41.828H93.8488C92.6788 41.828 92.0938 42.2353 92.0938 43.05C92.0938 43.4487 92.2454 43.765 92.5488 43.999C92.8521 44.2243 93.2768 44.337 93.8228 44.337ZM102.283 45.065C101.607 45.065 101 44.9177 100.463 44.623C99.9344 44.3283 99.5184 43.9167 99.2151 43.388C98.9118 42.8507 98.7601 42.2483 98.7601 41.581C98.7601 40.9137 98.9118 40.3157 99.2151 39.787C99.5184 39.2583 99.9344 38.8467 100.463 38.552C101 38.2573 101.607 38.11 102.283 38.11C102.872 38.11 103.397 38.227 103.856 38.461C104.324 38.6863 104.692 39.02 104.961 39.462L104.272 39.93C104.047 39.592 103.761 39.3407 103.414 39.176C103.067 39.0027 102.69 38.916 102.283 38.916C101.789 38.916 101.343 39.0287 100.944 39.254C100.554 39.4707 100.246 39.7827 100.021 40.19C99.8044 40.5973 99.6961 41.061 99.6961 41.581C99.6961 42.1097 99.8044 42.5777 100.021 42.985C100.246 43.3837 100.554 43.6957 100.944 43.921C101.343 44.1377 101.789 44.246 102.283 44.246C102.69 44.246 103.067 44.1637 103.414 43.999C103.761 43.8343 104.047 43.583 104.272 43.245L104.961 43.713C104.692 44.155 104.324 44.493 103.856 44.727C103.388 44.9523 102.864 45.065 102.283 45.065ZM101.737 47.86C101.312 47.86 100.948 47.7603 100.645 47.561L100.866 47.067C101.117 47.2317 101.403 47.314 101.724 47.314C101.984 47.314 102.183 47.262 102.322 47.158C102.461 47.054 102.53 46.9023 102.53 46.703C102.53 46.521 102.461 46.3737 102.322 46.261C102.192 46.157 101.993 46.105 101.724 46.105H101.425L101.737 44.922H102.296L102.101 45.676C102.456 45.7107 102.729 45.819 102.92 46.001C103.111 46.1917 103.206 46.4343 103.206 46.729C103.206 47.0757 103.072 47.3487 102.803 47.548C102.534 47.756 102.179 47.86 101.737 47.86ZM109.166 38.11C110.059 38.11 110.744 38.3353 111.22 38.786C111.697 39.228 111.935 39.8867 111.935 40.762V45H111.051V43.934C110.843 44.2893 110.536 44.5667 110.128 44.766C109.73 44.9653 109.253 45.065 108.698 45.065C107.936 45.065 107.329 44.883 106.878 44.519C106.428 44.155 106.202 43.674 106.202 43.076C106.202 42.4953 106.41 42.0273 106.826 41.672C107.251 41.3167 107.923 41.139 108.841 41.139H111.012V40.723C111.012 40.1337 110.848 39.6873 110.518 39.384C110.189 39.072 109.708 38.916 109.075 38.916C108.642 38.916 108.226 38.9897 107.827 39.137C107.429 39.2757 107.086 39.4707 106.8 39.722L106.384 39.033C106.731 38.7383 107.147 38.513 107.632 38.357C108.118 38.1923 108.629 38.11 109.166 38.11ZM108.841 44.337C109.361 44.337 109.808 44.22 110.18 43.986C110.553 43.7433 110.83 43.3967 111.012 42.946V41.828H108.867C107.697 41.828 107.112 42.2353 107.112 43.05C107.112 43.4487 107.264 43.765 107.567 43.999C107.871 44.2243 108.295 44.337 108.841 44.337ZM110.076 37.018C109.877 37.018 109.699 36.9747 109.543 36.888C109.387 36.7927 109.218 36.6627 109.036 36.498C108.88 36.368 108.755 36.277 108.659 36.225C108.573 36.1643 108.477 36.134 108.373 36.134C108.174 36.134 108.014 36.2077 107.892 36.355C107.771 36.5023 107.706 36.706 107.697 36.966H107.138C107.156 36.5327 107.268 36.186 107.476 35.926C107.684 35.666 107.962 35.536 108.308 35.536C108.508 35.536 108.681 35.5793 108.828 35.666C108.984 35.7527 109.162 35.8827 109.361 36.056C109.5 36.1773 109.617 36.2683 109.712 36.329C109.808 36.3897 109.907 36.42 110.011 36.42C110.202 36.42 110.358 36.3507 110.479 36.212C110.601 36.0647 110.67 35.8653 110.687 35.614H111.246C111.229 36.0387 111.116 36.381 110.908 36.641C110.7 36.8923 110.423 37.018 110.076 37.018ZM117.263 45.065C116.604 45.065 116.01 44.9177 115.482 44.623C114.953 44.3197 114.537 43.9037 114.234 43.375C113.93 42.8463 113.779 42.2483 113.779 41.581C113.779 40.9137 113.93 40.3157 114.234 39.787C114.537 39.2583 114.953 38.8467 115.482 38.552C116.01 38.2573 116.604 38.11 117.263 38.11C117.921 38.11 118.515 38.2573 119.044 38.552C119.572 38.8467 119.984 39.2583 120.279 39.787C120.582 40.3157 120.734 40.9137 120.734 41.581C120.734 42.2483 120.582 42.8463 120.279 43.375C119.984 43.9037 119.572 44.3197 119.044 44.623C118.515 44.9177 117.921 45.065 117.263 45.065ZM117.263 44.246C117.748 44.246 118.181 44.1377 118.563 43.921C118.953 43.6957 119.256 43.3793 119.473 42.972C119.689 42.5647 119.798 42.101 119.798 41.581C119.798 41.061 119.689 40.5973 119.473 40.19C119.256 39.7827 118.953 39.4707 118.563 39.254C118.181 39.0287 117.748 38.916 117.263 38.916C116.777 38.916 116.34 39.0287 115.95 39.254C115.568 39.4707 115.265 39.7827 115.04 40.19C114.823 40.5973 114.715 41.061 114.715 41.581C114.715 42.101 114.823 42.5647 115.04 42.972C115.265 43.3793 115.568 43.6957 115.95 43.921C116.34 44.1377 116.777 44.246 117.263 44.246ZM132.26 35.354V45H131.376V43.648C131.099 44.1073 130.731 44.4583 130.271 44.701C129.821 44.9437 129.309 45.065 128.737 45.065C128.096 45.065 127.515 44.9177 126.995 44.623C126.475 44.3283 126.068 43.9167 125.773 43.388C125.479 42.8593 125.331 42.257 125.331 41.581C125.331 40.905 125.479 40.3027 125.773 39.774C126.068 39.2453 126.475 38.838 126.995 38.552C127.515 38.2573 128.096 38.11 128.737 38.11C129.292 38.11 129.79 38.227 130.232 38.461C130.683 38.6863 131.051 39.02 131.337 39.462V35.354H132.26ZM128.815 44.246C129.292 44.246 129.721 44.1377 130.102 43.921C130.492 43.6957 130.796 43.3793 131.012 42.972C131.238 42.5647 131.35 42.101 131.35 41.581C131.35 41.061 131.238 40.5973 131.012 40.19C130.796 39.7827 130.492 39.4707 130.102 39.254C129.721 39.0287 129.292 38.916 128.815 38.916C128.33 38.916 127.892 39.0287 127.502 39.254C127.121 39.4707 126.818 39.7827 126.592 40.19C126.376 40.5973 126.267 41.061 126.267 41.581C126.267 42.101 126.376 42.5647 126.592 42.972C126.818 43.3793 127.121 43.6957 127.502 43.921C127.892 44.1377 128.33 44.246 128.815 44.246ZM140.785 41.867H135.065C135.117 42.5777 135.39 43.154 135.884 43.596C136.378 44.0293 137.002 44.246 137.756 44.246C138.181 44.246 138.571 44.1723 138.926 44.025C139.281 43.869 139.589 43.6437 139.849 43.349L140.369 43.947C140.066 44.311 139.684 44.5883 139.225 44.779C138.774 44.9697 138.276 45.065 137.73 45.065C137.028 45.065 136.404 44.9177 135.858 44.623C135.321 44.3197 134.9 43.9037 134.597 43.375C134.294 42.8463 134.142 42.2483 134.142 41.581C134.142 40.9137 134.285 40.3157 134.571 39.787C134.866 39.2583 135.264 38.8467 135.767 38.552C136.278 38.2573 136.85 38.11 137.483 38.11C138.116 38.11 138.683 38.2573 139.186 38.552C139.689 38.8467 140.083 39.2583 140.369 39.787C140.655 40.307 140.798 40.905 140.798 41.581L140.785 41.867ZM137.483 38.903C136.824 38.903 136.27 39.1153 135.819 39.54C135.377 39.956 135.126 40.502 135.065 41.178H139.914C139.853 40.502 139.598 39.956 139.147 39.54C138.705 39.1153 138.15 38.903 137.483 38.903ZM149.602 38.11C150.243 38.11 150.824 38.2573 151.344 38.552C151.864 38.838 152.271 39.2453 152.566 39.774C152.861 40.3027 153.008 40.905 153.008 41.581C153.008 42.2657 152.861 42.8723 152.566 43.401C152.271 43.9297 151.864 44.3413 151.344 44.636C150.833 44.922 150.252 45.065 149.602 45.065C149.047 45.065 148.545 44.9523 148.094 44.727C147.652 44.493 147.288 44.155 147.002 43.713V47.522H146.079V38.162H146.963V39.514C147.24 39.0633 147.604 38.7167 148.055 38.474C148.514 38.2313 149.03 38.11 149.602 38.11ZM149.537 44.246C150.014 44.246 150.447 44.1377 150.837 43.921C151.227 43.6957 151.53 43.3793 151.747 42.972C151.972 42.5647 152.085 42.101 152.085 41.581C152.085 41.061 151.972 40.6017 151.747 40.203C151.53 39.7957 151.227 39.4793 150.837 39.254C150.447 39.0287 150.014 38.916 149.537 38.916C149.052 38.916 148.614 39.0287 148.224 39.254C147.843 39.4793 147.539 39.7957 147.314 40.203C147.097 40.6017 146.989 41.061 146.989 41.581C146.989 42.101 147.097 42.5647 147.314 42.972C147.539 43.3793 147.843 43.6957 148.224 43.921C148.614 44.1377 149.052 44.246 149.537 44.246ZM160.844 41.867H155.124C155.176 42.5777 155.449 43.154 155.943 43.596C156.437 44.0293 157.061 44.246 157.815 44.246C158.239 44.246 158.629 44.1723 158.985 44.025C159.34 43.869 159.648 43.6437 159.908 43.349L160.428 43.947C160.124 44.311 159.743 44.5883 159.284 44.779C158.833 44.9697 158.335 45.065 157.789 45.065C157.087 45.065 156.463 44.9177 155.917 44.623C155.379 44.3197 154.959 43.9037 154.656 43.375C154.352 42.8463 154.201 42.2483 154.201 41.581C154.201 40.9137 154.344 40.3157 154.63 39.787C154.924 39.2583 155.323 38.8467 155.826 38.552C156.337 38.2573 156.909 38.11 157.542 38.11C158.174 38.11 158.742 38.2573 159.245 38.552C159.747 38.8467 160.142 39.2583 160.428 39.787C160.714 40.307 160.857 40.905 160.857 41.581L160.844 41.867ZM157.542 38.903C156.883 38.903 156.328 39.1153 155.878 39.54C155.436 39.956 155.184 40.502 155.124 41.178H159.973C159.912 40.502 159.656 39.956 159.206 39.54C158.764 39.1153 158.209 38.903 157.542 38.903ZM164.568 45.065C164.014 45.065 163.481 44.987 162.969 44.831C162.467 44.6663 162.072 44.4627 161.786 44.22L162.202 43.492C162.488 43.7173 162.848 43.9037 163.281 44.051C163.715 44.1897 164.165 44.259 164.633 44.259C165.257 44.259 165.717 44.1637 166.011 43.973C166.315 43.7737 166.466 43.4963 166.466 43.141C166.466 42.8897 166.384 42.6947 166.219 42.556C166.055 42.4087 165.847 42.3003 165.595 42.231C165.344 42.153 165.01 42.0793 164.594 42.01C164.04 41.906 163.593 41.802 163.255 41.698C162.917 41.5853 162.627 41.399 162.384 41.139C162.15 40.879 162.033 40.5193 162.033 40.06C162.033 39.488 162.272 39.02 162.748 38.656C163.225 38.292 163.888 38.11 164.737 38.11C165.179 38.11 165.621 38.1707 166.063 38.292C166.505 38.4047 166.869 38.5563 167.155 38.747L166.752 39.488C166.189 39.098 165.517 38.903 164.737 38.903C164.148 38.903 163.702 39.007 163.398 39.215C163.104 39.423 162.956 39.696 162.956 40.034C162.956 40.294 163.039 40.502 163.203 40.658C163.377 40.814 163.589 40.931 163.84 41.009C164.092 41.0783 164.438 41.152 164.88 41.23C165.426 41.334 165.864 41.438 166.193 41.542C166.523 41.646 166.804 41.8237 167.038 42.075C167.272 42.3263 167.389 42.673 167.389 43.115C167.389 43.713 167.138 44.1897 166.635 44.545C166.141 44.8917 165.452 45.065 164.568 45.065ZM170.929 45.065C170.374 45.065 169.841 44.987 169.33 44.831C168.827 44.6663 168.433 44.4627 168.147 44.22L168.563 43.492C168.849 43.7173 169.208 43.9037 169.642 44.051C170.075 44.1897 170.526 44.259 170.994 44.259C171.618 44.259 172.077 44.1637 172.372 43.973C172.675 43.7737 172.827 43.4963 172.827 43.141C172.827 42.8897 172.744 42.6947 172.58 42.556C172.415 42.4087 172.207 42.3003 171.956 42.231C171.704 42.153 171.371 42.0793 170.955 42.01C170.4 41.906 169.954 41.802 169.616 41.698C169.278 41.5853 168.987 41.399 168.745 41.139C168.511 40.879 168.394 40.5193 168.394 40.06C168.394 39.488 168.632 39.02 169.109 38.656C169.585 38.292 170.248 38.11 171.098 38.11C171.54 38.11 171.982 38.1707 172.424 38.292C172.866 38.4047 173.23 38.5563 173.516 38.747L173.113 39.488C172.549 39.098 171.878 38.903 171.098 38.903C170.508 38.903 170.062 39.007 169.759 39.215C169.464 39.423 169.317 39.696 169.317 40.034C169.317 40.294 169.399 40.502 169.564 40.658C169.737 40.814 169.949 40.931 170.201 41.009C170.452 41.0783 170.799 41.152 171.241 41.23C171.787 41.334 172.224 41.438 172.554 41.542C172.883 41.646 173.165 41.8237 173.399 42.075C173.633 42.3263 173.75 42.673 173.75 43.115C173.75 43.713 173.498 44.1897 172.996 44.545C172.502 44.8917 171.813 45.065 170.929 45.065ZM178.251 45.065C177.592 45.065 176.999 44.9177 176.47 44.623C175.941 44.3197 175.525 43.9037 175.222 43.375C174.919 42.8463 174.767 42.2483 174.767 41.581C174.767 40.9137 174.919 40.3157 175.222 39.787C175.525 39.2583 175.941 38.8467 176.47 38.552C176.999 38.2573 177.592 38.11 178.251 38.11C178.91 38.11 179.503 38.2573 180.032 38.552C180.561 38.8467 180.972 39.2583 181.267 39.787C181.57 40.3157 181.722 40.9137 181.722 41.581C181.722 42.2483 181.57 42.8463 181.267 43.375C180.972 43.9037 180.561 44.3197 180.032 44.623C179.503 44.9177 178.91 45.065 178.251 45.065ZM178.251 44.246C178.736 44.246 179.17 44.1377 179.551 43.921C179.941 43.6957 180.244 43.3793 180.461 42.972C180.678 42.5647 180.786 42.101 180.786 41.581C180.786 41.061 180.678 40.5973 180.461 40.19C180.244 39.7827 179.941 39.4707 179.551 39.254C179.17 39.0287 178.736 38.916 178.251 38.916C177.766 38.916 177.328 39.0287 176.938 39.254C176.557 39.4707 176.253 39.7827 176.028 40.19C175.811 40.5973 175.703 41.061 175.703 41.581C175.703 42.101 175.811 42.5647 176.028 42.972C176.253 43.3793 176.557 43.6957 176.938 43.921C177.328 44.1377 177.766 44.246 178.251 44.246ZM185.96 38.11C186.853 38.11 187.538 38.3353 188.014 38.786C188.491 39.228 188.729 39.8867 188.729 40.762V45H187.845V43.934C187.637 44.2893 187.33 44.5667 186.922 44.766C186.524 44.9653 186.047 45.065 185.492 45.065C184.73 45.065 184.123 44.883 183.672 44.519C183.222 44.155 182.996 43.674 182.996 43.076C182.996 42.4953 183.204 42.0273 183.62 41.672C184.045 41.3167 184.717 41.139 185.635 41.139H187.806V40.723C187.806 40.1337 187.642 39.6873 187.312 39.384C186.983 39.072 186.502 38.916 185.869 38.916C185.436 38.916 185.02 38.9897 184.621 39.137C184.223 39.2757 183.88 39.4707 183.594 39.722L183.178 39.033C183.525 38.7383 183.941 38.513 184.426 38.357C184.912 38.1923 185.423 38.11 185.96 38.11ZM185.635 44.337C186.155 44.337 186.602 44.22 186.974 43.986C187.347 43.7433 187.624 43.3967 187.806 42.946V41.828H185.661C184.491 41.828 183.906 42.2353 183.906 43.05C183.906 43.4487 184.058 43.765 184.361 43.999C184.665 44.2243 185.089 44.337 185.635 44.337ZM193.069 45.065C192.515 45.065 191.982 44.987 191.47 44.831C190.968 44.6663 190.573 44.4627 190.287 44.22L190.703 43.492C190.989 43.7173 191.349 43.9037 191.782 44.051C192.216 44.1897 192.666 44.259 193.134 44.259C193.758 44.259 194.218 44.1637 194.512 43.973C194.816 43.7737 194.967 43.4963 194.967 43.141C194.967 42.8897 194.885 42.6947 194.72 42.556C194.556 42.4087 194.348 42.3003 194.096 42.231C193.845 42.153 193.511 42.0793 193.095 42.01C192.541 41.906 192.094 41.802 191.756 41.698C191.418 41.5853 191.128 41.399 190.885 41.139C190.651 40.879 190.534 40.5193 190.534 40.06C190.534 39.488 190.773 39.02 191.249 38.656C191.726 38.292 192.389 38.11 193.238 38.11C193.68 38.11 194.122 38.1707 194.564 38.292C195.006 38.4047 195.37 38.5563 195.656 38.747L195.253 39.488C194.69 39.098 194.018 38.903 193.238 38.903C192.649 38.903 192.203 39.007 191.899 39.215C191.605 39.423 191.457 39.696 191.457 40.034C191.457 40.294 191.54 40.502 191.704 40.658C191.878 40.814 192.09 40.931 192.341 41.009C192.593 41.0783 192.939 41.152 193.381 41.23C193.927 41.334 194.365 41.438 194.694 41.542C195.024 41.646 195.305 41.8237 195.539 42.075C195.773 42.3263 195.89 42.673 195.89 43.115C195.89 43.713 195.639 44.1897 195.136 44.545C194.642 44.8917 193.953 45.065 193.069 45.065ZM201.883 39.501C202.1 39.0417 202.42 38.695 202.845 38.461C203.278 38.227 203.811 38.11 204.444 38.11V39.007L204.223 38.994C203.504 38.994 202.94 39.215 202.533 39.657C202.126 40.099 201.922 40.7187 201.922 41.516V45H200.999V38.162H201.883V39.501ZM212.006 41.867H206.286C206.338 42.5777 206.611 43.154 207.105 43.596C207.599 44.0293 208.223 44.246 208.977 44.246C209.401 44.246 209.791 44.1723 210.147 44.025C210.502 43.869 210.81 43.6437 211.07 43.349L211.59 43.947C211.286 44.311 210.905 44.5883 210.446 44.779C209.995 44.9697 209.497 45.065 208.951 45.065C208.249 45.065 207.625 44.9177 207.079 44.623C206.541 44.3197 206.121 43.9037 205.818 43.375C205.514 42.8463 205.363 42.2483 205.363 41.581C205.363 40.9137 205.506 40.3157 205.792 39.787C206.086 39.2583 206.485 38.8467 206.988 38.552C207.499 38.2573 208.071 38.11 208.704 38.11C209.336 38.11 209.904 38.2573 210.407 38.552C210.909 38.8467 211.304 39.2583 211.59 39.787C211.876 40.307 212.019 40.905 212.019 41.581L212.006 41.867ZM208.704 38.903C208.045 38.903 207.49 39.1153 207.04 39.54C206.598 39.956 206.346 40.502 206.286 41.178H211.135C211.074 40.502 210.818 39.956 210.368 39.54C209.926 39.1153 209.371 38.903 208.704 38.903ZM216.099 38.11C216.992 38.11 217.676 38.3353 218.153 38.786C218.63 39.228 218.868 39.8867 218.868 40.762V45H217.984V43.934C217.776 44.2893 217.468 44.5667 217.061 44.766C216.662 44.9653 216.186 45.065 215.631 45.065C214.868 45.065 214.262 44.883 213.811 44.519C213.36 44.155 213.135 43.674 213.135 43.076C213.135 42.4953 213.343 42.0273 213.759 41.672C214.184 41.3167 214.855 41.139 215.774 41.139H217.945V40.723C217.945 40.1337 217.78 39.6873 217.451 39.384C217.122 39.072 216.641 38.916 216.008 38.916C215.575 38.916 215.159 38.9897 214.76 39.137C214.361 39.2757 214.019 39.4707 213.733 39.722L213.317 39.033C213.664 38.7383 214.08 38.513 214.565 38.357C215.05 38.1923 215.562 38.11 216.099 38.11ZM215.774 44.337C216.294 44.337 216.74 44.22 217.113 43.986C217.486 43.7433 217.763 43.3967 217.945 42.946V41.828H215.8C214.63 41.828 214.045 42.2353 214.045 43.05C214.045 43.4487 214.197 43.765 214.5 43.999C214.803 44.2243 215.228 44.337 215.774 44.337ZM221.375 38.162H222.298V45H221.375V38.162ZM221.843 36.667C221.652 36.667 221.492 36.602 221.362 36.472C221.232 36.342 221.167 36.186 221.167 36.004C221.167 35.8307 221.232 35.679 221.362 35.549C221.492 35.419 221.652 35.354 221.843 35.354C222.034 35.354 222.194 35.419 222.324 35.549C222.454 35.6703 222.519 35.8177 222.519 35.991C222.519 36.1817 222.454 36.342 222.324 36.472C222.194 36.602 222.034 36.667 221.843 36.667ZM226.699 45.065C226.144 45.065 225.611 44.987 225.1 44.831C224.597 44.6663 224.203 44.4627 223.917 44.22L224.333 43.492C224.619 43.7173 224.979 43.9037 225.412 44.051C225.845 44.1897 226.296 44.259 226.764 44.259C227.388 44.259 227.847 44.1637 228.142 43.973C228.445 43.7737 228.597 43.4963 228.597 43.141C228.597 42.8897 228.515 42.6947 228.35 42.556C228.185 42.4087 227.977 42.3003 227.726 42.231C227.475 42.153 227.141 42.0793 226.725 42.01C226.17 41.906 225.724 41.802 225.386 41.698C225.048 41.5853 224.758 41.399 224.515 41.139C224.281 40.879 224.164 40.5193 224.164 40.06C224.164 39.488 224.402 39.02 224.879 38.656C225.356 38.292 226.019 38.11 226.868 38.11C227.31 38.11 227.752 38.1707 228.194 38.292C228.636 38.4047 229 38.5563 229.286 38.747L228.883 39.488C228.32 39.098 227.648 38.903 226.868 38.903C226.279 38.903 225.832 39.007 225.529 39.215C225.234 39.423 225.087 39.696 225.087 40.034C225.087 40.294 225.169 40.502 225.334 40.658C225.507 40.814 225.72 40.931 225.971 41.009C226.222 41.0783 226.569 41.152 227.011 41.23C227.557 41.334 227.995 41.438 228.324 41.542C228.653 41.646 228.935 41.8237 229.169 42.075C229.403 42.3263 229.52 42.673 229.52 43.115C229.52 43.713 229.269 44.1897 228.766 44.545C228.272 44.8917 227.583 45.065 226.699 45.065Z" fill="white"/>
<path d="M42.5127 0H2.47852C1.10742 0 0 1.11621 0 2.4873V42.5215C0 43.8926 1.11621 45 2.4873 45H24.0381V27.5977H18.1934V20.7861H24.0381V15.7764C24.0381 9.9668 27.5889 6.80273 32.7744 6.80273C35.2617 6.80273 37.3887 6.9873 38.0127 7.06641V13.1396H34.4355C31.6143 13.1396 31.0693 14.4844 31.0693 16.4443V20.7861H37.8193L36.9404 27.5977H31.0693V45H42.5127C43.8838 45 45 43.8926 45 42.5127V2.47852C45 1.10742 43.8838 0 42.5127 0Z" fill="white"/>
</svg>
