<svg width="227" height="51" viewBox="0 0 227 51" fill="none" xmlns="http://www.w3.org/2000/svg">
<path d="M67 0L71.2321 9.17508L81.2658 10.3647L73.8476 17.2249L75.8168 27.1353L67 22.2L58.1832 27.1353L60.1524 17.2249L52.7342 10.3647L62.7679 9.17508L67 0Z" fill="#F4CD3F"/>
<path d="M97 0L101.232 9.17508L111.266 10.3647L103.848 17.2249L105.817 27.1353L97 22.2L88.1832 27.1353L90.1524 17.2249L82.7342 10.3647L92.7679 9.17508L97 0Z" fill="#F4CD3F"/>
<path d="M127 0L131.232 9.17508L141.266 10.3647L133.848 17.2249L135.817 27.1353L127 22.2L118.183 27.1353L120.152 17.2249L112.734 10.3647L122.768 9.17508L127 0Z" fill="#F4CD3F"/>
<path d="M157 0L161.232 9.17508L171.266 10.3647L163.848 17.2249L165.817 27.1353L157 22.2L148.183 27.1353L150.152 17.2249L142.734 10.3647L152.768 9.17508L157 0Z" fill="#F4CD3F"/>
<path d="M187 0L191.232 9.17508L201.266 10.3647L193.848 17.2249L195.817 27.1353L187 22.2L178.183 27.1353L180.152 17.2249L172.734 10.3647L182.768 9.17508L187 0Z" fill="#F4CD3F"/>
<path d="M64.189 42.569H59.119L58.027 45H57.026L61.186 35.9H62.135L66.295 45H65.281L64.189 42.569ZM63.838 41.789L61.654 36.901L59.47 41.789H63.838ZM73.0086 38.162L69.9666 45H69.0176L65.9886 38.162H66.9506L69.5116 43.986L72.0986 38.162H73.0086ZM76.4974 38.11C77.39 38.11 78.0747 38.3353 78.5514 38.786C79.028 39.228 79.2664 39.8867 79.2664 40.762V45H78.3824V43.934C78.1744 44.2893 77.8667 44.5667 77.4594 44.766C77.0607 44.9653 76.584 45.065 76.0294 45.065C75.2667 45.065 74.66 44.883 74.2094 44.519C73.7587 44.155 73.5334 43.674 73.5334 43.076C73.5334 42.4953 73.7414 42.0273 74.1574 41.672C74.582 41.3167 75.2537 41.139 76.1724 41.139H78.3434V40.723C78.3434 40.1337 78.1787 39.6873 77.8494 39.384C77.52 39.072 77.039 38.916 76.4064 38.916C75.973 38.916 75.557 38.9897 75.1584 39.137C74.7597 39.2757 74.4174 39.4707 74.1314 39.722L73.7154 39.033C74.062 38.7383 74.478 38.513 74.9634 38.357C75.4487 38.1923 75.96 38.11 76.4974 38.11ZM76.1724 44.337C76.6924 44.337 77.1387 44.22 77.5114 43.986C77.884 43.7433 78.1614 43.3967 78.3434 42.946V41.828H76.1984C75.0284 41.828 74.4434 42.2353 74.4434 43.05C74.4434 43.4487 74.595 43.765 74.8984 43.999C75.2017 44.2243 75.6264 44.337 76.1724 44.337ZM81.7733 35.354H82.6963V45H81.7733V35.354ZM85.2645 38.162H86.1875V45H85.2645V38.162ZM85.7325 36.667C85.5419 36.667 85.3815 36.602 85.2515 36.472C85.1215 36.342 85.0565 36.186 85.0565 36.004C85.0565 35.8307 85.1215 35.679 85.2515 35.549C85.3815 35.419 85.5419 35.354 85.7325 35.354C85.9232 35.354 86.0835 35.419 86.2135 35.549C86.3435 35.6703 86.4085 35.8177 86.4085 35.991C86.4085 36.1817 86.3435 36.342 86.2135 36.472C86.0835 36.602 85.9232 36.667 85.7325 36.667ZM91.1478 38.11C92.0404 38.11 92.7251 38.3353 93.2018 38.786C93.6784 39.228 93.9168 39.8867 93.9168 40.762V45H93.0328V43.934C92.8248 44.2893 92.5171 44.5667 92.1098 44.766C91.7111 44.9653 91.2344 45.065 90.6798 45.065C89.9171 45.065 89.3104 44.883 88.8598 44.519C88.4091 44.155 88.1838 43.674 88.1838 43.076C88.1838 42.4953 88.3918 42.0273 88.8078 41.672C89.2324 41.3167 89.9041 41.139 90.8228 41.139H92.9938V40.723C92.9938 40.1337 92.8291 39.6873 92.4998 39.384C92.1704 39.072 91.6894 38.916 91.0568 38.916C90.6234 38.916 90.2074 38.9897 89.8088 39.137C89.4101 39.2757 89.0678 39.4707 88.7818 39.722L88.3658 39.033C88.7124 38.7383 89.1284 38.513 89.6138 38.357C90.0991 38.1923 90.6104 38.11 91.1478 38.11ZM90.8228 44.337C91.3428 44.337 91.7891 44.22 92.1618 43.986C92.5344 43.7433 92.8118 43.3967 92.9938 42.946V41.828H90.8488C89.6788 41.828 89.0938 42.2353 89.0938 43.05C89.0938 43.4487 89.2454 43.765 89.5488 43.999C89.8521 44.2243 90.2768 44.337 90.8228 44.337ZM99.2831 45.065C98.6071 45.065 98.0004 44.9177 97.4631 44.623C96.9344 44.3283 96.5184 43.9167 96.2151 43.388C95.9118 42.8507 95.7601 42.2483 95.7601 41.581C95.7601 40.9137 95.9118 40.3157 96.2151 39.787C96.5184 39.2583 96.9344 38.8467 97.4631 38.552C98.0004 38.2573 98.6071 38.11 99.2831 38.11C99.8724 38.11 100.397 38.227 100.856 38.461C101.324 38.6863 101.692 39.02 101.961 39.462L101.272 39.93C101.047 39.592 100.761 39.3407 100.414 39.176C100.067 39.0027 99.6904 38.916 99.2831 38.916C98.7891 38.916 98.3428 39.0287 97.9441 39.254C97.5541 39.4707 97.2464 39.7827 97.0211 40.19C96.8044 40.5973 96.6961 41.061 96.6961 41.581C96.6961 42.1097 96.8044 42.5777 97.0211 42.985C97.2464 43.3837 97.5541 43.6957 97.9441 43.921C98.3428 44.1377 98.7891 44.246 99.2831 44.246C99.6904 44.246 100.067 44.1637 100.414 43.999C100.761 43.8343 101.047 43.583 101.272 43.245L101.961 43.713C101.692 44.155 101.324 44.493 100.856 44.727C100.388 44.9523 99.8638 45.065 99.2831 45.065ZM98.7371 47.86C98.3124 47.86 97.9484 47.7603 97.6451 47.561L97.8661 47.067C98.1174 47.2317 98.4034 47.314 98.7241 47.314C98.9841 47.314 99.1834 47.262 99.3221 47.158C99.4608 47.054 99.5301 46.9023 99.5301 46.703C99.5301 46.521 99.4608 46.3737 99.3221 46.261C99.1921 46.157 98.9928 46.105 98.7241 46.105H98.4251L98.7371 44.922H99.2961L99.1011 45.676C99.4564 45.7107 99.7294 45.819 99.9201 46.001C100.111 46.1917 100.206 46.4343 100.206 46.729C100.206 47.0757 100.072 47.3487 99.8031 47.548C99.5344 47.756 99.1791 47.86 98.7371 47.86ZM106.166 38.11C107.059 38.11 107.744 38.3353 108.22 38.786C108.697 39.228 108.935 39.8867 108.935 40.762V45H108.051V43.934C107.843 44.2893 107.536 44.5667 107.128 44.766C106.73 44.9653 106.253 45.065 105.698 45.065C104.936 45.065 104.329 44.883 103.878 44.519C103.428 44.155 103.202 43.674 103.202 43.076C103.202 42.4953 103.41 42.0273 103.826 41.672C104.251 41.3167 104.923 41.139 105.841 41.139H108.012V40.723C108.012 40.1337 107.848 39.6873 107.518 39.384C107.189 39.072 106.708 38.916 106.075 38.916C105.642 38.916 105.226 38.9897 104.827 39.137C104.429 39.2757 104.086 39.4707 103.8 39.722L103.384 39.033C103.731 38.7383 104.147 38.513 104.632 38.357C105.118 38.1923 105.629 38.11 106.166 38.11ZM105.841 44.337C106.361 44.337 106.808 44.22 107.18 43.986C107.553 43.7433 107.83 43.3967 108.012 42.946V41.828H105.867C104.697 41.828 104.112 42.2353 104.112 43.05C104.112 43.4487 104.264 43.765 104.567 43.999C104.871 44.2243 105.295 44.337 105.841 44.337ZM107.076 37.018C106.877 37.018 106.699 36.9747 106.543 36.888C106.387 36.7927 106.218 36.6627 106.036 36.498C105.88 36.368 105.755 36.277 105.659 36.225C105.573 36.1643 105.477 36.134 105.373 36.134C105.174 36.134 105.014 36.2077 104.892 36.355C104.771 36.5023 104.706 36.706 104.697 36.966H104.138C104.156 36.5327 104.268 36.186 104.476 35.926C104.684 35.666 104.962 35.536 105.308 35.536C105.508 35.536 105.681 35.5793 105.828 35.666C105.984 35.7527 106.162 35.8827 106.361 36.056C106.5 36.1773 106.617 36.2683 106.712 36.329C106.808 36.3897 106.907 36.42 107.011 36.42C107.202 36.42 107.358 36.3507 107.479 36.212C107.601 36.0647 107.67 35.8653 107.687 35.614H108.246C108.229 36.0387 108.116 36.381 107.908 36.641C107.7 36.8923 107.423 37.018 107.076 37.018ZM114.263 45.065C113.604 45.065 113.01 44.9177 112.482 44.623C111.953 44.3197 111.537 43.9037 111.234 43.375C110.93 42.8463 110.779 42.2483 110.779 41.581C110.779 40.9137 110.93 40.3157 111.234 39.787C111.537 39.2583 111.953 38.8467 112.482 38.552C113.01 38.2573 113.604 38.11 114.263 38.11C114.921 38.11 115.515 38.2573 116.044 38.552C116.572 38.8467 116.984 39.2583 117.279 39.787C117.582 40.3157 117.734 40.9137 117.734 41.581C117.734 42.2483 117.582 42.8463 117.279 43.375C116.984 43.9037 116.572 44.3197 116.044 44.623C115.515 44.9177 114.921 45.065 114.263 45.065ZM114.263 44.246C114.748 44.246 115.181 44.1377 115.563 43.921C115.953 43.6957 116.256 43.3793 116.473 42.972C116.689 42.5647 116.798 42.101 116.798 41.581C116.798 41.061 116.689 40.5973 116.473 40.19C116.256 39.7827 115.953 39.4707 115.563 39.254C115.181 39.0287 114.748 38.916 114.263 38.916C113.777 38.916 113.34 39.0287 112.95 39.254C112.568 39.4707 112.265 39.7827 112.04 40.19C111.823 40.5973 111.715 41.061 111.715 41.581C111.715 42.101 111.823 42.5647 112.04 42.972C112.265 43.3793 112.568 43.6957 112.95 43.921C113.34 44.1377 113.777 44.246 114.263 44.246ZM129.26 35.354V45H128.376V43.648C128.099 44.1073 127.731 44.4583 127.271 44.701C126.821 44.9437 126.309 45.065 125.737 45.065C125.096 45.065 124.515 44.9177 123.995 44.623C123.475 44.3283 123.068 43.9167 122.773 43.388C122.479 42.8593 122.331 42.257 122.331 41.581C122.331 40.905 122.479 40.3027 122.773 39.774C123.068 39.2453 123.475 38.838 123.995 38.552C124.515 38.2573 125.096 38.11 125.737 38.11C126.292 38.11 126.79 38.227 127.232 38.461C127.683 38.6863 128.051 39.02 128.337 39.462V35.354H129.26ZM125.815 44.246C126.292 44.246 126.721 44.1377 127.102 43.921C127.492 43.6957 127.796 43.3793 128.012 42.972C128.238 42.5647 128.35 42.101 128.35 41.581C128.35 41.061 128.238 40.5973 128.012 40.19C127.796 39.7827 127.492 39.4707 127.102 39.254C126.721 39.0287 126.292 38.916 125.815 38.916C125.33 38.916 124.892 39.0287 124.502 39.254C124.121 39.4707 123.818 39.7827 123.592 40.19C123.376 40.5973 123.267 41.061 123.267 41.581C123.267 42.101 123.376 42.5647 123.592 42.972C123.818 43.3793 124.121 43.6957 124.502 43.921C124.892 44.1377 125.33 44.246 125.815 44.246ZM137.785 41.867H132.065C132.117 42.5777 132.39 43.154 132.884 43.596C133.378 44.0293 134.002 44.246 134.756 44.246C135.181 44.246 135.571 44.1723 135.926 44.025C136.281 43.869 136.589 43.6437 136.849 43.349L137.369 43.947C137.066 44.311 136.684 44.5883 136.225 44.779C135.774 44.9697 135.276 45.065 134.73 45.065C134.028 45.065 133.404 44.9177 132.858 44.623C132.321 44.3197 131.9 43.9037 131.597 43.375C131.294 42.8463 131.142 42.2483 131.142 41.581C131.142 40.9137 131.285 40.3157 131.571 39.787C131.866 39.2583 132.264 38.8467 132.767 38.552C133.278 38.2573 133.85 38.11 134.483 38.11C135.116 38.11 135.683 38.2573 136.186 38.552C136.689 38.8467 137.083 39.2583 137.369 39.787C137.655 40.307 137.798 40.905 137.798 41.581L137.785 41.867ZM134.483 38.903C133.824 38.903 133.27 39.1153 132.819 39.54C132.377 39.956 132.126 40.502 132.065 41.178H136.914C136.853 40.502 136.598 39.956 136.147 39.54C135.705 39.1153 135.15 38.903 134.483 38.903ZM146.602 38.11C147.243 38.11 147.824 38.2573 148.344 38.552C148.864 38.838 149.271 39.2453 149.566 39.774C149.861 40.3027 150.008 40.905 150.008 41.581C150.008 42.2657 149.861 42.8723 149.566 43.401C149.271 43.9297 148.864 44.3413 148.344 44.636C147.833 44.922 147.252 45.065 146.602 45.065C146.047 45.065 145.545 44.9523 145.094 44.727C144.652 44.493 144.288 44.155 144.002 43.713V47.522H143.079V38.162H143.963V39.514C144.24 39.0633 144.604 38.7167 145.055 38.474C145.514 38.2313 146.03 38.11 146.602 38.11ZM146.537 44.246C147.014 44.246 147.447 44.1377 147.837 43.921C148.227 43.6957 148.53 43.3793 148.747 42.972C148.972 42.5647 149.085 42.101 149.085 41.581C149.085 41.061 148.972 40.6017 148.747 40.203C148.53 39.7957 148.227 39.4793 147.837 39.254C147.447 39.0287 147.014 38.916 146.537 38.916C146.052 38.916 145.614 39.0287 145.224 39.254C144.843 39.4793 144.539 39.7957 144.314 40.203C144.097 40.6017 143.989 41.061 143.989 41.581C143.989 42.101 144.097 42.5647 144.314 42.972C144.539 43.3793 144.843 43.6957 145.224 43.921C145.614 44.1377 146.052 44.246 146.537 44.246ZM157.844 41.867H152.124C152.176 42.5777 152.449 43.154 152.943 43.596C153.437 44.0293 154.061 44.246 154.815 44.246C155.239 44.246 155.629 44.1723 155.985 44.025C156.34 43.869 156.648 43.6437 156.908 43.349L157.428 43.947C157.124 44.311 156.743 44.5883 156.284 44.779C155.833 44.9697 155.335 45.065 154.789 45.065C154.087 45.065 153.463 44.9177 152.917 44.623C152.379 44.3197 151.959 43.9037 151.656 43.375C151.352 42.8463 151.201 42.2483 151.201 41.581C151.201 40.9137 151.344 40.3157 151.63 39.787C151.924 39.2583 152.323 38.8467 152.826 38.552C153.337 38.2573 153.909 38.11 154.542 38.11C155.174 38.11 155.742 38.2573 156.245 38.552C156.747 38.8467 157.142 39.2583 157.428 39.787C157.714 40.307 157.857 40.905 157.857 41.581L157.844 41.867ZM154.542 38.903C153.883 38.903 153.328 39.1153 152.878 39.54C152.436 39.956 152.184 40.502 152.124 41.178H156.973C156.912 40.502 156.656 39.956 156.206 39.54C155.764 39.1153 155.209 38.903 154.542 38.903ZM161.568 45.065C161.014 45.065 160.481 44.987 159.969 44.831C159.467 44.6663 159.072 44.4627 158.786 44.22L159.202 43.492C159.488 43.7173 159.848 43.9037 160.281 44.051C160.715 44.1897 161.165 44.259 161.633 44.259C162.257 44.259 162.717 44.1637 163.011 43.973C163.315 43.7737 163.466 43.4963 163.466 43.141C163.466 42.8897 163.384 42.6947 163.219 42.556C163.055 42.4087 162.847 42.3003 162.595 42.231C162.344 42.153 162.01 42.0793 161.594 42.01C161.04 41.906 160.593 41.802 160.255 41.698C159.917 41.5853 159.627 41.399 159.384 41.139C159.15 40.879 159.033 40.5193 159.033 40.06C159.033 39.488 159.272 39.02 159.748 38.656C160.225 38.292 160.888 38.11 161.737 38.11C162.179 38.11 162.621 38.1707 163.063 38.292C163.505 38.4047 163.869 38.5563 164.155 38.747L163.752 39.488C163.189 39.098 162.517 38.903 161.737 38.903C161.148 38.903 160.702 39.007 160.398 39.215C160.104 39.423 159.956 39.696 159.956 40.034C159.956 40.294 160.039 40.502 160.203 40.658C160.377 40.814 160.589 40.931 160.84 41.009C161.092 41.0783 161.438 41.152 161.88 41.23C162.426 41.334 162.864 41.438 163.193 41.542C163.523 41.646 163.804 41.8237 164.038 42.075C164.272 42.3263 164.389 42.673 164.389 43.115C164.389 43.713 164.138 44.1897 163.635 44.545C163.141 44.8917 162.452 45.065 161.568 45.065ZM167.929 45.065C167.374 45.065 166.841 44.987 166.33 44.831C165.827 44.6663 165.433 44.4627 165.147 44.22L165.563 43.492C165.849 43.7173 166.208 43.9037 166.642 44.051C167.075 44.1897 167.526 44.259 167.994 44.259C168.618 44.259 169.077 44.1637 169.372 43.973C169.675 43.7737 169.827 43.4963 169.827 43.141C169.827 42.8897 169.744 42.6947 169.58 42.556C169.415 42.4087 169.207 42.3003 168.956 42.231C168.704 42.153 168.371 42.0793 167.955 42.01C167.4 41.906 166.954 41.802 166.616 41.698C166.278 41.5853 165.987 41.399 165.745 41.139C165.511 40.879 165.394 40.5193 165.394 40.06C165.394 39.488 165.632 39.02 166.109 38.656C166.585 38.292 167.248 38.11 168.098 38.11C168.54 38.11 168.982 38.1707 169.424 38.292C169.866 38.4047 170.23 38.5563 170.516 38.747L170.113 39.488C169.549 39.098 168.878 38.903 168.098 38.903C167.508 38.903 167.062 39.007 166.759 39.215C166.464 39.423 166.317 39.696 166.317 40.034C166.317 40.294 166.399 40.502 166.564 40.658C166.737 40.814 166.949 40.931 167.201 41.009C167.452 41.0783 167.799 41.152 168.241 41.23C168.787 41.334 169.224 41.438 169.554 41.542C169.883 41.646 170.165 41.8237 170.399 42.075C170.633 42.3263 170.75 42.673 170.75 43.115C170.75 43.713 170.498 44.1897 169.996 44.545C169.502 44.8917 168.813 45.065 167.929 45.065ZM175.251 45.065C174.592 45.065 173.999 44.9177 173.47 44.623C172.941 44.3197 172.525 43.9037 172.222 43.375C171.919 42.8463 171.767 42.2483 171.767 41.581C171.767 40.9137 171.919 40.3157 172.222 39.787C172.525 39.2583 172.941 38.8467 173.47 38.552C173.999 38.2573 174.592 38.11 175.251 38.11C175.91 38.11 176.503 38.2573 177.032 38.552C177.561 38.8467 177.972 39.2583 178.267 39.787C178.57 40.3157 178.722 40.9137 178.722 41.581C178.722 42.2483 178.57 42.8463 178.267 43.375C177.972 43.9037 177.561 44.3197 177.032 44.623C176.503 44.9177 175.91 45.065 175.251 45.065ZM175.251 44.246C175.736 44.246 176.17 44.1377 176.551 43.921C176.941 43.6957 177.244 43.3793 177.461 42.972C177.678 42.5647 177.786 42.101 177.786 41.581C177.786 41.061 177.678 40.5973 177.461 40.19C177.244 39.7827 176.941 39.4707 176.551 39.254C176.17 39.0287 175.736 38.916 175.251 38.916C174.766 38.916 174.328 39.0287 173.938 39.254C173.557 39.4707 173.253 39.7827 173.028 40.19C172.811 40.5973 172.703 41.061 172.703 41.581C172.703 42.101 172.811 42.5647 173.028 42.972C173.253 43.3793 173.557 43.6957 173.938 43.921C174.328 44.1377 174.766 44.246 175.251 44.246ZM182.96 38.11C183.853 38.11 184.538 38.3353 185.014 38.786C185.491 39.228 185.729 39.8867 185.729 40.762V45H184.845V43.934C184.637 44.2893 184.33 44.5667 183.922 44.766C183.524 44.9653 183.047 45.065 182.492 45.065C181.73 45.065 181.123 44.883 180.672 44.519C180.222 44.155 179.996 43.674 179.996 43.076C179.996 42.4953 180.204 42.0273 180.62 41.672C181.045 41.3167 181.717 41.139 182.635 41.139H184.806V40.723C184.806 40.1337 184.642 39.6873 184.312 39.384C183.983 39.072 183.502 38.916 182.869 38.916C182.436 38.916 182.02 38.9897 181.621 39.137C181.223 39.2757 180.88 39.4707 180.594 39.722L180.178 39.033C180.525 38.7383 180.941 38.513 181.426 38.357C181.912 38.1923 182.423 38.11 182.96 38.11ZM182.635 44.337C183.155 44.337 183.602 44.22 183.974 43.986C184.347 43.7433 184.624 43.3967 184.806 42.946V41.828H182.661C181.491 41.828 180.906 42.2353 180.906 43.05C180.906 43.4487 181.058 43.765 181.361 43.999C181.665 44.2243 182.089 44.337 182.635 44.337ZM190.069 45.065C189.515 45.065 188.982 44.987 188.47 44.831C187.968 44.6663 187.573 44.4627 187.287 44.22L187.703 43.492C187.989 43.7173 188.349 43.9037 188.782 44.051C189.216 44.1897 189.666 44.259 190.134 44.259C190.758 44.259 191.218 44.1637 191.512 43.973C191.816 43.7737 191.967 43.4963 191.967 43.141C191.967 42.8897 191.885 42.6947 191.72 42.556C191.556 42.4087 191.348 42.3003 191.096 42.231C190.845 42.153 190.511 42.0793 190.095 42.01C189.541 41.906 189.094 41.802 188.756 41.698C188.418 41.5853 188.128 41.399 187.885 41.139C187.651 40.879 187.534 40.5193 187.534 40.06C187.534 39.488 187.773 39.02 188.249 38.656C188.726 38.292 189.389 38.11 190.238 38.11C190.68 38.11 191.122 38.1707 191.564 38.292C192.006 38.4047 192.37 38.5563 192.656 38.747L192.253 39.488C191.69 39.098 191.018 38.903 190.238 38.903C189.649 38.903 189.203 39.007 188.899 39.215C188.605 39.423 188.457 39.696 188.457 40.034C188.457 40.294 188.54 40.502 188.704 40.658C188.878 40.814 189.09 40.931 189.341 41.009C189.593 41.0783 189.939 41.152 190.381 41.23C190.927 41.334 191.365 41.438 191.694 41.542C192.024 41.646 192.305 41.8237 192.539 42.075C192.773 42.3263 192.89 42.673 192.89 43.115C192.89 43.713 192.639 44.1897 192.136 44.545C191.642 44.8917 190.953 45.065 190.069 45.065ZM198.883 39.501C199.1 39.0417 199.42 38.695 199.845 38.461C200.278 38.227 200.811 38.11 201.444 38.11V39.007L201.223 38.994C200.504 38.994 199.94 39.215 199.533 39.657C199.126 40.099 198.922 40.7187 198.922 41.516V45H197.999V38.162H198.883V39.501ZM209.006 41.867H203.286C203.338 42.5777 203.611 43.154 204.105 43.596C204.599 44.0293 205.223 44.246 205.977 44.246C206.401 44.246 206.791 44.1723 207.147 44.025C207.502 43.869 207.81 43.6437 208.07 43.349L208.59 43.947C208.286 44.311 207.905 44.5883 207.446 44.779C206.995 44.9697 206.497 45.065 205.951 45.065C205.249 45.065 204.625 44.9177 204.079 44.623C203.541 44.3197 203.121 43.9037 202.818 43.375C202.514 42.8463 202.363 42.2483 202.363 41.581C202.363 40.9137 202.506 40.3157 202.792 39.787C203.086 39.2583 203.485 38.8467 203.988 38.552C204.499 38.2573 205.071 38.11 205.704 38.11C206.336 38.11 206.904 38.2573 207.407 38.552C207.909 38.8467 208.304 39.2583 208.59 39.787C208.876 40.307 209.019 40.905 209.019 41.581L209.006 41.867ZM205.704 38.903C205.045 38.903 204.49 39.1153 204.04 39.54C203.598 39.956 203.346 40.502 203.286 41.178H208.135C208.074 40.502 207.818 39.956 207.368 39.54C206.926 39.1153 206.371 38.903 205.704 38.903ZM213.099 38.11C213.992 38.11 214.676 38.3353 215.153 38.786C215.63 39.228 215.868 39.8867 215.868 40.762V45H214.984V43.934C214.776 44.2893 214.468 44.5667 214.061 44.766C213.662 44.9653 213.186 45.065 212.631 45.065C211.868 45.065 211.262 44.883 210.811 44.519C210.36 44.155 210.135 43.674 210.135 43.076C210.135 42.4953 210.343 42.0273 210.759 41.672C211.184 41.3167 211.855 41.139 212.774 41.139H214.945V40.723C214.945 40.1337 214.78 39.6873 214.451 39.384C214.122 39.072 213.641 38.916 213.008 38.916C212.575 38.916 212.159 38.9897 211.76 39.137C211.361 39.2757 211.019 39.4707 210.733 39.722L210.317 39.033C210.664 38.7383 211.08 38.513 211.565 38.357C212.05 38.1923 212.562 38.11 213.099 38.11ZM212.774 44.337C213.294 44.337 213.74 44.22 214.113 43.986C214.486 43.7433 214.763 43.3967 214.945 42.946V41.828H212.8C211.63 41.828 211.045 42.2353 211.045 43.05C211.045 43.4487 211.197 43.765 211.5 43.999C211.803 44.2243 212.228 44.337 212.774 44.337ZM218.375 38.162H219.298V45H218.375V38.162ZM218.843 36.667C218.652 36.667 218.492 36.602 218.362 36.472C218.232 36.342 218.167 36.186 218.167 36.004C218.167 35.8307 218.232 35.679 218.362 35.549C218.492 35.419 218.652 35.354 218.843 35.354C219.034 35.354 219.194 35.419 219.324 35.549C219.454 35.6703 219.519 35.8177 219.519 35.991C219.519 36.1817 219.454 36.342 219.324 36.472C219.194 36.602 219.034 36.667 218.843 36.667ZM223.699 45.065C223.144 45.065 222.611 44.987 222.1 44.831C221.597 44.6663 221.203 44.4627 220.917 44.22L221.333 43.492C221.619 43.7173 221.979 43.9037 222.412 44.051C222.845 44.1897 223.296 44.259 223.764 44.259C224.388 44.259 224.847 44.1637 225.142 43.973C225.445 43.7737 225.597 43.4963 225.597 43.141C225.597 42.8897 225.515 42.6947 225.35 42.556C225.185 42.4087 224.977 42.3003 224.726 42.231C224.475 42.153 224.141 42.0793 223.725 42.01C223.17 41.906 222.724 41.802 222.386 41.698C222.048 41.5853 221.758 41.399 221.515 41.139C221.281 40.879 221.164 40.5193 221.164 40.06C221.164 39.488 221.402 39.02 221.879 38.656C222.356 38.292 223.019 38.11 223.868 38.11C224.31 38.11 224.752 38.1707 225.194 38.292C225.636 38.4047 226 38.5563 226.286 38.747L225.883 39.488C225.32 39.098 224.648 38.903 223.868 38.903C223.279 38.903 222.832 39.007 222.529 39.215C222.234 39.423 222.087 39.696 222.087 40.034C222.087 40.294 222.169 40.502 222.334 40.658C222.507 40.814 222.72 40.931 222.971 41.009C223.222 41.0783 223.569 41.152 224.011 41.23C224.557 41.334 224.995 41.438 225.324 41.542C225.653 41.646 225.935 41.8237 226.169 42.075C226.403 42.3263 226.52 42.673 226.52 43.115C226.52 43.713 226.269 44.1897 225.766 44.545C225.272 44.8917 224.583 45.065 223.699 45.065Z" fill="white"/>
<g clip-path="url(#clip0)">
<path d="M9.97295 27.1939L8.40656 33.0415L2.68146 33.1626C0.970488 29.9891 0 26.3583 0 22.4999C0 18.7688 0.907383 15.2504 2.51578 12.1523H2.51701L7.61396 13.0868L9.84674 18.1532C9.37942 19.5156 9.12472 20.9781 9.12472 22.4999C9.12489 24.1515 9.42407 25.734 9.97295 27.1939Z" fill="#FBBB00"/>
<path d="M44.6069 18.2969C44.8652 19.6579 45 21.0636 45 22.5002C45 24.111 44.8306 25.6823 44.508 27.198C43.4127 32.3557 40.5507 36.8594 36.586 40.0465L36.5848 40.0452L30.1649 39.7177L29.2563 34.0456C31.8871 32.5028 33.943 30.0884 35.026 27.198H22.9946V18.2969H35.2015H44.6069Z" fill="#518EF8"/>
<path d="M36.5847 40.0448L36.5859 40.046C32.7301 43.1453 27.8319 44.9997 22.4999 44.9997C13.9314 44.9997 6.4817 40.2105 2.6814 33.1625L9.97289 27.1938C11.873 32.265 16.7649 35.8749 22.4999 35.8749C24.965 35.8749 27.2744 35.2085 29.2561 34.0452L36.5847 40.0448Z" fill="#28B446"/>
<path d="M36.8618 5.17992L29.5727 11.1473C27.5218 9.86537 25.0974 9.1248 22.5001 9.1248C16.6352 9.1248 11.6518 12.9003 9.84691 18.1533L2.5171 12.1525H2.51587C6.26054 4.93269 13.8042 0 22.5001 0C27.9594 0 32.965 1.94467 36.8618 5.17992Z" fill="#F14336"/>
</g>
<defs>
<clipPath id="clip0">
<rect width="45" height="45" fill="white"/>
</clipPath>
</defs>
</svg>
