<svg width="355" height="307" viewBox="0 0 355 307" fill="none" xmlns="http://www.w3.org/2000/svg">
<rect x="1" y="37" width="318" height="193" rx="8" stroke="#21DCB2" stroke-width="2"/>
<path d="M217.427 282.706H82.5889L57.5755 303.865C54.6442 306.412 49.9542 304.257 49.9542 300.339V115.002C49.9542 105.598 57.5755 97.7617 67.1509 97.7617H217.427C226.807 97.7617 234.623 105.402 234.623 115.002V265.662C234.428 275.065 226.807 282.706 217.427 282.706Z" fill="#00ADEE"/>
<path d="M54.6442 307C53.6671 307 52.69 306.804 51.9083 306.412C49.5633 305.237 48 303.082 48 300.339V115.002C48 104.423 56.5983 95.8027 67.1509 95.8027H217.426C227.979 95.8027 236.577 104.423 236.577 115.002V265.662C236.577 276.241 227.979 284.861 217.426 284.861H83.3705L58.7479 305.433C57.5754 306.412 56.2075 307 54.6442 307ZM67.1509 99.721C58.7479 99.721 51.9083 106.578 51.9083 115.002V300.339C51.9083 301.318 52.4946 302.298 53.4717 302.69C54.4488 303.082 55.4258 303.082 56.4029 302.298L81.2209 281.335C81.6117 280.943 82.0025 280.943 82.3934 280.943H217.231C225.634 280.943 232.474 274.086 232.474 265.662V115.002C232.474 106.578 225.634 99.721 217.231 99.721H67.1509V99.721Z" fill="#0077BF"/>
<path d="M115.028 134.986H79.0714C77.8989 134.986 77.1172 134.202 77.1172 133.027C77.1172 131.851 77.8989 131.067 79.0714 131.067H115.028C116.201 131.067 116.982 131.851 116.982 133.027C116.982 134.202 116.005 134.986 115.028 134.986Z" fill="#0077BF"/>
<path d="M205.506 158.692H79.0714C77.8989 158.692 77.1172 157.908 77.1172 156.733C77.1172 155.557 77.8989 154.773 79.0714 154.773H205.506C206.679 154.773 207.46 155.557 207.46 156.733C207.46 157.908 206.483 158.692 205.506 158.692Z" fill="#0077BF"/>
<path d="M205.506 171.23H79.0714C77.8989 171.23 77.1172 170.447 77.1172 169.271C77.1172 168.096 77.8989 167.312 79.0714 167.312H205.506C206.679 167.312 207.46 168.096 207.46 169.271C207.46 170.447 206.483 171.23 205.506 171.23Z" fill="#0077BF"/>
<path d="M205.506 183.965H79.0714C77.8989 183.965 77.1172 183.181 77.1172 182.006C77.1172 180.83 77.8989 180.046 79.0714 180.046H205.506C206.679 180.046 207.46 180.83 207.46 182.006C207.46 183.181 206.483 183.965 205.506 183.965Z" fill="#0077BF"/>
<path d="M205.506 196.503H79.0714C77.8989 196.503 77.1172 195.72 77.1172 194.544C77.1172 193.369 77.8989 192.585 79.0714 192.585H205.506C206.679 192.585 207.46 193.369 207.46 194.544C207.46 195.72 206.483 196.503 205.506 196.503Z" fill="#0077BF"/>
<path d="M205.506 209.238H79.0714C77.8989 209.238 77.1172 208.454 77.1172 207.278C77.1172 206.103 77.8989 205.319 79.0714 205.319H205.506C206.679 205.319 207.46 206.103 207.46 207.278C207.46 208.454 206.483 209.238 205.506 209.238Z" fill="#0077BF"/>
<path d="M205.506 221.973H79.0714C77.8989 221.973 77.1172 221.189 77.1172 220.013C77.1172 218.838 77.8989 218.054 79.0714 218.054H205.506C206.679 218.054 207.46 218.838 207.46 220.013C207.46 221.189 206.483 221.973 205.506 221.973Z" fill="#0077BF"/>
<path d="M205.506 234.512H79.0714C77.8989 234.512 77.1172 233.728 77.1172 232.552C77.1172 231.377 77.8989 230.593 79.0714 230.593H205.506C206.679 230.593 207.46 231.377 207.46 232.552C207.46 233.728 206.483 234.512 205.506 234.512Z" fill="#0077BF"/>
<path d="M185.574 186.903H320.411L345.425 208.062C348.356 210.609 353.046 208.454 353.046 204.536V19.1996C353.046 9.79562 345.425 1.95898 335.849 1.95898H185.574C176.194 1.95898 168.377 9.5997 168.377 19.1996V169.859C168.377 179.263 176.194 186.903 185.574 186.903Z" fill="white"/>
<path d="M348.356 211.197C346.792 211.197 345.425 210.609 344.057 209.63L319.629 188.863H185.573C175.021 188.863 166.423 180.242 166.423 169.663V19.1997C166.423 8.62029 175.021 0 185.573 0H335.849C346.402 0 355 8.62029 355 19.1997V204.536C355 207.083 353.632 209.434 351.092 210.609C350.115 211.001 349.333 211.197 348.356 211.197ZM185.573 3.91832C177.171 3.91832 170.331 10.7754 170.331 19.1997V169.859C170.331 178.283 177.171 185.14 185.573 185.14H320.411C320.802 185.14 321.388 185.336 321.584 185.532L346.597 206.691C347.379 207.475 348.551 207.475 349.528 207.083C350.505 206.691 351.092 205.712 351.092 204.732V19.1997C351.092 10.7754 344.252 3.91832 335.849 3.91832H185.573V3.91832Z" fill="#0077BF"/>
<path d="M260.614 34.8729H196.908C195.735 34.8729 194.953 34.0892 194.953 32.9137C194.953 31.7383 195.735 30.9546 196.908 30.9546H260.809C261.982 30.9546 262.763 31.7383 262.763 32.9137C262.763 34.0892 261.786 34.8729 260.614 34.8729Z" fill="#0077BF"/>
<path d="M323.342 58.5785H196.908C195.735 58.5785 194.953 57.7948 194.953 56.6193C194.953 55.4438 195.735 54.6602 196.908 54.6602H323.342C324.515 54.6602 325.297 55.4438 325.297 56.6193C325.297 57.7948 324.319 58.5785 323.342 58.5785Z" fill="#0077BF"/>
<path d="M323.342 71.1171H196.908C195.735 71.1171 194.953 70.3334 194.953 69.1579C194.953 67.9824 195.735 67.1987 196.908 67.1987H323.342C324.515 67.1987 325.297 67.9824 325.297 69.1579C325.297 70.3334 324.319 71.1171 323.342 71.1171Z" fill="#0077BF"/>
<path d="M323.342 83.8519H196.908C195.735 83.8519 194.953 83.0682 194.953 81.8928C194.953 80.7173 195.735 79.9336 196.908 79.9336H323.342C324.515 79.9336 325.297 80.7173 325.297 81.8928C325.297 83.0682 324.319 83.8519 323.342 83.8519Z" fill="#0077BF"/>
<path d="M323.342 96.5863H196.908C195.735 96.5863 194.953 95.8026 194.953 94.6271C194.953 93.4516 195.735 92.668 196.908 92.668H323.342C324.515 92.668 325.297 93.4516 325.297 94.6271C325.297 95.8026 324.319 96.5863 323.342 96.5863Z" fill="#0077BF"/>
</svg>
