<svg width="332" height="287" viewBox="0 0 332 287" fill="none" xmlns="http://www.w3.org/2000/svg">
<rect x="1" y="1" width="257.97" height="270.389" rx="8" stroke="#21DCB2" stroke-width="2"/>
<path d="M232.514 26.8006C232.924 26.8006 233.334 26.8006 233.744 26.8006C233.949 26.3898 233.949 25.979 233.949 25.7736C233.949 25.7736 233.744 25.7736 233.539 25.5682C232.309 24.952 229.849 24.952 228.004 24.952C226.569 24.952 225.339 24.952 224.314 24.952C221.854 24.7466 221.854 24.7466 220.419 25.5682C220.01 25.7736 219.804 25.979 219.19 26.1844C218.165 26.8006 216.935 27.006 215.91 27.2114C215.09 27.4168 214.065 27.6222 213.655 27.8276C213.245 28.033 213.04 28.2383 212.835 28.4437C212.835 28.6491 212.63 29.0599 212.22 29.6761C210.17 32.9625 208.325 33.7841 205.66 34.811C205.045 35.0164 204.635 35.2218 204.02 35.4272C200.945 36.865 198.485 38.919 196.23 40.9729C193.77 42.8215 191.105 43.6431 188.44 44.4647C185.57 45.2863 183.111 46.1079 181.471 47.9564C181.266 48.3672 180.856 48.3672 180.241 48.3672C180.036 48.5726 179.831 48.5726 179.626 48.5726C179.421 48.5726 179.421 48.5726 179.216 48.5726C178.396 48.3672 177.986 47.5456 178.191 46.7241C178.601 45.2863 178.806 43.4377 178.601 42.4107C178.396 42.2053 178.191 41.9999 177.986 41.5891C177.781 41.5891 177.371 41.7945 176.961 41.7945C176.551 41.9999 175.936 41.9999 175.526 42.2053C174.706 42.4107 174.091 41.7945 173.886 41.1783C173.681 40.7675 173.681 40.1514 173.681 39.5352C173.681 39.3298 173.681 38.919 173.681 38.7136C173.271 38.7136 172.861 38.7136 172.451 38.7136C171.631 38.7136 170.811 38.5082 170.196 37.892C169.376 37.4812 169.581 36.4542 169.581 35.838V35.6326C169.376 35.4272 168.966 35.4272 168.146 35.4272C168.146 35.6326 168.351 35.838 168.556 36.4542C168.966 37.2758 169.786 38.919 168.761 40.5621C167.531 43.0269 165.891 42.4107 165.071 42.2053C164.866 42.2053 164.456 41.9999 164.251 41.9999C163.226 42.2053 162.816 42.2053 162.611 42.4107C162.611 42.4107 162.611 42.6161 162.816 42.8215C163.021 43.4377 163.021 44.6701 162.816 45.9025C162.406 47.3402 161.381 49.5996 160.356 51.2428C162.406 53.0913 163.841 56.7885 164.046 58.4317C164.866 63.5666 161.176 64.3882 158.511 64.799L157.281 65.0044C154.821 65.4151 151.541 67.0583 151.131 68.0853C151.131 68.2907 151.131 68.7015 151.131 69.1123C151.336 69.9339 151.541 71.1663 150.721 72.604C149.901 74.0418 148.466 74.658 147.032 75.4796C148.466 77.3282 149.286 79.3821 149.901 81.4361C150.721 83.2847 151.336 85.1332 152.361 86.3656C152.566 86.7764 152.976 86.9818 153.181 87.3926C154.821 89.4466 155.436 90.679 153.386 93.5545C152.156 95.4031 150.311 96.6354 148.876 97.8678C148.056 98.484 147.236 99.1002 146.622 99.511C147.032 99.9218 147.646 100.127 148.261 100.333C149.901 100.949 152.156 101.976 151.336 106.289C151.131 106.905 150.926 107.521 150.721 108.138C150.516 108.548 150.311 108.959 150.311 109.37C150.311 109.575 150.516 109.986 150.516 110.602C150.721 111.424 150.926 112.246 150.721 113.273C150.311 117.175 147.851 118.407 145.392 119.64L144.982 120.051C143.547 120.872 143.342 120.872 143.137 121.283C142.932 121.694 142.522 122.31 141.907 123.337C141.087 124.364 137.602 127.24 135.347 127.24C135.142 127.24 135.142 127.24 134.937 127.24C133.502 127.034 132.682 126.213 131.862 125.596C131.452 125.186 131.042 124.775 130.632 124.775C127.557 124.159 123.457 124.364 119.767 124.569L117.512 124.775C116.282 124.775 115.257 124.98 114.027 125.186C112.387 125.391 110.952 125.802 108.903 125.596L108.083 125.391C106.648 125.186 106.238 125.186 104.598 126.007C103.983 126.418 103.368 126.829 102.753 127.24C101.523 128.267 100.088 129.294 98.2428 129.294C97.4229 129.294 96.8079 128.677 96.1929 128.267C96.1929 128.267 95.9879 128.061 95.7829 127.856C95.5779 127.856 95.1679 128.061 94.7579 128.267C94.3479 128.472 93.938 128.677 93.528 128.677C91.683 129.088 90.0431 129.294 88.1981 129.704C85.3282 130.115 82.4583 130.526 79.9983 131.553C77.1284 132.785 75.2835 135.25 73.4385 138.126C72.4136 139.974 71.1836 142.028 69.3386 143.466C68.3137 144.082 67.6987 144.287 67.2887 144.287C67.0837 144.287 67.0837 144.287 66.8787 144.698C66.8787 144.904 66.8787 145.52 67.0837 145.931C67.2887 146.752 67.6987 147.779 67.0837 148.806C66.0587 150.655 64.4188 150.86 62.9838 151.066C62.7788 152.298 62.1638 153.325 61.5488 154.147C61.1389 154.763 60.5239 155.379 60.5239 155.995C60.3189 157.227 60.5239 158.254 60.7289 159.692V159.898C61.3439 159.487 62.1638 159.281 62.9838 158.871C63.5988 158.665 64.2138 158.46 64.8288 158.254C65.4437 158.049 66.0587 157.638 66.6737 157.227C67.4937 156.611 68.3137 156.2 69.1336 155.79C70.9786 155.174 71.5936 154.968 72.4136 155.79C73.2335 155.995 73.8485 156.406 74.2585 156.817C74.6685 157.022 75.0785 157.433 75.4885 157.433C76.5134 157.638 77.9484 157.638 78.9734 157.433C79.5884 157.433 80.2033 157.433 80.8183 157.433C81.6383 157.433 82.6633 157.433 83.6882 157.227C89.4281 156.817 97.4229 156.201 101.318 160.103C102.958 161.746 102.958 163.595 102.753 164.827C102.753 165.649 102.548 166.265 102.958 167.087C103.163 167.703 103.573 168.113 103.778 168.113C103.778 168.113 104.393 167.908 104.598 167.087C104.803 166.676 105.008 166.47 105.418 166.265C105.828 166.06 106.238 166.06 106.648 166.265C108.288 166.881 108.903 168.73 109.313 170.373C109.518 170.989 109.723 171.811 109.928 172.221C109.928 171.811 110.543 170.578 110.543 166.676C110.543 166.06 110.952 165.443 111.567 165.238C113.412 164.416 115.667 164.622 117.717 164.827C119.152 165.033 120.587 165.033 122.022 164.827C123.252 164.622 124.277 164.416 125.302 164.211C126.737 164.006 128.172 163.595 129.607 163.595C130.017 163.8 130.632 163.595 131.042 163.8C131.657 163.8 132.272 164.006 132.477 163.8C132.887 163.8 133.092 163.595 133.297 163.184C133.707 162.773 134.117 162.362 134.732 162.157C135.552 161.746 136.782 161.952 138.217 161.952C139.037 161.952 140.677 162.157 141.087 161.952C141.087 161.335 141.497 161.13 142.112 160.925C142.727 160.719 143.137 161.13 143.547 161.541C144.162 162.362 145.187 163.184 146.212 164.006C147.441 165.033 148.876 166.265 149.696 167.703C150.311 168.935 150.516 170.167 150.516 171.194C150.516 171.605 150.516 171.811 150.516 172.221C150.516 172.632 150.721 174.892 150.721 175.713C150.926 175.919 151.336 176.124 151.746 176.124C152.361 176.124 153.386 176.329 153.796 177.151C154.411 177.973 154.206 179.205 153.591 180.643C153.181 181.875 152.566 182.697 151.951 183.518L151.746 183.724C152.156 183.724 152.361 183.929 152.566 184.34C153.591 185.367 153.591 186.599 153.591 187.832C153.591 188.242 153.591 188.859 153.796 189.064C154.206 191.529 155.641 192.556 157.691 193.788C158.716 194.404 159.946 194.815 161.381 195.431C163.021 196.047 164.456 196.458 165.686 197.485C169.171 199.95 168.146 201.799 166.916 203.647H166.506C165.071 205.701 164.456 207.139 164.661 209.398C164.661 209.809 164.866 210.425 164.866 210.836C165.071 212.068 165.481 213.506 164.866 214.944C164.661 215.766 164.046 216.382 163.636 216.998C163.431 217.409 163.226 217.614 163.226 217.82C163.226 218.025 164.046 220.49 164.456 221.106C165.071 220.9 165.686 220.9 166.506 221.311C168.556 222.338 170.196 224.187 170.606 226.241C170.811 227.268 170.606 228.295 169.991 229.322C170.811 230.143 171.426 231.376 171.631 232.608C173.681 232.813 175.526 232.197 177.576 231.581C178.601 231.376 179.421 230.965 180.446 230.759C181.266 230.554 181.881 230.554 182.496 230.759C183.111 230.759 183.111 230.759 183.315 230.759C183.52 230.554 183.521 230.143 183.521 229.733C183.725 228.706 183.93 227.062 185.775 226.446C187.005 226.035 188.03 226.652 188.645 227.062C188.85 227.062 189.055 227.268 189.26 227.268C190.08 227.268 190.49 226.857 191.105 226.446C191.515 226.241 191.925 225.83 192.54 225.625C194.59 224.392 197.05 223.571 199.51 222.749C200.74 222.338 202.175 221.927 203.405 221.311L203.815 221.106C205.455 220.284 205.865 220.284 207.915 220.9C211.195 217.82 214.885 217.409 218.575 216.998C220.009 216.793 221.444 216.587 222.879 216.382C224.724 215.766 225.954 215.149 227.594 214.122L228.619 213.506C230.669 212.479 232.514 212.274 234.359 212.068C235.384 212.068 236.409 211.863 237.434 211.658C238.254 211.452 238.869 211.247 239.484 211.041C240.919 210.631 242.149 210.22 243.789 210.22C245.019 210.22 246.044 210.631 246.864 211.041C247.684 211.247 248.299 211.658 248.914 211.658C251.784 212.068 254.244 210.425 256.908 208.782C258.753 207.755 260.598 206.523 262.648 205.906C263.878 205.496 264.903 205.496 265.723 205.29C267.568 205.085 267.568 205.085 267.568 202.209V201.388C267.568 199.539 267.568 197.28 268.798 195.226C269.208 194.404 270.028 193.788 270.438 193.172C271.053 192.556 271.463 192.145 271.668 191.529C271.873 190.913 271.873 190.296 271.873 189.68C271.873 188.653 271.873 187.215 272.898 185.778C273.718 184.545 274.948 183.929 275.768 183.518C276.178 183.313 276.588 183.107 276.998 182.902C277.613 182.286 278.228 181.67 278.638 181.053C279.253 180.232 279.868 179.41 280.893 178.794C280.893 178.794 280.893 178.589 280.688 178.589C280.278 177.973 279.663 177.356 279.253 176.535C278.433 174.275 279.663 169.962 280.688 168.319C281.918 166.265 286.428 164.622 289.093 165.033C289.708 165.238 290.323 165.443 290.733 165.854C291.348 164.827 291.758 163.184 292.168 161.746C292.578 159.898 293.192 158.049 294.217 156.406C294.627 155.584 295.652 154.968 296.472 154.352C297.292 153.736 298.112 153.12 298.317 152.503C298.317 152.298 298.112 152.093 297.907 151.476C297.497 150.86 297.292 150.244 297.087 149.422C296.882 147.779 297.292 146.341 297.702 144.904L298.112 143.26C298.522 141.412 298.727 140.385 298.112 139.563C298.112 139.974 297.907 140.18 297.497 140.385C297.292 140.59 296.882 140.59 296.677 140.59C296.267 140.59 295.652 140.385 295.447 139.974C294.832 138.947 294.012 137.304 294.422 135.661C295.037 134.223 296.677 133.607 297.907 133.196C298.317 132.991 298.727 132.991 299.137 132.785C299.137 132.785 299.137 132.785 299.137 132.58V131.758C298.727 126.623 298.112 125.596 297.907 125.391C297.497 125.596 297.087 125.596 296.882 125.391C296.472 125.186 296.267 124.98 296.062 124.569C293.602 118.408 299.752 115.943 303.442 114.3C303.647 114.3 303.852 114.094 303.852 114.094C303.647 113.478 303.852 112.862 304.467 112.656C307.132 110.808 309.592 110.808 312.052 110.808C312.667 110.808 313.282 110.808 314.102 110.808C315.332 110.808 316.972 111.013 317.382 110.602C317.587 110.397 317.587 110.192 317.587 109.781C317.382 108.754 316.972 108.548 315.537 108.138C314.717 107.932 313.692 107.521 312.872 106.905C311.847 105.878 311.642 104.646 311.437 103.619C311.437 103.208 311.232 102.592 311.232 102.387C310.822 102.387 310.207 102.387 310.002 102.181C309.592 101.77 309.387 101.565 309.592 100.949C309.797 98.8948 310.207 94.9923 309.592 91.7059C309.592 91.0897 309.797 90.4735 310.207 90.2682C311.027 88.0088 312.667 86.7764 314.717 85.544C315.127 85.1332 315.742 84.9278 316.152 84.7224C316.562 84.517 316.562 84.517 316.562 84.517C316.562 84.517 316.562 84.1063 316.562 83.6955C316.562 82.8739 316.562 81.8469 317.177 81.0253C317.997 80.2037 318.612 79.9983 319.227 79.7929C319.637 79.5875 319.842 79.5875 320.047 79.3821C320.252 79.1767 320.457 78.9713 320.662 78.3551C320.867 77.9443 321.072 77.3282 321.482 76.712C321.892 76.3012 322.302 75.685 322.917 75.2742C323.327 74.8634 324.147 74.2472 324.147 74.0418C324.147 74.0418 324.147 73.8364 323.737 73.631C323.122 73.0148 323.122 72.1932 323.737 71.5771C324.147 71.1663 324.557 71.1663 324.967 71.1663C325.377 70.7555 325.377 70.3447 325.377 70.3447C325.172 68.2907 320.252 64.799 313.077 61.718C310.412 60.4856 303.442 58.6371 301.802 59.0479C301.802 59.0479 301.597 59.4586 301.392 59.664C300.777 60.4856 299.957 61.718 298.522 62.1288C297.702 62.3342 294.217 62.5396 292.783 61.5126C291.758 60.691 291.553 59.2532 291.143 57.4047C291.143 56.9939 290.938 56.7885 290.938 56.3777C290.118 55.1453 289.298 53.7075 288.273 52.6806C287.863 52.0644 287.658 51.6536 287.453 51.2428C286.018 48.778 285.198 47.5456 282.943 47.3402C280.483 47.1348 279.048 46.5187 277.613 45.9025C276.178 45.2863 274.743 44.6701 272.283 44.4647C271.258 44.2593 270.233 44.2593 269.413 44.2593C265.928 44.0539 263.058 43.8485 259.983 40.1514C258.753 38.7136 258.548 38.5082 257.728 38.5082C257.113 38.3028 256.089 38.0974 254.654 37.4812C253.834 37.0704 253.424 36.4542 253.014 36.0434C252.604 35.6326 252.399 35.2218 251.784 35.0164C249.119 33.9895 246.659 33.5787 245.839 33.9895C245.429 34.1949 245.429 34.1949 245.634 35.838C245.634 36.2488 245.634 36.865 245.634 37.4812C245.634 38.0974 245.224 38.7136 244.609 38.919C244.199 39.1244 243.584 38.919 243.174 38.5082C242.559 38.7136 241.944 38.919 241.124 38.7136C239.894 38.3028 239.484 37.892 239.074 37.4812C238.869 37.2758 238.869 37.0704 238.254 36.865C236.614 35.6326 235.589 35.838 232.924 36.2488H232.514C231.899 36.2488 231.489 36.0434 231.079 35.6326C230.874 35.2218 230.669 34.6056 230.874 34.1949C231.079 33.5787 230.874 32.7571 230.669 31.9355C230.259 30.7031 229.849 29.0599 230.874 27.4168C231.489 27.006 232.104 26.8006 232.514 26.8006Z" fill="#0076C0"/>
<path d="M210.99 240.822C210.374 241.027 209.758 241.231 209.552 241.231C209.142 241.231 208.731 241.231 208.32 240.822C207.91 240.617 207.704 240.208 207.704 239.799C207.704 239.389 207.704 238.98 207.704 238.571C207.499 236.933 207.499 235.296 209.142 233.659C209.347 233.249 210.374 232.84 211.195 232.43C211.606 232.226 212.222 232.021 212.427 231.816C212.838 231.612 213.043 231.407 213.454 230.998C214.275 230.384 215.097 229.77 216.123 229.36C216.739 229.156 217.561 228.951 218.382 228.746C221.462 227.928 222.899 227.314 222.694 226.086C222.489 225.062 220.23 225.267 217.355 225.676C215.302 225.881 213.659 226.086 212.427 225.676C211.606 225.472 210.784 224.858 210.168 224.448C209.963 224.244 209.552 224.039 209.347 223.834C209.142 224.039 208.936 224.244 208.526 224.244C208.115 224.244 207.91 224.039 207.704 223.834C207.294 223.63 207.294 223.22 207.088 223.016C206.883 223.016 206.678 223.016 206.678 223.016C206.472 223.016 206.267 223.22 205.856 223.425L205.446 223.63C204.008 224.244 202.776 224.653 201.339 225.062C199.08 225.881 196.822 226.495 194.974 227.723C194.358 227.928 194.152 228.337 193.742 228.542C192.92 229.156 191.894 229.77 190.046 229.77C189.224 229.77 188.608 229.36 188.198 229.156C187.992 228.951 187.582 228.951 187.582 228.746C187.376 228.951 187.376 229.36 187.376 229.565C187.171 230.384 187.171 231.612 186.144 232.43C184.912 233.454 183.886 233.249 183.064 233.044C182.654 233.044 182.448 233.044 182.243 233.044C181.216 233.249 180.395 233.454 179.368 233.659C176.904 234.273 174.235 235.091 171.155 234.682C170.334 234.477 169.923 233.863 169.923 233.044C170.128 231.816 169.512 230.588 168.28 229.974C167.87 229.77 167.664 229.36 167.664 228.746C167.664 228.337 167.87 227.928 168.28 227.518C168.896 227.109 169.102 226.495 169.102 225.881C168.896 224.858 167.87 223.63 166.843 223.22C166.638 223.22 166.638 223.22 166.227 223.22C165.406 223.425 164.584 223.425 163.558 222.197C162.531 220.969 161.504 217.285 161.504 216.875C161.71 215.647 162.12 215.033 162.531 214.624C162.736 214.215 163.147 214.01 163.147 213.601C163.352 212.782 163.147 211.759 162.942 210.735C162.736 210.121 162.736 209.507 162.736 208.893C162.531 206.028 163.147 203.776 164.995 201.32L165.406 200.706C165.611 200.297 166.022 199.683 166.022 199.478C166.022 199.478 166.022 199.069 164.79 198.455C163.968 197.841 162.531 197.227 161.094 196.818C159.656 196.204 158.014 195.794 156.782 194.976C154.934 193.748 152.47 192.11 151.648 188.426C151.854 188.017 151.854 187.403 151.854 186.789C151.854 186.584 151.854 185.97 151.854 185.765C151.648 185.97 151.032 186.175 150.416 185.765H150.211C149.39 185.561 148.979 184.947 149.184 184.128C149.39 182.9 150.211 181.877 150.827 180.853C151.443 180.239 151.854 179.421 152.059 178.806C152.264 178.397 152.264 178.192 152.264 177.988C151.443 177.988 150.211 177.783 149.39 176.555C148.568 175.941 148.568 174.508 148.568 171.438C148.568 171.234 148.568 170.824 148.568 170.21C148.568 169.392 148.568 168.573 148.158 167.959C147.747 167.14 146.515 166.117 145.283 165.093C144.667 164.479 144.051 164.07 143.435 163.456C142.203 164.07 140.355 163.865 139.123 163.865C138.302 163.865 137.275 163.661 137.07 163.865C136.864 163.865 136.659 164.07 136.659 164.275C136.248 164.684 135.632 165.503 134.195 165.707C133.374 165.912 132.552 165.707 131.731 165.707C131.32 165.707 131.115 165.707 130.704 165.707C129.472 165.707 128.24 166.117 126.803 166.322C125.776 166.526 124.544 166.731 123.312 166.936C121.67 167.14 120.027 167.14 118.384 166.936C116.947 166.731 115.51 166.731 114.278 166.936C114.072 171.848 113.046 173.28 112.224 173.894C111.608 174.304 110.787 174.508 109.966 174.304C108.528 173.894 107.912 172.257 107.296 170.62C107.091 170.415 107.091 170.006 106.886 169.596C106.27 170.21 105.654 170.415 104.832 170.415H104.627C103.19 170.415 101.958 169.392 101.136 167.754C100.52 166.526 100.52 165.093 100.726 164.275C100.726 163.047 100.726 162.433 100.11 161.819C97.0296 158.953 89.6375 159.363 84.7095 159.772C83.6829 159.772 82.6562 159.977 81.6295 159.977C81.0135 159.977 80.6029 159.977 79.9869 159.977C78.7549 159.977 77.3175 160.181 75.6749 159.977C74.8535 159.772 74.0322 159.363 73.4162 158.953C73.0055 158.749 72.8002 158.544 72.5948 158.544C72.1842 158.339 71.7735 158.135 71.5682 158.135C71.3628 158.135 71.1575 158.339 70.7468 158.339C70.1308 158.544 69.5148 158.953 68.8988 159.363C68.0775 159.772 67.4615 160.386 66.4348 160.795C65.8188 161.205 64.9975 161.409 64.3815 161.614C62.7388 162.228 62.1228 162.433 61.9175 163.865C61.7122 164.684 61.9175 165.503 62.1228 166.117L62.3282 166.731C62.3282 167.14 62.3282 167.55 62.1228 167.959C61.9175 168.164 61.7122 168.164 61.7122 168.368C60.8908 169.187 59.2481 169.801 56.9895 170.824C55.9628 171.234 54.9361 171.643 54.5255 171.848C53.4988 172.666 52.8828 173.485 52.2668 174.508C51.8561 175.327 51.2401 175.941 50.6241 176.76C50.0081 177.783 48.7761 178.397 47.7495 179.011C46.9281 179.42 46.1068 180.035 45.6961 180.649C45.2854 181.263 45.0801 181.877 45.0801 182.695C44.8748 183.309 44.8748 183.923 44.6694 184.742C43.6428 186.993 42.0001 187.812 40.7681 188.631C39.7414 189.04 39.3308 189.449 38.9201 190.063C38.5094 190.677 38.7148 192.11 38.9201 193.543C39.3308 195.59 39.5361 197.841 38.3041 199.683C37.4828 200.706 36.6614 200.911 36.2508 201.116C36.0454 201.116 36.0454 201.32 35.8401 201.525C35.8401 201.73 35.8401 201.73 36.0454 202.139C36.2508 202.753 36.8668 203.981 36.0454 205.414C35.6348 206.437 34.4028 207.051 33.3761 207.87C32.7601 207.256 32.3494 207.665 31.9387 207.87C31.7334 208.279 31.3227 208.689 30.9121 209.303C30.2961 210.121 29.8854 211.145 29.0641 211.759C27.2161 213.396 24.9574 214.829 22.6987 216.261C21.0561 217.285 19.4134 218.308 18.1814 219.331C16.744 220.355 15.512 221.583 14.0747 222.811C15.3067 223.016 16.3334 223.016 17.5654 223.22C19.6187 223.63 21.8774 224.039 23.7254 223.834C25.5734 223.834 27.2161 223.63 28.8587 223.425C33.7868 223.016 38.3041 222.606 43.8481 224.039L46.5174 224.653C50.6241 225.676 54.5255 226.7 58.4268 228.542C63.1495 230.588 67.0508 230.588 72.3895 230.384H73.8268C74.4428 230.384 75.0588 230.384 75.6749 230.384C79.3709 230.179 83.0669 230.179 86.3522 232.43C88.8162 233.863 89.8429 236.319 90.8695 238.571C91.4855 239.799 91.8962 240.822 92.5122 241.641C94.5656 244.915 95.7976 246.962 96.2082 251.26C96.2082 252.488 96.2082 253.512 96.2082 254.535C96.0029 256.786 96.0029 258.833 97.0296 260.471C97.4402 261.289 98.0562 262.108 98.8776 262.927C100.11 264.359 101.342 265.792 101.958 268.043C102.163 269.067 102.163 270.09 102.163 270.909C102.163 272.751 102.163 273.365 103.19 273.774C104.011 274.184 106.27 273.979 107.912 273.979C109.144 273.979 110.171 273.979 110.992 273.979H112.635C114.483 273.979 116.536 273.979 118.384 274.184C119.822 274.388 121.875 275.002 122.491 276.64C123.107 278.277 121.875 279.914 120.438 281.552C120.232 281.961 119.822 282.166 119.616 282.575C120.232 282.575 121.054 282.575 121.67 282.575C123.312 282.37 124.955 282.37 126.392 282.984C127.624 283.394 128.035 284.417 128.651 285.031C128.856 285.44 129.062 285.85 129.267 285.85C129.267 285.85 129.678 285.85 130.088 285.85C130.704 285.85 131.526 285.85 132.142 286.464C132.552 286.259 132.552 286.259 132.758 286.054C132.758 285.85 132.758 285.44 132.758 285.236C132.552 284.417 132.552 283.598 132.963 282.575C133.99 280.324 136.454 279.3 138.712 278.482C140.355 277.868 141.792 277.254 142.819 276.23C142.819 276.23 142.819 276.23 142.819 276.026C142.819 275.412 142.819 274.593 143.435 273.979C144.462 272.751 146.104 271.932 147.336 271.318L147.747 271.113C148.568 270.704 149.184 270.499 150.006 270.09C150.827 269.681 151.443 269.476 152.264 269.067C154.112 268.248 155.344 267.02 156.782 265.587L158.014 264.359C159.451 262.927 161.094 261.699 162.736 260.471C163.558 259.856 164.584 259.242 165.406 258.424C167.459 256.786 169.512 256.582 171.36 256.582C172.387 256.582 173.414 256.377 174.646 256.172C175.467 255.968 175.878 255.149 176.494 254.33C177.11 253.307 177.931 252.284 179.574 251.67C180.806 251.26 183.27 251.26 186.35 251.465C187.376 251.465 188.403 251.465 189.019 251.465C191.688 251.465 192.92 252.898 193.742 254.126C194.358 254.944 194.768 255.354 196 255.354C197.027 255.354 197.643 254.33 197.643 254.126C198.054 253.512 197.848 252.898 197.848 252.693C197.848 252.693 197.643 252.488 197.232 252.693C196.616 252.693 196.206 252.488 195.795 252.079C195.59 251.67 195.384 251.056 195.59 250.646C198.054 244.506 203.803 242.664 208.526 241.641C211.195 241.231 214.686 240.208 215.918 239.389C214.48 240.003 212.016 240.617 210.99 240.822Z" fill="#009AE8"/>
<path d="M298.232 198.434C297.825 197.815 297.418 196.991 297.418 196.372C297.214 194.311 298.232 193.28 299.046 192.456C299.046 192.249 299.249 192.249 299.249 192.249C298.028 192.043 296.4 192.249 294.772 192.456C292.126 192.868 289.073 193.486 286.631 191.631C286.02 191.425 285.613 190.806 285.41 190.188C285.41 189.982 285.206 189.776 285.206 189.776C285.002 189.569 284.392 189.569 283.985 189.569C282.967 189.569 282.153 189.363 281.543 188.745C280.118 187.508 280.118 185.24 280.321 182.973C279.914 183.385 279.507 183.797 278.897 184.209C278.286 184.622 277.676 184.828 277.268 185.24C276.454 185.653 275.844 185.859 275.437 186.477C275.03 187.096 275.03 187.714 275.03 188.745C275.03 189.569 275.03 190.6 274.623 191.837C274.216 193.074 273.401 193.899 272.587 194.723C272.18 195.135 271.57 195.548 271.366 196.166C270.552 197.403 270.552 199.052 270.552 200.702V201.526C270.756 206.474 269.331 207.092 266.278 207.505C265.667 207.711 264.65 207.711 263.632 208.123C262.004 208.535 260.376 209.566 258.747 210.803C255.898 212.658 252.845 214.514 248.978 214.101C247.961 214.101 246.943 213.689 246.129 213.277C245.315 212.864 244.501 212.658 243.686 212.658C242.669 212.658 241.651 213.071 240.634 213.483C239.819 213.689 239.005 214.101 238.191 214.308C236.97 214.514 235.749 214.72 234.731 214.72C233.103 214.926 231.678 214.926 230.254 215.751L229.236 216.369C227.608 217.4 226.183 218.224 223.944 218.843C222.316 219.255 220.688 219.461 219.263 219.667C216.007 220.08 213.361 220.492 211.122 222.347C211.326 222.554 211.326 222.554 211.529 222.554C212.14 222.966 212.547 223.378 212.954 223.378C213.768 223.584 215.396 223.378 216.617 223.172C219.67 222.76 224.555 222.141 225.165 226.264C225.573 230.181 221.909 231.212 219.263 231.83C219.874 231.83 220.688 231.83 221.298 231.83C222.723 231.83 224.148 231.83 225.369 231.624C225.776 231.624 226.387 231.83 226.59 232.037C226.997 232.449 226.997 232.861 226.794 233.273C226.794 233.686 226.59 233.892 226.387 234.304C226.794 233.892 227.404 233.686 227.811 233.273C229.643 231.83 231.678 230.181 234.935 230.181C235.545 230.181 236.156 230.8 236.359 231.418C236.563 232.243 236.156 233.067 235.749 233.686C237.377 233.686 239.412 233.273 241.041 232.861C241.651 232.655 242.058 232.243 242.669 231.83C243.483 231.212 244.297 230.593 245.518 230.181C246.536 229.975 247.35 230.387 248.368 230.8C248.775 231.006 249.589 231.212 249.792 231.212C251.217 231.418 252.235 231.212 253.456 231.006C253.863 231.006 254.27 230.8 254.677 230.8C257.933 230.593 261.393 230.8 264.65 231.006H265.464C268.72 231.212 274.623 231.624 277.065 229.563C277.879 228.944 277.879 228.532 277.879 227.501C277.879 226.883 277.879 226.264 278.083 225.44C278.49 222.966 279.711 221.317 281.135 219.874L281.746 219.049C282.153 218.431 282.56 217.606 282.967 216.781C283.374 215.957 283.781 214.926 284.392 214.308C286.427 212.452 288.055 213.277 289.073 212.864C290.498 212.452 291.719 211.421 292.94 210.391C294.161 209.36 295.586 208.123 297.214 207.505C298.232 207.092 298.842 207.092 299.249 206.886C299.249 206.886 299.453 206.886 299.656 206.268C299.86 205.443 299.453 201.526 299.046 200.083C298.842 199.671 298.639 199.052 298.232 198.434Z" fill="#4DC3FA"/>
<path d="M331.328 145.249C332.539 142.008 331.934 140.184 330.924 137.348C330.722 136.538 330.318 135.93 330.116 135.12C329.106 132.284 329.914 130.461 330.722 128.637C331.126 127.625 331.53 126.612 331.53 125.599C331.53 124.991 331.53 124.383 331.53 123.978C331.126 123.776 330.722 123.37 330.722 122.965C330.722 122.763 330.722 122.763 330.722 122.56C330.318 122.155 329.712 121.952 329.106 121.547C328.298 121.142 327.49 120.737 326.682 120.129C325.875 119.521 325.067 118.509 324.259 117.698C322.845 116.078 321.229 114.457 319.614 114.457C319.412 114.457 319.21 114.457 319.008 114.254C317.796 114.66 316.18 114.66 314.766 114.457C313.959 114.457 313.151 114.254 312.545 114.457C310.727 114.457 309.313 114.66 307.9 115.267C307.9 115.47 307.9 115.672 307.9 115.875C307.9 116.483 307.496 116.888 307.092 117.09C306.486 117.293 305.88 117.496 305.274 117.901C301.033 119.724 299.013 120.939 299.215 123.37C299.619 123.37 299.821 123.573 300.225 123.776C302.042 124.991 302.648 128.435 302.85 131.879C303.254 132.081 303.658 132.284 303.86 132.689C304.062 133.094 304.062 133.702 303.86 134.107C302.85 135.525 301.235 135.93 299.821 136.335C299.619 136.335 299.417 136.335 299.417 136.538C303.052 138.766 302.446 141.4 301.639 144.236L301.235 145.857C301.033 147.072 300.629 148.288 300.831 149.301C300.831 149.503 301.033 149.908 301.235 150.313C301.639 150.921 302.244 151.934 302.042 153.149C301.639 154.77 300.427 155.783 299.215 156.796C298.609 157.201 298.003 157.809 297.801 158.214C296.993 159.429 296.589 161.05 296.185 162.671C295.58 165.304 294.772 167.938 292.55 169.558C292.146 169.761 291.54 169.964 291.136 169.761C290.732 169.558 290.328 169.153 290.328 168.545C290.328 168.343 290.126 167.938 289.722 167.938C287.905 167.533 285.077 168.951 284.471 169.761C283.663 170.976 282.856 174.218 283.26 175.433C283.26 175.636 283.663 176.041 283.865 176.243C284.471 176.851 285.077 177.459 285.279 178.472C285.481 179.282 285.077 179.89 284.471 180.092C284.269 180.092 284.269 180.092 284.269 180.295C284.269 180.7 284.269 181.511 284.067 182.321C283.865 183.739 283.663 186.575 284.269 187.183C284.269 187.183 284.673 187.183 285.077 187.183C285.885 187.183 286.895 187.385 287.501 187.79C288.107 187.993 288.511 188.803 288.713 189.209C288.915 189.411 288.915 189.614 289.117 189.614C290.732 190.829 292.954 190.424 295.176 190.019C297.397 189.614 300.023 189.209 302.446 190.424C303.456 189.816 304.466 188.601 303.86 186.98C303.456 186.372 303.86 185.562 304.466 185.157C306.082 184.144 307.294 183.536 308.505 182.321C310.323 180.7 311.131 179.687 312.141 177.864C312.545 177.256 312.949 176.649 313.353 176.041C313.959 175.028 314.968 174.623 315.574 174.218C315.978 174.015 316.382 173.813 316.382 173.61C317.392 172.597 317.392 171.179 317.594 169.558C317.796 168.545 317.796 167.533 317.998 166.52C319.614 162.063 322.239 158.619 324.865 155.175C327.692 151.731 329.914 148.895 331.328 145.249Z" fill="#80D4FC"/>
<path d="M222.713 167.662C225.306 167.662 227.408 165.576 227.408 163.002C227.408 160.429 225.306 158.343 222.713 158.343C220.12 158.343 218.018 160.429 218.018 163.002C218.018 165.576 220.12 167.662 222.713 167.662Z" fill="#FFDD63"/>
<path d="M222.713 169.326C219.192 169.326 216.341 166.497 216.341 163.002C216.341 159.508 219.192 156.678 222.713 156.678C226.235 156.678 229.085 159.508 229.085 163.002C229.085 166.497 226.235 169.326 222.713 169.326ZM222.713 160.007C221.036 160.007 219.695 161.338 219.695 163.002C219.695 164.667 221.036 165.998 222.713 165.998C224.39 165.998 225.732 164.667 225.732 163.002C225.732 161.338 224.39 160.007 222.713 160.007Z" fill="#F4CD3F"/>
<path d="M245.067 231.413C247.66 231.413 249.763 229.326 249.763 226.753C249.763 224.179 247.66 222.093 245.067 222.093C242.474 222.093 240.372 224.179 240.372 226.753C240.372 229.326 242.474 231.413 245.067 231.413Z" fill="#FFDD63"/>
<path d="M245.067 233.077C241.546 233.077 238.696 230.248 238.696 226.753C238.696 223.258 241.546 220.429 245.067 220.429C248.589 220.429 251.439 223.258 251.439 226.753C251.439 230.248 248.589 233.077 245.067 233.077ZM245.067 223.757C243.391 223.757 242.049 225.089 242.049 226.753C242.049 228.417 243.391 229.748 245.067 229.748C246.744 229.748 248.086 228.417 248.086 226.753C248.086 225.089 246.744 223.757 245.067 223.757Z" fill="#F4CD3F"/>
<path d="M163.102 252.111C165.695 252.111 167.797 250.025 167.797 247.451C167.797 244.878 165.695 242.792 163.102 242.792C160.509 242.792 158.407 244.878 158.407 247.451C158.407 250.025 160.509 252.111 163.102 252.111Z" fill="#FFDD63"/>
<path d="M163.102 253.775C159.581 253.775 156.73 250.946 156.73 247.451C156.73 243.956 159.581 241.127 163.102 241.127C166.624 241.127 169.474 243.956 169.474 247.451C169.474 250.946 166.624 253.775 163.102 253.775ZM163.102 244.456C161.426 244.456 160.084 245.787 160.084 247.451C160.084 249.115 161.426 250.447 163.102 250.447C164.779 250.447 166.121 249.115 166.121 247.451C166.121 245.787 164.779 244.456 163.102 244.456Z" fill="#F4CD3F"/>
<path d="M23.88 33L21.48 29.625C21.21 29.655 20.93 29.67 20.64 29.67H17.82V33H16.71V22.5H20.64C21.98 22.5 23.03 22.82 23.79 23.46C24.55 24.1 24.93 24.98 24.93 26.1C24.93 26.92 24.72 27.615 24.3 28.185C23.89 28.745 23.3 29.15 22.53 29.4L25.095 33H23.88ZM20.61 28.725C21.65 28.725 22.445 28.495 22.995 28.035C23.545 27.575 23.82 26.93 23.82 26.1C23.82 25.25 23.545 24.6 22.995 24.15C22.445 23.69 21.65 23.46 20.61 23.46H17.82V28.725H20.61ZM34.9748 32.04V33H27.5498V22.5H34.7498V23.46H28.6598V27.195H34.0898V28.14H28.6598V32.04H34.9748ZM44.9204 27.75H45.9854V31.755C45.4954 32.185 44.9154 32.515 44.2454 32.745C43.5754 32.975 42.8704 33.09 42.1304 33.09C41.0804 33.09 40.1354 32.86 39.2954 32.4C38.4554 31.94 37.7954 31.305 37.3154 30.495C36.8354 29.675 36.5954 28.76 36.5954 27.75C36.5954 26.74 36.8354 25.83 37.3154 25.02C37.7954 24.2 38.4554 23.56 39.2954 23.1C40.1354 22.64 41.0854 22.41 42.1454 22.41C42.9454 22.41 43.6804 22.54 44.3504 22.8C45.0204 23.05 45.5854 23.425 46.0454 23.925L45.3554 24.63C44.5254 23.81 43.4704 23.4 42.1904 23.4C41.3404 23.4 40.5704 23.59 39.8804 23.97C39.2004 24.34 38.6654 24.86 38.2754 25.53C37.8854 26.19 37.6904 26.93 37.6904 27.75C37.6904 28.57 37.8854 29.31 38.2754 29.97C38.6654 30.63 39.2004 31.15 39.8804 31.53C40.5604 31.91 41.3254 32.1 42.1754 32.1C43.2554 32.1 44.1704 31.83 44.9204 31.29V27.75ZM49.127 22.5H50.237V33H49.127V22.5ZM60.2384 30.195H54.3884L53.1284 33H51.9734L56.7734 22.5H57.8684L62.6684 33H61.4984L60.2384 30.195ZM59.8334 29.295L57.3134 23.655L54.7934 29.295H59.8334ZM58.3484 21.555C58.1184 21.555 57.9134 21.505 57.7334 21.405C57.5534 21.295 57.3584 21.145 57.1484 20.955C56.9684 20.805 56.8234 20.7 56.7134 20.64C56.6134 20.57 56.5034 20.535 56.3834 20.535C56.1534 20.535 55.9684 20.62 55.8284 20.79C55.6884 20.96 55.6134 21.195 55.6034 21.495H54.9584C54.9784 20.995 55.1084 20.595 55.3484 20.295C55.5884 19.995 55.9084 19.845 56.3084 19.845C56.5384 19.845 56.7384 19.895 56.9084 19.995C57.0884 20.095 57.2934 20.245 57.5234 20.445C57.6834 20.585 57.8184 20.69 57.9284 20.76C58.0384 20.83 58.1534 20.865 58.2734 20.865C58.4934 20.865 58.6734 20.785 58.8134 20.625C58.9534 20.455 59.0334 20.225 59.0534 19.935H59.6984C59.6784 20.425 59.5484 20.82 59.3084 21.12C59.0684 21.41 58.7484 21.555 58.3484 21.555ZM68.8488 33.09C67.8088 33.09 66.8638 32.86 66.0138 32.4C65.1738 31.93 64.5138 31.29 64.0338 30.48C63.5638 29.67 63.3288 28.76 63.3288 27.75C63.3288 26.74 63.5638 25.83 64.0338 25.02C64.5138 24.21 65.1738 23.575 66.0138 23.115C66.8638 22.645 67.8088 22.41 68.8488 22.41C69.8888 22.41 70.8238 22.64 71.6538 23.1C72.4938 23.56 73.1538 24.2 73.6338 25.02C74.1138 25.83 74.3538 26.74 74.3538 27.75C74.3538 28.76 74.1138 29.675 73.6338 30.495C73.1538 31.305 72.4938 31.94 71.6538 32.4C70.8238 32.86 69.8888 33.09 68.8488 33.09ZM68.8488 32.1C69.6788 32.1 70.4288 31.915 71.0988 31.545C71.7688 31.165 72.2938 30.645 72.6738 29.985C73.0538 29.315 73.2438 28.57 73.2438 27.75C73.2438 26.93 73.0538 26.19 72.6738 25.53C72.2938 24.86 71.7688 24.34 71.0988 23.97C70.4288 23.59 69.6788 23.4 68.8488 23.4C68.0188 23.4 67.2638 23.59 66.5838 23.97C65.9138 24.34 65.3838 24.86 64.9938 25.53C64.6138 26.19 64.4238 26.93 64.4238 27.75C64.4238 28.57 64.6138 29.315 64.9938 29.985C65.3838 30.645 65.9138 31.165 66.5838 31.545C67.2638 31.915 68.0188 32.1 68.8488 32.1ZM83.6626 33.09C82.8826 33.09 82.1326 32.965 81.4126 32.715C80.7026 32.465 80.1526 32.135 79.7626 31.725L80.1976 30.87C80.5776 31.25 81.0826 31.56 81.7126 31.8C82.3426 32.03 82.9926 32.145 83.6626 32.145C84.6026 32.145 85.3076 31.975 85.7776 31.635C86.2476 31.285 86.4826 30.835 86.4826 30.285C86.4826 29.865 86.3526 29.53 86.0926 29.28C85.8426 29.03 85.5326 28.84 85.1626 28.71C84.7926 28.57 84.2776 28.42 83.6176 28.26C82.8276 28.06 82.1976 27.87 81.7276 27.69C81.2576 27.5 80.8526 27.215 80.5126 26.835C80.1826 26.455 80.0176 25.94 80.0176 25.29C80.0176 24.76 80.1576 24.28 80.4376 23.85C80.7176 23.41 81.1476 23.06 81.7276 22.8C82.3076 22.54 83.0276 22.41 83.8876 22.41C84.4876 22.41 85.0726 22.495 85.6426 22.665C86.2226 22.825 86.7226 23.05 87.1426 23.34L86.7676 24.225C86.3276 23.935 85.8576 23.72 85.3576 23.58C84.8576 23.43 84.3676 23.355 83.8876 23.355C82.9676 23.355 82.2726 23.535 81.8026 23.895C81.3426 24.245 81.1126 24.7 81.1126 25.26C81.1126 25.68 81.2376 26.02 81.4876 26.28C81.7476 26.53 82.0676 26.725 82.4476 26.865C82.8376 26.995 83.3576 27.14 84.0076 27.3C84.7776 27.49 85.3976 27.68 85.8676 27.87C86.3476 28.05 86.7526 28.33 87.0826 28.71C87.4126 29.08 87.5776 29.585 87.5776 30.225C87.5776 30.755 87.4326 31.24 87.1426 31.68C86.8626 32.11 86.4276 32.455 85.8376 32.715C85.2476 32.965 84.5226 33.09 83.6626 33.09ZM94.2261 33.09C92.8661 33.09 91.8061 32.7 91.0461 31.92C90.2861 31.14 89.9061 30.005 89.9061 28.515V22.5H91.0161V28.47C91.0161 29.69 91.2911 30.6 91.8411 31.2C92.3911 31.8 93.1861 32.1 94.2261 32.1C95.2761 32.1 96.0761 31.8 96.6261 31.2C97.1761 30.6 97.4511 29.69 97.4511 28.47V22.5H98.5311V28.515C98.5311 30.005 98.1511 31.14 97.3911 31.92C96.6411 32.7 95.5861 33.09 94.2261 33.09ZM101.876 22.5H106.151C107.261 22.5 108.241 22.725 109.091 23.175C109.941 23.615 110.601 24.235 111.071 25.035C111.541 25.825 111.776 26.73 111.776 27.75C111.776 28.77 111.541 29.68 111.071 30.48C110.601 31.27 109.941 31.89 109.091 32.34C108.241 32.78 107.261 33 106.151 33H101.876V22.5ZM106.091 32.04C107.011 32.04 107.816 31.86 108.506 31.5C109.196 31.13 109.731 30.625 110.111 29.985C110.491 29.335 110.681 28.59 110.681 27.75C110.681 26.91 110.491 26.17 110.111 25.53C109.731 24.88 109.196 24.375 108.506 24.015C107.816 23.645 107.011 23.46 106.091 23.46H102.986V32.04H106.091ZM121.694 32.04V33H114.269V22.5H121.469V23.46H115.379V27.195H120.809V28.14H115.379V32.04H121.694ZM127.198 33.09C126.418 33.09 125.668 32.965 124.948 32.715C124.238 32.465 123.688 32.135 123.298 31.725L123.733 30.87C124.113 31.25 124.618 31.56 125.248 31.8C125.878 32.03 126.528 32.145 127.198 32.145C128.138 32.145 128.843 31.975 129.313 31.635C129.783 31.285 130.018 30.835 130.018 30.285C130.018 29.865 129.888 29.53 129.628 29.28C129.378 29.03 129.068 28.84 128.698 28.71C128.328 28.57 127.813 28.42 127.153 28.26C126.363 28.06 125.733 27.87 125.263 27.69C124.793 27.5 124.388 27.215 124.048 26.835C123.718 26.455 123.553 25.94 123.553 25.29C123.553 24.76 123.693 24.28 123.973 23.85C124.253 23.41 124.683 23.06 125.263 22.8C125.843 22.54 126.563 22.41 127.423 22.41C128.023 22.41 128.608 22.495 129.178 22.665C129.758 22.825 130.258 23.05 130.678 23.34L130.303 24.225C129.863 23.935 129.393 23.72 128.893 23.58C128.393 23.43 127.903 23.355 127.423 23.355C126.503 23.355 125.808 23.535 125.338 23.895C124.878 24.245 124.648 24.7 124.648 25.26C124.648 25.68 124.773 26.02 125.023 26.28C125.283 26.53 125.603 26.725 125.983 26.865C126.373 26.995 126.893 27.14 127.543 27.3C128.313 27.49 128.933 27.68 129.403 27.87C129.883 28.05 130.288 28.33 130.618 28.71C130.948 29.08 131.113 29.585 131.113 30.225C131.113 30.755 130.968 31.24 130.678 31.68C130.398 32.11 129.963 32.455 129.373 32.715C128.783 32.965 128.058 33.09 127.198 33.09ZM135.425 23.46H131.735V22.5H140.225V23.46H136.535V33H135.425V23.46ZM149.423 32.04V33H141.998V22.5H149.198V23.46H143.108V27.195H148.538V28.14H143.108V32.04H149.423Z" fill="#656868"/>
</svg>
