<svg width="32" height="42" viewBox="0 0 32 42" fill="none" xmlns="http://www.w3.org/2000/svg">
<g clip-path="url(#clip0)">
<path d="M30.5455 4.81079V39.9536H1.45459V4.81079H7.27277V7.73936H24.7273V4.81079H30.5455Z" fill="white"/>
<path d="M24.7275 1.8822H7.27295V7.73934H24.7275V1.8822Z" fill="#F4CD3F"/>
<path d="M30.5455 3.34654H26.1818V1.88225C26.1818 1.00368 25.6 0.417969 24.7273 0.417969H7.27273C6.4 0.417969 5.81818 1.00368 5.81818 1.88225V3.34654H1.45455C0.581818 3.34654 0 3.93225 0 4.81083V39.9537C0 40.8323 0.581818 41.418 1.45455 41.418H30.5455C31.4182 41.418 32 40.8323 32 39.9537V4.81083C32 3.93225 31.4182 3.34654 30.5455 3.34654ZM8.72727 3.34654H23.2727C23.2727 4.37154 23.2727 5.25011 23.2727 6.27511H8.72727C8.72727 5.25011 8.72727 4.37154 8.72727 3.34654ZM29.0909 38.4894H2.90909V6.27511H5.81818V7.7394C5.81818 8.61797 6.4 9.20368 7.27273 9.20368H24.7273C25.6 9.20368 26.1818 8.61797 26.1818 7.7394V6.27511H29.0909V38.4894Z" fill="#0077BF"/>
<path d="M23.2729 13.5966H8.72749C7.85477 13.5966 7.27295 14.1823 7.27295 15.0608C7.27295 15.9394 7.85477 16.5251 8.72749 16.5251H23.2729C24.1457 16.5251 24.7275 15.9394 24.7275 15.0608C24.7275 14.1823 24.1457 13.5966 23.2729 13.5966Z" fill="#0077BF"/>
<path d="M23.2729 25.3108H8.72749C7.85477 25.3108 7.27295 25.8965 7.27295 26.7751C7.27295 27.6536 7.85477 28.2394 8.72749 28.2394H23.2729C24.1457 28.2394 24.7275 27.6536 24.7275 26.7751C24.7275 25.8965 24.1457 25.3108 23.2729 25.3108Z" fill="#0077BF"/>
<path d="M23.2729 31.168H8.72749C7.85477 31.168 7.27295 31.7537 7.27295 32.6323C7.27295 33.5108 7.85477 34.0965 8.72749 34.0965H23.2729C24.1457 34.0965 24.7275 33.5108 24.7275 32.6323C24.7275 31.7537 24.1457 31.168 23.2729 31.168Z" fill="#0077BF"/>
<path d="M23.2729 19.4537H8.72749C7.85477 19.4537 7.27295 20.0394 7.27295 20.918C7.27295 21.7966 7.85477 22.3823 8.72749 22.3823H23.2729C24.1457 22.3823 24.7275 21.7966 24.7275 20.918C24.7275 20.0394 24.1457 19.4537 23.2729 19.4537Z" fill="#0077BF"/>
</g>
<defs>
<clipPath id="clip0">
<rect width="32" height="41" fill="white" transform="translate(0 0.417969)"/>
</clipPath>
</defs>
</svg>
