<svg width="40" height="40" viewBox="0 0 40 40" fill="none" xmlns="http://www.w3.org/2000/svg">
<path d="M28.5716 1.42859V38.5714H1.42871V8.57145L8.57157 1.42859H28.5716Z" fill="white"/>
<path d="M32.8574 34.2857V4.42859C32.8574 3.00002 33.8574 1.7143 35.1431 1.42859C35.286 1.42859 35.5717 1.42859 35.7146 1.42859C37.286 1.42859 38.5717 2.7143 38.5717 4.28573V34.2857L35.7146 38.5714L32.8574 34.2857Z" fill="#F4CD3F"/>
<path d="M22.857 11.4286H18.5713V15.7143H22.857V11.4286Z" fill="#00ADEE"/>
<path d="M22.857 20H18.5713V24.2857H22.857V20Z" fill="#00ADEE"/>
<path d="M22.857 28.5714H18.5713V32.8571H22.857V28.5714Z" fill="#00ADEE"/>
<path d="M8.57157 1.42859V8.57145H1.42871L8.57157 1.42859Z" fill="#00ADEE"/>
<path d="M6.85728 8.57145H1.42871L5.57157 4.42859C6.00014 5.7143 6.42871 7.14288 6.85728 8.57145Z" fill="#0077BF"/>
<path d="M35.7146 1.42859C34.0003 1.42859 33.0003 2.85716 32.8574 4.28573V7.14287H38.5717V4.28573C38.5717 2.7143 37.286 1.42859 35.7146 1.42859Z" fill="white"/>
<path d="M32.8574 32.8572V34.2857L35.7146 38.5715L38.5717 34.2857V32.8572H32.8574Z" fill="white"/>
<path d="M28.5714 0H8.57143C8.28571 0 7.85714 0.142857 7.57143 0.428571L0.428571 7.57143C0.142857 7.85714 0 8.28571 0 8.57143V38.5714C0 39.4286 0.571429 40 1.42857 40H28.5714C29.4286 40 30 39.4286 30 38.5714V1.42857C30 0.571429 29.4286 0 28.5714 0ZM7.14286 4.85714V7.14286H4.85714L7.14286 4.85714ZM27.1429 37.1429H2.85714V10H8.57143C9.42857 10 10 9.42857 10 8.57143V2.85714H27.1429V37.1429Z" fill="#0077BF"/>
<path d="M35.7144 0C33.2859 0 31.4287 1.85714 31.4287 4.28571V34.5714C31.4287 34.8571 31.5716 35.1429 31.7144 35.4286L34.5716 39.4286C34.8573 39.8571 35.2859 40 35.7144 40C36.143 40 36.5716 39.7143 36.8573 39.4286L39.7144 35.4286C39.8573 35.1429 40.0001 34.8571 40.0001 34.5714V4.28571C40.0001 1.85714 38.143 0 35.7144 0ZM34.2859 8.57143H37.143V31.4286H34.2859V8.57143ZM35.7144 2.85714C36.5716 2.85714 37.143 3.42857 37.143 4.28571V5.71429H34.2859V4.28571C34.2859 3.42857 34.8573 2.85714 35.7144 2.85714ZM35.7144 36.1429L34.4287 34.2857H37.0001L35.7144 36.1429Z" fill="#0077BF"/>
<path d="M18.5711 17.1429H22.8569C23.714 17.1429 24.2854 16.5714 24.2854 15.7143V11.4286C24.2854 10.5714 23.714 10 22.8569 10H18.5711C17.714 10 17.1426 10.5714 17.1426 11.4286V15.7143C17.1426 16.5714 17.714 17.1429 18.5711 17.1429ZM19.9997 12.8571H21.4283V14.2857H19.9997V12.8571Z" fill="#0077BF"/>
<path d="M7.14244 12.8572C6.2853 12.8572 5.71387 13.4286 5.71387 14.2857C5.71387 15.1429 6.2853 15.7143 7.14244 15.7143H14.2853C15.1424 15.7143 15.7139 15.1429 15.7139 14.2857C15.7139 13.4286 15.1424 12.8572 14.2853 12.8572H7.14244Z" fill="#0077BF"/>
<path d="M18.5711 25.7143H22.8569C23.714 25.7143 24.2854 25.1428 24.2854 24.2857V20C24.2854 19.1428 23.714 18.5714 22.8569 18.5714H18.5711C17.714 18.5714 17.1426 19.1428 17.1426 20V24.2857C17.1426 25.1428 17.714 25.7143 18.5711 25.7143ZM19.9997 21.4286H21.4283V22.8571H19.9997V21.4286Z" fill="#0077BF"/>
<path d="M14.2853 21.4286H7.14244C6.2853 21.4286 5.71387 22 5.71387 22.8572C5.71387 23.7143 6.2853 24.2857 7.14244 24.2857H14.2853C15.1424 24.2857 15.7139 23.7143 15.7139 22.8572C15.7139 22 15.1424 21.4286 14.2853 21.4286Z" fill="#0077BF"/>
<path d="M18.5711 34.2857H22.8569C23.714 34.2857 24.2854 33.7143 24.2854 32.8571V28.5714C24.2854 27.7143 23.714 27.1428 22.8569 27.1428H18.5711C17.714 27.1428 17.1426 27.7143 17.1426 28.5714V32.8571C17.1426 33.7143 17.714 34.2857 18.5711 34.2857ZM19.9997 30H21.4283V31.4285H19.9997V30Z" fill="#0077BF"/>
<path d="M14.2853 30H7.14244C6.2853 30 5.71387 30.5714 5.71387 31.4286C5.71387 32.2857 6.2853 32.8571 7.14244 32.8571H14.2853C15.1424 32.8571 15.7139 32.2857 15.7139 31.4286C15.7139 30.5714 15.1424 30 14.2853 30Z" fill="#0077BF"/>
</svg>
