<svg width="43" height="40" viewBox="0 0 43 40" fill="none" xmlns="http://www.w3.org/2000/svg">
<path d="M26.1076 23.077V32.3077H12.2861L1.53613 38.4616V10.7693H16.8933V23.077H26.1076Z" fill="#FFDD63"/>
<path d="M41.464 1.53845V29.2308L30.714 23.0769H16.8926V1.53845H41.464Z" fill="white"/>
<path d="M41.4643 0H16.8929C15.9714 0 15.3571 0.615385 15.3571 1.53846V9.23077H1.53571C0.614286 9.23077 0 9.84615 0 10.7692V38.4615C0 39.0769 0.307143 39.5385 0.767857 39.8462C1.075 40 1.22857 40 1.53571 40C1.84286 40 1.99643 40 2.30357 39.8462L12.7464 33.8462H26.1071C27.0286 33.8462 27.6429 33.2308 27.6429 32.3077V24.6154H30.2536L40.6964 30.6154C41.0036 30.7692 41.1571 30.7692 41.4643 30.7692C41.7714 30.7692 41.925 30.7692 42.2321 30.6154C42.6929 30.3077 43 29.8462 43 29.2308V1.53846C43 0.615385 42.3857 0 41.4643 0ZM24.5714 30.7692H12.2857C11.9786 30.7692 11.825 30.7692 11.5179 30.9231L3.07143 35.8462V12.3077H15.3571V23.0769C15.3571 24 15.9714 24.6154 16.8929 24.6154H24.5714V30.7692ZM39.9286 26.6154L31.4821 21.8462C31.175 21.5385 31.0214 21.5385 30.7143 21.5385C26.1071 21.5385 22.7286 21.5385 18.4286 21.5385C18.4286 15.0769 18.4286 9.53846 18.4286 3.07692H39.9286V26.6154Z" fill="#0077BF"/>
<path d="M30.407 15.3846H28.1034C27.7963 15.3846 27.6427 15.2307 27.6427 15.0769C27.6427 14.1538 27.0284 13.5384 26.107 13.5384C25.1856 13.5384 24.5713 14.1538 24.5713 15.0769C24.5713 16.923 25.9534 18.3077 27.6427 18.4615C27.6427 19.3846 28.257 20 29.1784 20C30.0999 20 30.7141 19.3846 30.7141 18.4615C32.4034 18.3077 33.7856 16.7692 33.7856 15.0769C33.7856 13.6923 33.0177 12.6154 31.9427 12L27.9499 9.99997C27.7963 9.99997 27.7963 9.84613 27.7963 9.69228C27.6427 9.38459 27.7963 9.23074 27.9499 9.23074H30.2534C30.5606 9.23074 30.7141 9.38459 30.7141 9.53843C30.7141 10.4615 31.3284 11.0769 32.2499 11.0769C33.1713 11.0769 33.7856 10.4615 33.7856 9.53843C33.7856 7.69228 32.4034 6.30766 30.7141 6.15382C30.7141 5.23074 30.0999 4.61536 29.1784 4.61536C28.257 4.61536 27.6427 5.23074 27.6427 6.15382C25.9534 6.30766 24.5713 7.84613 24.5713 9.53843C24.5713 10.923 25.3391 12 26.4141 12.6154L30.407 14.6154C30.5606 14.6154 30.5606 14.7692 30.5606 14.923C30.7141 15.2307 30.5606 15.3846 30.407 15.3846Z" fill="#0077BF"/>
</svg>
