<svg width="38" height="38" viewBox="0 0 38 38" fill="none" xmlns="http://www.w3.org/2000/svg">
<path d="M36.6426 16.2857V33.9285C36.6426 35.4214 35.4212 36.6428 33.9284 36.6428H4.07122C2.57836 36.6428 1.35693 35.4214 1.35693 33.9285V16.2857C1.35693 15.7428 1.49265 15.0642 1.76408 14.6571C2.30693 13.1642 3.79979 12.2142 5.42836 12.2142H32.5712C34.8784 12.2142 36.6426 13.9785 36.6426 16.2857Z" fill="white"/>
<path d="M13.5713 6.78575V1.35718H24.4284V6.78575H13.5713Z" fill="#00ADEE"/>
<path d="M24.4287 17.6429V1.35718C24.5644 1.35718 24.4287 1.35718 24.4287 1.35718L29.3144 3.80003L29.8573 4.07146V17.6429H24.4287Z" fill="white"/>
<path d="M8.14307 17.6429V4.07148L8.68592 3.80005L13.5716 1.35719C13.8431 1.22148 13.4359 1.35719 13.5716 1.35719V17.6429H8.14307Z" fill="white"/>
<path d="M36.6426 17.6428H1.35693V23.0714H36.6426V17.6428Z" fill="#F4CD3F"/>
<path d="M32.5714 10.8571H31.2143V4.07143C31.2143 3.52857 30.9429 3.12143 30.4 2.85L24.9714 0.135714C24.9714 0.135714 24.5643 0 24.4286 0H13.5714C13.4357 0 13.1643 0.135714 13.0286 0.135714L7.6 2.85C7.05714 3.12143 6.78571 3.52857 6.78571 4.07143V10.8571H5.42857C2.44286 10.8571 0 13.3 0 16.2857C0 18.8643 0 18.3214 0 33.9286C0 36.2357 1.76429 38 4.07143 38H33.9286C36.2357 38 38 36.2357 38 33.9286C38 10.9929 38 30.5357 38 16.2857C38 13.3 35.5571 10.8571 32.5714 10.8571ZM32.5714 13.5714C34.0643 13.5714 35.2857 14.7929 35.2857 16.2857H31.2143V13.5714H32.5714ZM2.71429 21.7143V19C30.6714 19 20.9 19 35.2857 19V21.7143H2.71429ZM23.0714 10.8571H14.9286V8.14286H23.0714V10.8571ZM14.9286 13.5714H23.0714V16.2857H14.9286V13.5714ZM28.5 16.2857H25.7857C25.7857 8.27857 25.7857 11.5357 25.7857 3.52857L28.5 4.88571C28.5 9.09286 28.5 11.9429 28.5 16.2857ZM23.0714 5.42857H14.9286V2.71429H23.0714V5.42857ZM9.5 4.88571L12.2143 3.52857C12.2143 11.5357 12.2143 8.27857 12.2143 16.2857H9.5V12.2143V4.88571ZM5.42857 13.5714H6.78571V16.2857H2.71429C2.71429 14.7929 3.93571 13.5714 5.42857 13.5714ZM33.9286 35.2857H4.07143C3.25714 35.2857 2.71429 34.7429 2.71429 33.9286V24.4286H6.78571V25.7857C6.78571 26.6 7.32857 27.1429 8.14286 27.1429C8.95714 27.1429 9.5 26.6 9.5 25.7857V24.4286H35.2857V33.9286C35.2857 34.7429 34.7429 35.2857 33.9286 35.2857Z" fill="#0077BF"/>
</svg>
