<svg width="50" height="47" viewBox="0 0 50 47" fill="none" xmlns="http://www.w3.org/2000/svg">
<path d="M30.3571 27.1153V37.9615H14.2856L1.78564 45.1923V12.6538H19.6428V27.1153H30.3571Z" fill="#00ADEE"/>
<path d="M48.2143 1.80762V34.3461L35.7143 27.1153H19.6428V1.80762H48.2143Z" fill="white"/>
<path d="M48.2143 0H19.6429C18.5714 0 17.8571 0.723077 17.8571 1.80769V10.8462H1.78571C0.714286 10.8462 0 11.5692 0 12.6538V45.1923C0 45.9154 0.357143 46.4577 0.892857 46.8192C1.25 47 1.42857 47 1.78571 47C2.14286 47 2.32143 47 2.67857 46.8192L14.8214 39.7692H30.3571C31.4286 39.7692 32.1429 39.0462 32.1429 37.9615V28.9231H35.1786L47.3214 35.9731C47.6786 36.1538 47.8571 36.1538 48.2143 36.1538C48.5714 36.1538 48.75 36.1538 49.1071 35.9731C49.6429 35.6115 50 35.0692 50 34.3462V1.80769C50 0.723077 49.2857 0 48.2143 0ZM28.5714 36.1538H14.2857C13.9286 36.1538 13.75 36.1538 13.3929 36.3346L3.57143 42.1192V14.4615H17.8571V27.1154C17.8571 28.2 18.5714 28.9231 19.6429 28.9231H28.5714V36.1538ZM46.4286 31.2731L36.6071 25.6692C36.25 25.3077 36.0714 25.3077 35.7143 25.3077C30.3571 25.3077 26.4286 25.3077 21.4286 25.3077C21.4286 17.7154 21.4286 11.2077 21.4286 3.61538H46.4286V31.2731Z" fill="#0077BF"/>
<path d="M26.6128 8.91382H37.0967" stroke="#F4CD3F" stroke-width="3" stroke-linecap="round"/>
<path d="M26.6128 14.5862H41.1289" stroke="#F4CD3F" stroke-width="3" stroke-linecap="round"/>
</svg>
