<svg width="47" height="47" viewBox="0 0 47 47" fill="none" xmlns="http://www.w3.org/2000/svg">
<path d="M5.03561 36.9287C3.18918 36.9287 1.67847 35.418 1.67847 33.5715V25.1787C1.67847 23.3322 3.18918 21.8215 5.03561 21.8215H11.7499V36.9287H5.03561Z" fill="#00ADEE"/>
<path d="M35.25 36.9287V21.8215H41.9643C43.8107 21.8215 45.3214 23.3322 45.3214 25.1787V33.5715C45.3214 35.418 43.8107 36.9287 41.9643 36.9287H35.25Z" fill="#00ADEE"/>
<path d="M21.8215 45.3215C19.9751 45.3215 18.4644 43.8108 18.4644 41.9643C18.4644 40.1179 19.9751 38.6072 21.8215 38.6072H25.1786C27.0251 38.6072 28.5358 40.1179 28.5358 41.9643C28.5358 43.8108 27.0251 45.3215 25.1786 45.3215H21.8215Z" fill="#F4CD3F"/>
<path d="M41.9643 20.1429V18.4643C41.9643 8.225 33.7393 0 23.5 0C13.2607 0 5.03571 8.225 5.03571 18.4643V20.1429C2.18214 20.1429 0 22.325 0 25.1786V33.5714C0 36.425 2.18214 38.6071 5.03571 38.6071H11.75C12.7571 38.6071 13.4286 37.9357 13.4286 36.9286V21.8214C13.4286 20.8143 12.7571 20.1429 11.75 20.1429H8.39286V18.4643C8.39286 10.0714 15.1071 3.35714 23.5 3.35714C31.8929 3.35714 38.6071 10.0714 38.6071 18.4643V20.1429H35.25C34.2429 20.1429 33.5714 20.8143 33.5714 21.8214V36.9286C33.5714 37.9357 34.2429 38.6071 35.25 38.6071H38.6071C38.6071 39.6143 37.9357 40.2857 36.9286 40.2857H29.8786C29.2071 38.2714 27.3607 36.9286 25.1786 36.9286H21.8214C18.9679 36.9286 16.7857 39.1107 16.7857 41.9643C16.7857 44.8179 18.9679 47 21.8214 47H25.1786C27.3607 47 29.2071 45.6571 29.8786 43.6429H36.9286C39.7821 43.6429 41.9643 41.4607 41.9643 38.6071C44.8179 38.6071 47 36.425 47 33.5714V25.1786C47 22.325 44.8179 20.1429 41.9643 20.1429ZM10.0714 35.25H5.03571C4.02857 35.25 3.35714 34.5786 3.35714 33.5714V25.1786C3.35714 24.1714 4.02857 23.5 5.03571 23.5H10.0714V35.25ZM25.1786 43.6429H21.8214C20.8143 43.6429 20.1429 42.9714 20.1429 41.9643C20.1429 40.9571 20.8143 40.2857 21.8214 40.2857H25.1786C26.1857 40.2857 26.8571 40.9571 26.8571 41.9643C26.8571 42.9714 26.1857 43.6429 25.1786 43.6429ZM43.6429 33.5714C43.6429 34.5786 42.9714 35.25 41.9643 35.25H36.9286V23.5H41.9643C42.9714 23.5 43.6429 24.1714 43.6429 25.1786V33.5714Z" fill="#0077BF"/>
</svg>
