<svg width="48" height="45" viewBox="0 0 48 45" fill="none" xmlns="http://www.w3.org/2000/svg">
<path d="M46.2858 15.7499V39.8076C46.2858 41.7115 44.7429 43.2692 42.8572 43.2692H5.14293C3.25721 43.2692 1.71436 41.7115 1.71436 39.8076V15.7499C1.71436 14.5384 2.40007 13.4999 3.42864 12.8076L6.51436 11.0769L24.0001 1.73071L44.5715 12.8076C45.6001 13.4999 46.2858 14.5384 46.2858 15.7499Z" fill="white"/>
<path d="M46.2858 39.8075C46.2858 41.7113 44.7429 43.269 42.8572 43.269H5.14293C3.25721 43.269 1.71436 41.7113 1.71436 39.8075L13.7144 31.3267L19.7144 27.1729L24.0001 29.4229L28.2858 27.1729L42.3429 37.0382L46.2858 39.8075Z" fill="#F4CD3F"/>
<path d="M46.2858 15.7499V17.3076L24.0001 29.423L7.3715 20.423L1.71436 17.3076V15.7499C1.71436 14.5384 2.40007 13.4999 3.42864 12.8076L6.51436 11.0769L24.0001 1.73071L44.5715 12.8076C45.6001 13.4999 46.2858 14.5384 46.2858 15.7499Z" fill="#00ADEE"/>
<path d="M45.4286 11.2499L24.8571 0.172945C24.3429 -0.173208 23.8286 -0.173208 23.3143 0.172945L2.4 11.4229C0.857143 12.2883 0 14.0191 0 15.7499V39.8076C0 42.7499 2.22857 44.9999 5.14286 44.9999H42.8571C45.7714 44.9999 48 42.7499 48 39.8076V15.7499C48 14.0191 47.1429 12.2883 45.4286 11.2499ZM31.5429 27.346L44.5714 20.2499V36.5191L31.5429 27.346ZM4.11429 14.3653L24 3.63448L43.7143 14.1922C44.2286 14.5383 44.5714 15.2306 44.5714 15.7499V16.2691L24 27.5191L3.42857 16.2691V15.7499C3.42857 15.2306 3.77143 14.5383 4.11429 14.3653ZM3.42857 20.2499L16.4571 27.346L3.42857 36.5191V20.2499ZM42.8571 41.5383H5.14286C4.45714 41.5383 3.94286 41.1922 3.6 40.4999L19.8857 29.0768L23.3143 30.9806C23.8286 31.3268 24.5143 31.3268 24.8571 30.9806L28.2857 29.0768L44.5714 40.4999C44.0571 41.1922 43.5429 41.5383 42.8571 41.5383Z" fill="#0077BF"/>
</svg>
