<svg width="311" height="391" viewBox="0 0 311 391" fill="none" xmlns="http://www.w3.org/2000/svg">
<rect x="1" y="1" width="309" height="389" rx="8" stroke="#21DCB2" stroke-width="2"/>
<path d="M109.344 47.248H108.689L108.427 47.8488L98.4482 70.7689C96.2631 75.4522 94.828 79.0529 94.1803 81.5356C93.5355 84.0072 93.2119 86.484 93.2119 88.964C93.2119 94.3984 94.961 98.882 98.5081 102.318C102.046 105.746 106.571 107.436 111.996 107.436C117.421 107.436 121.946 105.746 125.484 102.318C129.031 98.882 130.78 94.3984 130.78 88.964C130.78 85.274 129.912 82.0194 128.139 79.2403C126.615 76.6071 124.484 74.574 121.768 73.1499L128.869 48.525L129.237 47.248H127.908H109.344ZM150.216 47.248H149.561L149.299 47.8488L139.32 70.7689C137.135 75.4522 135.7 79.0529 135.052 81.5356C134.408 84.0072 134.084 86.484 134.084 88.964C134.084 94.3984 135.833 98.882 139.38 102.318C142.918 105.746 147.443 107.436 152.868 107.436C158.293 107.436 162.818 105.746 166.356 102.318C169.903 98.882 171.652 94.3984 171.652 88.964C171.652 85.274 170.784 82.0195 169.011 79.2404C167.487 76.6071 165.356 74.574 162.64 73.1499L169.741 48.525L170.109 47.248H168.78H150.216Z" stroke="#21DCB2" stroke-width="2"/>
</svg>
