<svg width="311" height="391" viewBox="0 0 311 391" fill="none" xmlns="http://www.w3.org/2000/svg">
<rect x="1" y="1" width="309" height="389" rx="8" stroke="#21DCB2" stroke-width="2"/>
<path d="M120.576 73.676L118.654 73.1219L118.18 74.7684L119.734 75.49L120.576 73.676ZM127.284 79.76L125.552 80.7594L125.575 80.7993L125.599 80.8381L127.284 79.76ZM124.788 101.6L126.18 103.036L124.788 101.6ZM99.204 101.6L97.8124 103.036H97.8124L99.204 101.6ZM95.148 81.788L93.2128 81.2832L95.148 81.788ZM99.36 71.18L101.172 72.0258L101.183 72.0022L101.194 71.9784L99.36 71.18ZM109.344 48.248V46.248H108.033L107.51 47.4496L109.344 48.248ZM127.908 48.248L129.83 48.8021L130.566 46.248H127.908V48.248ZM161.448 73.676L159.526 73.1219L159.052 74.7684L160.606 75.49L161.448 73.676ZM168.156 79.76L166.424 80.7594L166.447 80.7993L166.471 80.8381L168.156 79.76ZM165.66 101.6L167.052 103.036L165.66 101.6ZM140.076 101.6L138.684 103.036L140.076 101.6ZM140.232 71.18L142.044 72.0258L142.055 72.0022L142.066 71.9784L140.232 71.18ZM150.216 48.248V46.248H148.905L148.382 47.4496L150.216 48.248ZM168.78 48.248L170.702 48.8021L171.438 46.248H168.78V48.248ZM119.734 75.49C122.284 76.6739 124.204 78.4228 125.552 80.7594L129.016 78.7606C127.244 75.6892 124.692 73.3821 121.418 71.862L119.734 75.49ZM125.599 80.8381C127.029 83.0714 127.78 85.7531 127.78 88.964H131.78C131.78 85.1029 130.867 81.6486 128.969 78.6819L125.599 80.8381ZM127.78 88.964C127.78 93.6952 126.286 97.364 123.396 100.164L126.18 103.036C129.946 99.388 131.78 94.6328 131.78 88.964H127.78ZM123.396 100.164C120.488 102.981 116.746 104.436 111.996 104.436V108.436C117.646 108.436 122.432 106.667 126.18 103.036L123.396 100.164ZM111.996 104.436C107.246 104.436 103.504 102.981 100.596 100.164L97.8124 103.036C101.56 106.667 106.346 108.436 111.996 108.436V104.436ZM100.596 100.164C97.7057 97.364 96.212 93.6952 96.212 88.964H92.212C92.212 94.6328 94.0463 99.388 97.8124 103.036L100.596 100.164ZM96.212 88.964C96.212 86.748 96.5008 84.5255 97.0832 82.2928L93.2128 81.2832C92.5472 83.8345 92.212 86.396 92.212 88.964H96.212ZM97.0832 82.2928C97.6588 80.0864 98.9969 76.6876 101.172 72.0258L97.5476 70.3342C95.3551 75.0324 93.8852 78.7056 93.2128 81.2832L97.0832 82.2928ZM101.194 71.9784L111.178 49.0464L107.51 47.4496L97.5263 70.3816L101.194 71.9784ZM109.344 50.248H127.908V46.248H109.344V50.248ZM125.986 47.6939L118.654 73.1219L122.498 74.2301L129.83 48.8021L125.986 47.6939ZM160.606 75.49C163.156 76.6739 165.076 78.4228 166.424 80.7594L169.888 78.7606C168.116 75.6892 165.564 73.3821 162.29 71.862L160.606 75.49ZM166.471 80.8381C167.901 83.0714 168.652 85.7531 168.652 88.964H172.652C172.652 85.1029 171.739 81.6486 169.841 78.6819L166.471 80.8381ZM168.652 88.964C168.652 93.6952 167.158 97.364 164.268 100.164L167.052 103.036C170.818 99.388 172.652 94.6328 172.652 88.964H168.652ZM164.268 100.164C161.36 102.981 157.618 104.436 152.868 104.436V108.436C158.518 108.436 163.304 106.667 167.052 103.036L164.268 100.164ZM152.868 104.436C148.118 104.436 144.376 102.981 141.468 100.164L138.684 103.036C142.432 106.667 147.218 108.436 152.868 108.436V104.436ZM141.468 100.164C138.578 97.364 137.084 93.6952 137.084 88.964H133.084C133.084 94.6328 134.918 99.388 138.684 103.036L141.468 100.164ZM137.084 88.964C137.084 86.748 137.373 84.5255 137.955 82.2928L134.085 81.2832C133.419 83.8345 133.084 86.396 133.084 88.964H137.084ZM137.955 82.2928C138.531 80.0864 139.869 76.6876 142.044 72.0258L138.42 70.3342C136.227 75.0324 134.757 78.7056 134.085 81.2832L137.955 82.2928ZM142.066 71.9784L152.05 49.0464L148.382 47.4496L138.398 70.3816L142.066 71.9784ZM150.216 50.248H168.78V46.248H150.216V50.248ZM166.858 47.6939L159.526 73.1219L163.37 74.2301L170.702 48.8021L166.858 47.6939Z" fill="#21DCB2"/>
</svg>
