<svg width="10" height="18" viewBox="0 0 10 18" fill="none" xmlns="http://www.w3.org/2000/svg">
<g clip-path="url(#clip0)">
<path d="M1 17.3999C0.9 17.3999 0.7 17.3999 0.6 17.2999C0.2 17.0999 0 16.7999 0 16.3999V0.999901C0 0.599901 0.2 0.199901 0.6 0.0999014C1 -0.100099 1.4 -9.85563e-05 1.7 0.299901L9.5 7.9999C9.7 8.1999 9.8 8.3999 9.8 8.6999C9.8 8.9999 9.7 9.1999 9.5 9.3999L1.7 17.0999C1.5 17.2999 1.3 17.3999 1 17.3999ZM2 3.3999V13.9999L7.4 8.6999L2 3.3999Z" fill="#0077BF"/>
</g>
<defs>
<clipPath id="clip0">
<rect width="9.8" height="17.4" fill="white"/>
</clipPath>
</defs>
</svg>
