<svg width="20" height="20" viewBox="0 0 20 20" fill="none" xmlns="http://www.w3.org/2000/svg">
<path d="M17.8571 8.57143V7.85714C17.8571 3.5 14.3571 0 10 0C5.64286 0 2.14286 3.5 2.14286 7.85714V8.57143C0.928571 8.57143 0 9.5 0 10.7143V14.2857C0 15.5 0.928571 16.4286 2.14286 16.4286H5C5.42857 16.4286 5.71429 16.1429 5.71429 15.7143V9.28571C5.71429 8.85714 5.42857 8.57143 5 8.57143H3.57143V7.85714C3.57143 4.28571 6.42857 1.42857 10 1.42857C13.5714 1.42857 16.4286 4.28571 16.4286 7.85714V8.57143H15C14.5714 8.57143 14.2857 8.85714 14.2857 9.28571V15.7143C14.2857 16.1429 14.5714 16.4286 15 16.4286H16.4286C16.4286 16.8571 16.1429 17.1429 15.7143 17.1429H12.7143C12.4286 16.2857 11.6429 15.7143 10.7143 15.7143H9.28571C8.07143 15.7143 7.14286 16.6429 7.14286 17.8571C7.14286 19.0714 8.07143 20 9.28571 20H10.7143C11.6429 20 12.4286 19.4286 12.7143 18.5714H15.7143C16.9286 18.5714 17.8571 17.6429 17.8571 16.4286C19.0714 16.4286 20 15.5 20 14.2857V10.7143C20 9.5 19.0714 8.57143 17.8571 8.57143ZM4.28571 15H2.14286C1.71429 15 1.42857 14.7143 1.42857 14.2857V10.7143C1.42857 10.2857 1.71429 10 2.14286 10H4.28571V15ZM10.7143 18.5714H9.28571C8.85714 18.5714 8.57143 18.2857 8.57143 17.8571C8.57143 17.4286 8.85714 17.1429 9.28571 17.1429H10.7143C11.1429 17.1429 11.4286 17.4286 11.4286 17.8571C11.4286 18.2857 11.1429 18.5714 10.7143 18.5714ZM18.5714 14.2857C18.5714 14.7143 18.2857 15 17.8571 15H15.7143V10H17.8571C18.2857 10 18.5714 10.2857 18.5714 10.7143V14.2857Z" fill="white"/>
</svg>
