<svg width="45" height="45" viewBox="0 0 45 45" fill="none" xmlns="http://www.w3.org/2000/svg">
<path d="M4.82146 35.3569C3.05361 35.3569 1.60718 33.9104 1.60718 32.1426V24.1069C1.60718 22.339 3.05361 20.8926 4.82146 20.8926H11.25V35.3569H4.82146Z" fill="#00ADEE"/>
<path d="M33.75 35.3569V20.8926H40.1786C41.9464 20.8926 43.3929 22.339 43.3929 24.1069V32.1426C43.3929 33.9104 41.9464 35.3569 40.1786 35.3569H33.75Z" fill="#00ADEE"/>
<path d="M20.8928 43.3924C19.1249 43.3924 17.6785 41.946 17.6785 40.1782C17.6785 38.4103 19.1249 36.9639 20.8928 36.9639H24.107C25.8749 36.9639 27.3213 38.4103 27.3213 40.1782C27.3213 41.946 25.8749 43.3924 24.107 43.3924H20.8928Z" fill="#F4CD3F"/>
<path d="M40.1786 19.2857V17.6786C40.1786 7.875 32.3036 0 22.5 0C12.6964 0 4.82143 7.875 4.82143 17.6786V19.2857C2.08929 19.2857 0 21.375 0 24.1071V32.1429C0 34.875 2.08929 36.9643 4.82143 36.9643H11.25C12.2143 36.9643 12.8571 36.3214 12.8571 35.3571V20.8929C12.8571 19.9286 12.2143 19.2857 11.25 19.2857H8.03571V17.6786C8.03571 9.64286 14.4643 3.21429 22.5 3.21429C30.5357 3.21429 36.9643 9.64286 36.9643 17.6786V19.2857H33.75C32.7857 19.2857 32.1429 19.9286 32.1429 20.8929V35.3571C32.1429 36.3214 32.7857 36.9643 33.75 36.9643H36.9643C36.9643 37.9286 36.3214 38.5714 35.3571 38.5714H28.6071C27.9643 36.6429 26.1964 35.3571 24.1071 35.3571H20.8929C18.1607 35.3571 16.0714 37.4464 16.0714 40.1786C16.0714 42.9107 18.1607 45 20.8929 45H24.1071C26.1964 45 27.9643 43.7143 28.6071 41.7857H35.3571C38.0893 41.7857 40.1786 39.6964 40.1786 36.9643C42.9107 36.9643 45 34.875 45 32.1429V24.1071C45 21.375 42.9107 19.2857 40.1786 19.2857ZM9.64286 33.75H4.82143C3.85714 33.75 3.21429 33.1071 3.21429 32.1429V24.1071C3.21429 23.1429 3.85714 22.5 4.82143 22.5H9.64286V33.75ZM24.1071 41.7857H20.8929C19.9286 41.7857 19.2857 41.1429 19.2857 40.1786C19.2857 39.2143 19.9286 38.5714 20.8929 38.5714H24.1071C25.0714 38.5714 25.7143 39.2143 25.7143 40.1786C25.7143 41.1429 25.0714 41.7857 24.1071 41.7857ZM41.7857 32.1429C41.7857 33.1071 41.1429 33.75 40.1786 33.75H35.3571V22.5H40.1786C41.1429 22.5 41.7857 23.1429 41.7857 24.1071V32.1429Z" fill="#0077BF"/>
</svg>
