<svg width="47" height="40" viewBox="0 0 47 40" fill="none" xmlns="http://www.w3.org/2000/svg">
<g clip-path="url(#clip0)">
<path d="M5.03585 16.6667C3.18943 16.6667 1.67871 15.1667 1.67871 13.3333C1.67871 11.5 3.18943 10 5.03585 10H6.71443V16.6667H5.03585Z" fill="white"/>
<path d="M19.4713 38.3333C17.7927 38.3333 16.282 37.3333 15.7784 35.6667L10.0713 20H18.4641L23.332 33.1667C23.8356 34.3333 23.6677 35.6667 22.8284 36.6667C21.9891 37.6667 20.8141 38.3333 19.4713 38.3333Z" fill="white"/>
<path d="M25.1786 6.66669L6.71436 6.66669L6.71436 20H25.1786V6.66669Z" fill="#00ADEE"/>
<path d="M38.6069 16.6667V10H41.9641C43.8105 10 45.3212 11.5 45.3212 13.3333C45.3212 15.1667 43.8105 16.6667 41.9641 16.6667H38.6069Z" fill="#FFDD63"/>
<path d="M38.6073 1.66669V25L25.1787 21.6667V5.00002L38.6073 1.66669Z" fill="white"/>
<path d="M41.9643 8.33333H40.2857V1.66667C40.2857 1.16667 40.1179 0.666667 39.6143 0.333333C39.1107 0 38.775 0 38.2714 0L24.8429 3.33333C24.0036 3.5 23.5 4.16667 23.5 5L6.71429 5C5.70714 5 5.03571 5.66667 5.03571 6.66667L5.03571 8.33333C2.18214 8.33333 0 10.5 0 13.3333C0 16.1667 2.18214 18.3333 5.03571 18.3333V20C5.03571 21 5.70714 21.6667 6.71429 21.6667H8.89643L14.2679 36.3333C15.1071 38.5 17.1214 40 19.4714 40C21.3179 40 22.9964 39.1667 24.0036 37.6667C25.0107 36.1667 25.3464 34.3333 24.675 32.5L20.8143 21.6667H23.5C23.5 22.5 24.0036 23.1667 24.8429 23.3333L38.2714 26.6667C38.775 26.8333 39.2786 26.6667 39.7821 26.3333C40.1179 26 40.4536 25.5 40.4536 25V18.3333H42.1321C44.9857 18.3333 47.1679 16.1667 47.1679 13.3333C47.1679 10.5 44.8179 8.33333 41.9643 8.33333ZM3.35714 13.3333C3.35714 12.3333 4.02857 11.6667 5.03571 11.6667V15C4.02857 15 3.35714 14.3333 3.35714 13.3333ZM21.6536 33.6667C21.9893 34.3333 21.8214 35.1667 21.3179 35.6667C20.8143 36.3333 20.1429 36.6667 19.4714 36.6667C18.4643 36.6667 17.625 36 17.2893 35.1667L12.4214 21.6667H17.2893L21.6536 33.6667ZM8.39286 18.3333C8.39286 14.6667 8.39286 11.8333 8.39286 8.33333L23.5 8.33333V18.3333H8.39286ZM36.9286 22.8333L26.8571 20.3333V20V6.66667V6.33333L36.9286 3.83333C36.9286 10.8333 36.9286 15.8333 36.9286 22.8333ZM41.9643 15H40.2857V11.6667H41.9643C42.9714 11.6667 43.6429 12.3333 43.6429 13.3333C43.6429 14.3333 42.9714 15 41.9643 15Z" fill="#0077BF"/>
</g>
<defs>
<clipPath id="clip0">
<rect width="47" height="40" fill="white"/>
</clipPath>
</defs>
</svg>
